{
.appVersion = "895";
DisplayStrings = (
"0[/quoteleft 0"
);
copyright = "SIL OPEN FONT LICENSE Version 1.1";
date = "2017-02-17 20:36:56 +0000";
designer = "Trevor Bullock";
familyName = "KA New Stathis Main";
fontMaster = (
{
ascender = 800;
capHeight = 700;
descender = -200;
id = "A365CA76-4FD1-4CBB-A2E4-19DAF29CA71F";
visible = 1;
xHeight = 500;
},
{
ascender = 800;
capHeight = 700;
descender = -200;
id = "99B43F0D-E5AD-4461-80B0-7E1D7FD75A43";
xHeight = 500;
}
);
glyphs = (
{
glyphname = A;
lastChange = "2019-02-20 04:49:48 +0000";
layers = (
{
layerId = "A365CA76-4FD1-4CBB-A2E4-19DAF29CA71F";
paths = (
{
closed = 1;
nodes = (
"-722 -202 OFFCURVE",
"-809 -163 CURVE SMOOTH",
"-838 -150 OFFCURVE",
"-859 -135 OFFCURVE",
"-859 -126 CURVE SMOOTH",
"-859 -123 OFFCURVE",
"-850 -120 OFFCURVE",
"-843 -120 CURVE SMOOTH",
"-838 -120 OFFCURVE",
"-831 -122 OFFCURVE",
"-812 -131 CURVE SMOOTH",
"-745 -165 OFFCURVE",
"-686 -183 OFFCURVE",
"-626 -183 CURVE SMOOTH",
"-598 -183 OFFCURVE",
"-568 -183 OFFCURVE",
"-564 -167 CURVE SMOOTH",
"-563 -164 OFFCURVE",
"-566 -160 OFFCURVE",
"-576 -149 CURVE SMOOTH",
"-592 -131 OFFCURVE",
"-592 -129 OFFCURVE",
"-583 -123 CURVE SMOOTH",
"-578 -120 OFFCURVE",
"-575 -119 OFFCURVE",
"-561 -120 CURVE SMOOTH",
"-533 -122 OFFCURVE",
"-507 -131 OFFCURVE",
"-485 -148 CURVE SMOOTH",
"-474 -157 OFFCURVE",
"-467 -170 OFFCURVE",
"-481 -189 CURVE SMOOTH",
"-489 -201 OFFCURVE",
"-514 -212 OFFCURVE",
"-544 -217 CURVE SMOOTH",
"-620 -229 OFFCURVE"
);
}
);
width = 0;
},
{
layerId = "99B43F0D-E5AD-4461-80B0-7E1D7FD75A43";
paths = (
{
closed = 1;
nodes = (
"-722 -202 OFFCURVE",
"-809 -163 CURVE SMOOTH",
"-838 -150 OFFCURVE",
"-859 -135 OFFCURVE",
"-859 -126 CURVE SMOOTH",
"-859 -123 OFFCURVE",
"-850 -120 OFFCURVE",
"-843 -120 CURVE SMOOTH",
"-838 -120 OFFCURVE",
"-831 -122 OFFCURVE",
"-812 -131 CURVE SMOOTH",
"-745 -165 OFFCURVE",
"-686 -183 OFFCURVE",
"-626 -183 CURVE SMOOTH",
"-598 -183 OFFCURVE",
"-568 -183 OFFCURVE",
"-564 -167 CURVE SMOOTH",
"-563 -164 OFFCURVE",
"-566 -160 OFFCURVE",
"-576 -149 CURVE SMOOTH",
"-592 -131 OFFCURVE",
"-592 -129 OFFCURVE",
"-583 -123 CURVE SMOOTH",
"-578 -120 OFFCURVE",
"-575 -119 OFFCURVE",
"-561 -120 CURVE SMOOTH",
"-533 -122 OFFCURVE",
"-507 -131 OFFCURVE",
"-485 -148 CURVE SMOOTH",
"-474 -157 OFFCURVE",
"-467 -170 OFFCURVE",
"-481 -189 CURVE SMOOTH",
"-489 -201 OFFCURVE",
"-514 -212 OFFCURVE",
"-544 -217 CURVE SMOOTH",
"-620 -229 OFFCURVE"
);
}
);
width = 0;
}
);
unicode = 0041;
},
{
glyphname = B;
lastChange = "2019-02-20 04:49:48 +0000";
layers = (
{
layerId = "A365CA76-4FD1-4CBB-A2E4-19DAF29CA71F";
paths = (
{
closed = 1;
nodes = (
"-632 -281 OFFCURVE",
"-813 -248 OFFCURVE",
"-1086 -188 CURVE",
"-1210 -162 OFFCURVE",
"-1220 -159 OFFCURVE",
"-1241 -145 CURVE",
"-1252 -138 OFFCURVE",
"-1259 -129 OFFCURVE",
"-1259 -124 CURVE",
"-1259 -118 OFFCURVE",
"-1250 -112 OFFCURVE",
"-1243 -112 CURVE",
"-1225 -112 OFFCURVE",
"-1096 -137 OFFCURVE",
"-842 -188 CURVE",
"-772 -203 OFFCURVE",
"-687 -219 OFFCURVE",
"-653 -225 CURVE",
"-590 -236 LINE",
"-573 -233 LINE",
"-537 -227 OFFCURVE",
"-480 -208 OFFCURVE",
"-397 -173 CURVE",
"-366 -160 OFFCURVE",
"-317 -142 OFFCURVE",
"-278 -129 CURVE",
"-199 -102 OFFCURVE",
"-188 -99 OFFCURVE",
"-166 -95 CURVE",
"-143 -92 OFFCURVE",
"-126 -92 OFFCURVE",
"-104 -96 CURVE",
"-94 -98 OFFCURVE",
"-57 -104 OFFCURVE",
"-23 -109 CURVE",
"11 -114 OFFCURVE",
"48 -120 OFFCURVE",
"58 -122 CURVE",
"117 -135 OFFCURVE",
"113 -134 OFFCURVE",
"113 -139 CURVE",
"113 -142 OFFCURVE",
"111 -145 OFFCURVE",
"105 -147 CURVE",
"95 -152 OFFCURVE",
"47 -166 OFFCURVE",
"-20 -183 CURVE",
"-51 -191 OFFCURVE",
"-94 -204 OFFCURVE",
"-126 -215 CURVE",
"-156 -225 OFFCURVE",
"-197 -238 OFFCURVE",
"-218 -243 CURVE",
"-238 -249 OFFCURVE",
"-293 -266 OFFCURVE",
"-338 -282 CURVE",
"-384 -297 OFFCURVE",
"-422 -309 OFFCURVE",
"-424 -309 CURVE",
"-426 -309 OFFCURVE",
"-441 -307 OFFCURVE",
"-459 -305 CURVE"
);
}
);
width = 0;
},
{
layerId = "99B43F0D-E5AD-4461-80B0-7E1D7FD75A43";
paths = (
{
closed = 1;
nodes = (
"-632 -281 OFFCURVE",
"-813 -248 OFFCURVE",
"-1086 -188 CURVE",
"-1210 -162 OFFCURVE",
"-1220 -159 OFFCURVE",
"-1241 -145 CURVE",
"-1252 -138 OFFCURVE",
"-1259 -129 OFFCURVE",
"-1259 -124 CURVE",
"-1259 -118 OFFCURVE",
"-1250 -112 OFFCURVE",
"-1243 -112 CURVE",
"-1225 -112 OFFCURVE",
"-1096 -137 OFFCURVE",
"-842 -188 CURVE",
"-772 -203 OFFCURVE",
"-687 -219 OFFCURVE",
"-653 -225 CURVE",
"-590 -236 LINE",
"-573 -233 LINE",
"-537 -227 OFFCURVE",
"-480 -208 OFFCURVE",
"-397 -173 CURVE",
"-366 -160 OFFCURVE",
"-317 -142 OFFCURVE",
"-278 -129 CURVE",
"-199 -102 OFFCURVE",
"-188 -99 OFFCURVE",
"-166 -95 CURVE",
"-143 -92 OFFCURVE",
"-126 -92 OFFCURVE",
"-104 -96 CURVE",
"-94 -98 OFFCURVE",
"-57 -104 OFFCURVE",
"-23 -109 CURVE",
"11 -114 OFFCURVE",
"48 -120 OFFCURVE",
"58 -122 CURVE",
"117 -135 OFFCURVE",
"113 -134 OFFCURVE",
"113 -139 CURVE",
"113 -142 OFFCURVE",
"111 -145 OFFCURVE",
"105 -147 CURVE",
"95 -152 OFFCURVE",
"47 -166 OFFCURVE",
"-20 -183 CURVE",
"-51 -191 OFFCURVE",
"-94 -204 OFFCURVE",
"-126 -215 CURVE",
"-156 -225 OFFCURVE",
"-197 -238 OFFCURVE",
"-218 -243 CURVE",
"-238 -249 OFFCURVE",
"-293 -266 OFFCURVE",
"-338 -282 CURVE",
"-384 -297 OFFCURVE",
"-422 -309 OFFCURVE",
"-424 -309 CURVE",
"-426 -309 OFFCURVE",
"-441 -307 OFFCURVE",
"-459 -305 CURVE"
);
}
);
width = 0;
}
);
unicode = 0042;
},
{
glyphname = C;
lastChange = "2019-02-20 04:49:48 +0000";
layers = (
{
layerId = "A365CA76-4FD1-4CBB-A2E4-19DAF29CA71F";
paths = (
{
closed = 1;
nodes = (
"1046 204 OFFCURVE",
"1020 206 OFFCURVE",
"999 215 CURVE SMOOTH",
"976 225 OFFCURVE",
"958 250 OFFCURVE",
"944 289 CURVE SMOOTH",
"937 309 OFFCURVE",
"931 322 OFFCURVE",
"921 332 CURVE SMOOTH",
"911 342 OFFCURVE",
"908 350 OFFCURVE",
"911 358 CURVE SMOOTH",
"914 367 OFFCURVE",
"921 371 OFFCURVE",
"935 371 CURVE SMOOTH",
"966 371 OFFCURVE",
"1010 369 OFFCURVE",
"1016 367 CURVE SMOOTH",
"1022 365 OFFCURVE",
"1039 355 OFFCURVE",
"1046 342 CURVE SMOOTH",
"1047 340 OFFCURVE",
"1052 332 OFFCURVE",
"1058 319 CURVE SMOOTH",
"1061 313 OFFCURVE",
"1067 299 OFFCURVE",
"1074 286 CURVE SMOOTH",
"1088 261 OFFCURVE",
"1093 255 OFFCURVE",
"1110 253 CURVE SMOOTH",
"1118 252 OFFCURVE",
"1131 247 OFFCURVE",
"1131 236 CURVE SMOOTH",
"1131 228 OFFCURVE",
"1127 222 OFFCURVE",
"1108 213 CURVE SMOOTH",
"1095 207 OFFCURVE",
"1088 204 OFFCURVE",
"1068 204 CURVE SMOOTH"
);
},
{
closed = 1;
nodes = (
"1256 203 OFFCURVE",
"1230 206 OFFCURVE",
"1209 215 CURVE SMOOTH",
"1186 225 OFFCURVE",
"1168 250 OFFCURVE",
"1154 289 CURVE SMOOTH",
"1147 309 OFFCURVE",
"1141 322 OFFCURVE",
"1131 332 CURVE SMOOTH",
"1121 342 OFFCURVE",
"1118 350 OFFCURVE",
"1121 358 CURVE SMOOTH",
"1124 367 OFFCURVE",
"1131 371 OFFCURVE",
"1145 371 CURVE SMOOTH",
"1176 371 OFFCURVE",
"1220 369 OFFCURVE",
"1226 367 CURVE SMOOTH",
"1232 365 OFFCURVE",
"1250 355 OFFCURVE",
"1256 342 CURVE SMOOTH",
"1257 340 OFFCURVE",
"1262 332 OFFCURVE",
"1268 319 CURVE SMOOTH",
"1271 313 OFFCURVE",
"1277 299 OFFCURVE",
"1284 286 CURVE SMOOTH",
"1298 261 OFFCURVE",
"1303 255 OFFCURVE",
"1320 253 CURVE SMOOTH",
"1328 252 OFFCURVE",
"1341 247 OFFCURVE",
"1341 236 CURVE SMOOTH",
"1341 228 OFFCURVE",
"1336 222 OFFCURVE",
"1318 213 CURVE SMOOTH",
"1306 207 OFFCURVE",
"1298 205 OFFCURVE",
"1278 204 CURVE SMOOTH"
);
},
{
closed = 1;
nodes = (
"476 197 OFFCURVE",
"474 198 OFFCURVE",
"486 210 CURVE SMOOTH",
"506 229 OFFCURVE",
"509 245 OFFCURVE",
"495 260 CURVE SMOOTH",
"474 283 OFFCURVE",
"425 297 OFFCURVE",
"300 317 CURVE SMOOTH",
"261 322 OFFCURVE",
"216 326 OFFCURVE",
"245 341 CURVE SMOOTH",
"291 365 OFFCURVE",
"420 350 OFFCURVE",
"500 325 CURVE SMOOTH",
"565 303 OFFCURVE",
"608 266 OFFCURVE",
"614 225 CURVE SMOOTH",
"617 205 OFFCURVE",
"611 187 OFFCURVE",
"597 181 CURVE SMOOTH",
"586 175 OFFCURVE",
"572 177 OFFCURVE",
"525 187 CURVE SMOOTH"
);
},
{
closed = 1;
nodes = (
"773 210 OFFCURVE",
"721 218 OFFCURVE",
"685 223 CURVE SMOOTH",
"613 234 OFFCURVE",
"665 243 OFFCURVE",
"619 299 CURVE SMOOTH",
"602 322 OFFCURVE",
"588 331 OFFCURVE",
"537 354 CURVE SMOOTH",
"458 391 OFFCURVE",
"375 411 OFFCURVE",
"296 411 CURVE SMOOTH",
"248 411 OFFCURVE",
"180 403 OFFCURVE",
"165 362 CURVE SMOOTH",
"155 331 OFFCURVE",
"180 311 OFFCURVE",
"220 285 CURVE SMOOTH",
"253 266 OFFCURVE",
"190 270 OFFCURVE",
"140 280 CURVE SMOOTH",
"93 291 OFFCURVE",
"63 294 OFFCURVE",
"36 336 CURVE SMOOTH",
"26 350 OFFCURVE",
"24 361 OFFCURVE",
"24 383 CURVE SMOOTH",
"24 477 OFFCURVE",
"199 475 OFFCURVE",
"334 454 CURVE SMOOTH",
"497 431 OFFCURVE",
"688 363 OFFCURVE",
"784 263 CURVE SMOOTH",
"812 234 OFFCURVE",
"816 218 OFFCURVE",
"793 214 CURVE SMOOTH"
);
},
{
closed = 1;
nodes = (
"1316 18 OFFCURVE",
"1178 22 OFFCURVE",
"1049 16 CURVE SMOOTH",
"932 11 OFFCURVE",
"872 12 OFFCURVE",
"710 6 CURVE SMOOTH",
"582 1 OFFCURVE",
"541 5 OFFCURVE",
"507 6 CURVE SMOOTH",
"377 10 OFFCURVE",
"287 23 OFFCURVE",
"251 31 CURVE SMOOTH",
"228 36 OFFCURVE",
"196 54 OFFCURVE",
"163 80 CURVE SMOOTH",
"141 97 OFFCURVE",
"131 120 OFFCURVE",
"147 120 CURVE SMOOTH",
"149 120 OFFCURVE",
"166 117 OFFCURVE",
"182 114 CURVE SMOOTH",
"250 101 OFFCURVE",
"265 101 OFFCURVE",
"419 99 CURVE SMOOTH",
"500 98 OFFCURVE",
"638 99 OFFCURVE",
"738 101 CURVE SMOOTH",
"832 103 OFFCURVE",
"982 104 OFFCURVE",
"1069 104 CURVE SMOOTH",
"1212 104 OFFCURVE",
"1231 104 OFFCURVE",
"1254 100 CURVE SMOOTH",
"1320 89 OFFCURVE",
"1415 60 OFFCURVE",
"1466 34 CURVE SMOOTH",
"1484 25 OFFCURVE",
"1495 10 OFFCURVE",
"1491 1 CURVE SMOOTH",
"1488 -5 OFFCURVE",
"1478 -4 OFFCURVE",
"1441 1 CURVE SMOOTH"
);
}
);
width = 1522;
},
{
layerId = "99B43F0D-E5AD-4461-80B0-7E1D7FD75A43";
paths = (
{
closed = 1;
nodes = (
"1046 204 OFFCURVE",
"1020 206 OFFCURVE",
"999 215 CURVE SMOOTH",
"976 225 OFFCURVE",
"958 250 OFFCURVE",
"944 289 CURVE SMOOTH",
"937 309 OFFCURVE",
"931 322 OFFCURVE",
"921 332 CURVE SMOOTH",
"911 342 OFFCURVE",
"908 350 OFFCURVE",
"911 358 CURVE SMOOTH",
"914 367 OFFCURVE",
"921 371 OFFCURVE",
"935 371 CURVE SMOOTH",
"966 371 OFFCURVE",
"1010 369 OFFCURVE",
"1016 367 CURVE SMOOTH",
"1022 365 OFFCURVE",
"1039 355 OFFCURVE",
"1046 342 CURVE SMOOTH",
"1047 340 OFFCURVE",
"1052 332 OFFCURVE",
"1058 319 CURVE SMOOTH",
"1061 313 OFFCURVE",
"1067 299 OFFCURVE",
"1074 286 CURVE SMOOTH",
"1088 261 OFFCURVE",
"1093 255 OFFCURVE",
"1110 253 CURVE SMOOTH",
"1118 252 OFFCURVE",
"1131 247 OFFCURVE",
"1131 236 CURVE SMOOTH",
"1131 228 OFFCURVE",
"1127 222 OFFCURVE",
"1108 213 CURVE SMOOTH",
"1095 207 OFFCURVE",
"1088 204 OFFCURVE",
"1068 204 CURVE SMOOTH"
);
},
{
closed = 1;
nodes = (
"1256 203 OFFCURVE",
"1230 206 OFFCURVE",
"1209 215 CURVE SMOOTH",
"1186 225 OFFCURVE",
"1168 250 OFFCURVE",
"1154 289 CURVE SMOOTH",
"1147 309 OFFCURVE",
"1141 322 OFFCURVE",
"1131 332 CURVE SMOOTH",
"1121 342 OFFCURVE",
"1118 350 OFFCURVE",
"1121 358 CURVE SMOOTH",
"1124 367 OFFCURVE",
"1131 371 OFFCURVE",
"1145 371 CURVE SMOOTH",
"1176 371 OFFCURVE",
"1220 369 OFFCURVE",
"1226 367 CURVE SMOOTH",
"1232 365 OFFCURVE",
"1250 355 OFFCURVE",
"1256 342 CURVE SMOOTH",
"1257 340 OFFCURVE",
"1262 332 OFFCURVE",
"1268 319 CURVE SMOOTH",
"1271 313 OFFCURVE",
"1277 299 OFFCURVE",
"1284 286 CURVE SMOOTH",
"1298 261 OFFCURVE",
"1303 255 OFFCURVE",
"1320 253 CURVE SMOOTH",
"1328 252 OFFCURVE",
"1341 247 OFFCURVE",
"1341 236 CURVE SMOOTH",
"1341 228 OFFCURVE",
"1336 222 OFFCURVE",
"1318 213 CURVE SMOOTH",
"1306 207 OFFCURVE",
"1298 205 OFFCURVE",
"1278 204 CURVE SMOOTH"
);
},
{
closed = 1;
nodes = (
"476 197 OFFCURVE",
"474 198 OFFCURVE",
"486 210 CURVE SMOOTH",
"506 229 OFFCURVE",
"509 245 OFFCURVE",
"495 260 CURVE SMOOTH",
"474 283 OFFCURVE",
"425 297 OFFCURVE",
"300 317 CURVE SMOOTH",
"261 322 OFFCURVE",
"216 326 OFFCURVE",
"245 341 CURVE SMOOTH",
"291 365 OFFCURVE",
"420 350 OFFCURVE",
"500 325 CURVE SMOOTH",
"565 303 OFFCURVE",
"608 266 OFFCURVE",
"614 225 CURVE SMOOTH",
"617 205 OFFCURVE",
"611 187 OFFCURVE",
"597 181 CURVE SMOOTH",
"586 175 OFFCURVE",
"572 177 OFFCURVE",
"525 187 CURVE SMOOTH"
);
},
{
closed = 1;
nodes = (
"773 210 OFFCURVE",
"721 218 OFFCURVE",
"685 223 CURVE SMOOTH",
"613 234 OFFCURVE",
"665 243 OFFCURVE",
"619 299 CURVE SMOOTH",
"602 322 OFFCURVE",
"588 331 OFFCURVE",
"537 354 CURVE SMOOTH",
"458 391 OFFCURVE",
"375 411 OFFCURVE",
"296 411 CURVE SMOOTH",
"248 411 OFFCURVE",
"180 403 OFFCURVE",
"165 362 CURVE SMOOTH",
"155 331 OFFCURVE",
"180 311 OFFCURVE",
"220 285 CURVE SMOOTH",
"253 266 OFFCURVE",
"190 270 OFFCURVE",
"140 280 CURVE SMOOTH",
"93 291 OFFCURVE",
"63 294 OFFCURVE",
"36 336 CURVE SMOOTH",
"26 350 OFFCURVE",
"24 361 OFFCURVE",
"24 383 CURVE SMOOTH",
"24 477 OFFCURVE",
"199 475 OFFCURVE",
"334 454 CURVE SMOOTH",
"497 431 OFFCURVE",
"688 363 OFFCURVE",
"784 263 CURVE SMOOTH",
"812 234 OFFCURVE",
"816 218 OFFCURVE",
"793 214 CURVE SMOOTH"
);
},
{
closed = 1;
nodes = (
"1316 18 OFFCURVE",
"1178 22 OFFCURVE",
"1049 16 CURVE SMOOTH",
"932 11 OFFCURVE",
"872 12 OFFCURVE",
"710 6 CURVE SMOOTH",
"582 1 OFFCURVE",
"541 5 OFFCURVE",
"507 6 CURVE SMOOTH",
"377 10 OFFCURVE",
"287 23 OFFCURVE",
"251 31 CURVE SMOOTH",
"228 36 OFFCURVE",
"196 54 OFFCURVE",
"163 80 CURVE SMOOTH",
"141 97 OFFCURVE",
"131 120 OFFCURVE",
"147 120 CURVE SMOOTH",
"149 120 OFFCURVE",
"166 117 OFFCURVE",
"182 114 CURVE SMOOTH",
"250 101 OFFCURVE",
"265 101 OFFCURVE",
"419 99 CURVE SMOOTH",
"500 98 OFFCURVE",
"638 99 OFFCURVE",
"738 101 CURVE SMOOTH",
"832 103 OFFCURVE",
"982 104 OFFCURVE",
"1069 104 CURVE SMOOTH",
"1212 104 OFFCURVE",
"1231 104 OFFCURVE",
"1254 100 CURVE SMOOTH",
"1320 89 OFFCURVE",
"1415 60 OFFCURVE",
"1466 34 CURVE SMOOTH",
"1484 25 OFFCURVE",
"1495 10 OFFCURVE",
"1491 1 CURVE SMOOTH",
"1488 -5 OFFCURVE",
"1478 -4 OFFCURVE",
"1441 1 CURVE SMOOTH"
);
}
);
width = 1522;
}
);
unicode = 0043;
},
{
glyphname = D;
lastChange = "2019-02-20 04:49:48 +0000";
layers = (
{
layerId = "A365CA76-4FD1-4CBB-A2E4-19DAF29CA71F";
paths = (
{
closed = 1;
nodes = (
"-175 -261 LINE SMOOTH",
"-200 -253 OFFCURVE",
"-221 -243 OFFCURVE",
"-225 -237 CURVE SMOOTH",
"-235 -221 OFFCURVE",
"-221 -209 OFFCURVE",
"-201 -192 CURVE SMOOTH",
"-185 -178 OFFCURVE",
"-187 -174 OFFCURVE",
"-169 -174 CURVE SMOOTH",
"-151 -174 OFFCURVE",
"-135 -179 OFFCURVE",
"-107 -191 CURVE SMOOTH",
"-82 -202 OFFCURVE",
"-79 -202 OFFCURVE",
"-72 -211 CURVE SMOOTH",
"-66 -219 OFFCURVE",
"-65 -220 OFFCURVE",
"-66 -227 CURVE SMOOTH",
"-68 -244 OFFCURVE",
"-103 -272 OFFCURVE",
"-116 -275 CURVE SMOOTH",
"-124 -277 OFFCURVE",
"-127 -276 OFFCURVE",
"-143 -271 CURVE SMOOTH"
);
}
);
width = 0;
},
{
layerId = "99B43F0D-E5AD-4461-80B0-7E1D7FD75A43";
paths = (
{
closed = 1;
nodes = (
"-175 -261 LINE SMOOTH",
"-200 -253 OFFCURVE",
"-221 -243 OFFCURVE",
"-225 -237 CURVE SMOOTH",
"-235 -221 OFFCURVE",
"-221 -209 OFFCURVE",
"-201 -192 CURVE SMOOTH",
"-185 -178 OFFCURVE",
"-187 -174 OFFCURVE",
"-169 -174 CURVE SMOOTH",
"-151 -174 OFFCURVE",
"-135 -179 OFFCURVE",
"-107 -191 CURVE SMOOTH",
"-82 -202 OFFCURVE",
"-79 -202 OFFCURVE",
"-72 -211 CURVE SMOOTH",
"-66 -219 OFFCURVE",
"-65 -220 OFFCURVE",
"-66 -227 CURVE SMOOTH",
"-68 -244 OFFCURVE",
"-103 -272 OFFCURVE",
"-116 -275 CURVE SMOOTH",
"-124 -277 OFFCURVE",
"-127 -276 OFFCURVE",
"-143 -271 CURVE SMOOTH"
);
}
);
width = 0;
}
);
unicode = 0044;
},
{
glyphname = E;
lastChange = "2019-02-20 04:49:48 +0000";
layers = (
{
layerId = "A365CA76-4FD1-4CBB-A2E4-19DAF29CA71F";
paths = (
{
closed = 1;
nodes = (
"611 -112 OFFCURVE",
"432 -90 OFFCURVE",
"337 -55 CURVE SMOOTH",
"184 1 OFFCURVE",
"92 43 OFFCURVE",
"56 81 CURVE SMOOTH",
"25 113 OFFCURVE",
"30 136 OFFCURVE",
"74 144 CURVE SMOOTH",
"113 151 OFFCURVE",
"307 147 OFFCURVE",
"335 123 CURVE SMOOTH",
"342 117 OFFCURVE",
"344 112 OFFCURVE",
"336 104 CURVE SMOOTH",
"334 102 OFFCURVE",
"328 103 OFFCURVE",
"304 101 CURVE SMOOTH",
"276 99 OFFCURVE",
"261 97 OFFCURVE",
"261 93 CURVE SMOOTH",
"261 54 OFFCURVE",
"405 -11 OFFCURVE",
"488 -34 CURVE SMOOTH",
"658 -81 OFFCURVE",
"901 -88 OFFCURVE",
"901 18 CURVE SMOOTH",
"901 56 OFFCURVE",
"877 86 OFFCURVE",
"835 107 CURVE SMOOTH",
"772 139 OFFCURVE",
"830 144 OFFCURVE",
"905 144 CURVE SMOOTH",
"1004 144 OFFCURVE",
"1088 120 OFFCURVE",
"1067 16 CURVE SMOOTH",
"1047 -84 OFFCURVE",
"893 -117 OFFCURVE",
"726 -114 CURVE SMOOTH"
);
},
{
closed = 1;
nodes = (
"579 181 OFFCURVE",
"577 182 OFFCURVE",
"591 196 CURVE SMOOTH",
"616 221 OFFCURVE",
"619 239 OFFCURVE",
"603 257 CURVE SMOOTH",
"578 286 OFFCURVE",
"517 301 OFFCURVE",
"366 326 CURVE SMOOTH",
"318 334 OFFCURVE",
"264 337 OFFCURVE",
"299 356 CURVE SMOOTH",
"354 386 OFFCURVE",
"511 367 OFFCURVE",
"608 336 CURVE SMOOTH",
"688 310 OFFCURVE",
"739 265 OFFCURVE",
"747 215 CURVE SMOOTH",
"751 190 OFFCURVE",
"743 169 OFFCURVE",
"727 161 CURVE SMOOTH",
"713 154 OFFCURVE",
"696 156 OFFCURVE",
"639 168 CURVE SMOOTH"
);
},
{
closed = 1;
nodes = (
"877 206 OFFCURVE",
"834 212 CURVE SMOOTH",
"746 224 OFFCURVE",
"809 236 OFFCURVE",
"753 305 CURVE SMOOTH",
"731 332 OFFCURVE",
"715 343 OFFCURVE",
"654 372 CURVE SMOOTH",
"558 418 OFFCURVE",
"457 441 OFFCURVE",
"361 441 CURVE SMOOTH",
"302 441 OFFCURVE",
"220 431 OFFCURVE",
"202 381 CURVE SMOOTH",
"188 343 OFFCURVE",
"220 319 OFFCURVE",
"268 288 CURVE SMOOTH",
"307 263 OFFCURVE",
"232 269 OFFCURVE",
"171 282 CURVE SMOOTH",
"114 294 OFFCURVE",
"77 299 OFFCURVE",
"44 350 CURVE SMOOTH",
"33 367 OFFCURVE",
"30 380 OFFCURVE",
"30 407 CURVE SMOOTH",
"30 521 OFFCURVE",
"243 518 OFFCURVE",
"407 493 CURVE SMOOTH",
"605 463 OFFCURVE",
"838 382 OFFCURVE",
"954 261 CURVE",
"990 226 OFFCURVE",
"993 207 OFFCURVE",
"965 201 CURVE",
"940 198 OFFCURVE"
);
}
);
width = 1100;
},
{
layerId = "99B43F0D-E5AD-4461-80B0-7E1D7FD75A43";
paths = (
{
closed = 1;
nodes = (
"611 -112 OFFCURVE",
"432 -90 OFFCURVE",
"337 -55 CURVE SMOOTH",
"184 1 OFFCURVE",
"92 43 OFFCURVE",
"56 81 CURVE SMOOTH",
"25 113 OFFCURVE",
"30 136 OFFCURVE",
"74 144 CURVE SMOOTH",
"113 151 OFFCURVE",
"307 147 OFFCURVE",
"335 123 CURVE SMOOTH",
"342 117 OFFCURVE",
"344 112 OFFCURVE",
"336 104 CURVE SMOOTH",
"334 102 OFFCURVE",
"328 103 OFFCURVE",
"304 101 CURVE SMOOTH",
"276 99 OFFCURVE",
"261 97 OFFCURVE",
"261 93 CURVE SMOOTH",
"261 54 OFFCURVE",
"405 -11 OFFCURVE",
"488 -34 CURVE SMOOTH",
"658 -81 OFFCURVE",
"901 -88 OFFCURVE",
"901 18 CURVE SMOOTH",
"901 56 OFFCURVE",
"877 86 OFFCURVE",
"835 107 CURVE SMOOTH",
"772 139 OFFCURVE",
"830 144 OFFCURVE",
"905 144 CURVE SMOOTH",
"1004 144 OFFCURVE",
"1088 120 OFFCURVE",
"1067 16 CURVE SMOOTH",
"1047 -84 OFFCURVE",
"893 -117 OFFCURVE",
"726 -114 CURVE SMOOTH"
);
},
{
closed = 1;
nodes = (
"579 181 OFFCURVE",
"577 182 OFFCURVE",
"591 196 CURVE SMOOTH",
"616 221 OFFCURVE",
"619 239 OFFCURVE",
"603 257 CURVE SMOOTH",
"578 286 OFFCURVE",
"517 301 OFFCURVE",
"366 326 CURVE SMOOTH",
"318 334 OFFCURVE",
"264 337 OFFCURVE",
"299 356 CURVE SMOOTH",
"354 386 OFFCURVE",
"511 367 OFFCURVE",
"608 336 CURVE SMOOTH",
"688 310 OFFCURVE",
"739 265 OFFCURVE",
"747 215 CURVE SMOOTH",
"751 190 OFFCURVE",
"743 169 OFFCURVE",
"727 161 CURVE SMOOTH",
"713 154 OFFCURVE",
"696 156 OFFCURVE",
"639 168 CURVE SMOOTH"
);
},
{
closed = 1;
nodes = (
"877 206 OFFCURVE",
"834 212 CURVE SMOOTH",
"746 224 OFFCURVE",
"809 236 OFFCURVE",
"753 305 CURVE SMOOTH",
"731 332 OFFCURVE",
"715 343 OFFCURVE",
"654 372 CURVE SMOOTH",
"558 418 OFFCURVE",
"457 441 OFFCURVE",
"361 441 CURVE SMOOTH",
"302 441 OFFCURVE",
"220 431 OFFCURVE",
"202 381 CURVE SMOOTH",
"188 343 OFFCURVE",
"220 319 OFFCURVE",
"268 288 CURVE SMOOTH",
"307 263 OFFCURVE",
"232 269 OFFCURVE",
"171 282 CURVE SMOOTH",
"114 294 OFFCURVE",
"77 299 OFFCURVE",
"44 350 CURVE SMOOTH",
"33 367 OFFCURVE",
"30 380 OFFCURVE",
"30 407 CURVE SMOOTH",
"30 521 OFFCURVE",
"243 518 OFFCURVE",
"407 493 CURVE SMOOTH",
"605 463 OFFCURVE",
"838 382 OFFCURVE",
"954 261 CURVE",
"990 226 OFFCURVE",
"993 207 OFFCURVE",
"965 201 CURVE",
"940 198 OFFCURVE"
);
}
);
width = 1100;
}
);
unicode = 0045;
},
{
glyphname = F;
lastChange = "2019-02-20 04:49:48 +0000";
layers = (
{
layerId = "A365CA76-4FD1-4CBB-A2E4-19DAF29CA71F";
paths = (
{
closed = 1;
nodes = (
"-318 -261 LINE SMOOTH",
"-343 -253 OFFCURVE",
"-364 -243 OFFCURVE",
"-368 -237 CURVE SMOOTH",
"-378 -221 OFFCURVE",
"-364 -209 OFFCURVE",
"-344 -192 CURVE SMOOTH",
"-328 -178 OFFCURVE",
"-330 -174 OFFCURVE",
"-312 -174 CURVE SMOOTH",
"-294 -174 OFFCURVE",
"-278 -179 OFFCURVE",
"-250 -191 CURVE SMOOTH",
"-225 -202 OFFCURVE",
"-222 -202 OFFCURVE",
"-215 -211 CURVE SMOOTH",
"-209 -219 OFFCURVE",
"-208 -220 OFFCURVE",
"-209 -227 CURVE SMOOTH",
"-211 -244 OFFCURVE",
"-246 -272 OFFCURVE",
"-259 -275 CURVE SMOOTH",
"-267 -277 OFFCURVE",
"-270 -276 OFFCURVE",
"-286 -271 CURVE SMOOTH"
);
},
{
closed = 1;
nodes = (
"-108 -261 LINE SMOOTH",
"-133 -253 OFFCURVE",
"-154 -243 OFFCURVE",
"-158 -237 CURVE SMOOTH",
"-168 -221 OFFCURVE",
"-154 -209 OFFCURVE",
"-134 -192 CURVE SMOOTH",
"-118 -178 OFFCURVE",
"-120 -174 OFFCURVE",
"-102 -174 CURVE SMOOTH",
"-84 -174 OFFCURVE",
"-68 -179 OFFCURVE",
"-40 -191 CURVE SMOOTH",
"-15 -202 OFFCURVE",
"-12 -202 OFFCURVE",
"-5 -211 CURVE SMOOTH",
"1 -219 OFFCURVE",
"2 -220 OFFCURVE",
"1 -227 CURVE SMOOTH",
"-1 -244 OFFCURVE",
"-36 -272 OFFCURVE",
"-49 -275 CURVE SMOOTH",
"-57 -277 OFFCURVE",
"-60 -276 OFFCURVE",
"-76 -271 CURVE SMOOTH"
);
}
);
width = 0;
},
{
layerId = "99B43F0D-E5AD-4461-80B0-7E1D7FD75A43";
paths = (
{
closed = 1;
nodes = (
"-318 -261 LINE SMOOTH",
"-343 -253 OFFCURVE",
"-364 -243 OFFCURVE",
"-368 -237 CURVE SMOOTH",
"-378 -221 OFFCURVE",
"-364 -209 OFFCURVE",
"-344 -192 CURVE SMOOTH",
"-328 -178 OFFCURVE",
"-330 -174 OFFCURVE",
"-312 -174 CURVE SMOOTH",
"-294 -174 OFFCURVE",
"-278 -179 OFFCURVE",
"-250 -191 CURVE SMOOTH",
"-225 -202 OFFCURVE",
"-222 -202 OFFCURVE",
"-215 -211 CURVE SMOOTH",
"-209 -219 OFFCURVE",
"-208 -220 OFFCURVE",
"-209 -227 CURVE SMOOTH",
"-211 -244 OFFCURVE",
"-246 -272 OFFCURVE",
"-259 -275 CURVE SMOOTH",
"-267 -277 OFFCURVE",
"-270 -276 OFFCURVE",
"-286 -271 CURVE SMOOTH"
);
},
{
closed = 1;
nodes = (
"-108 -261 LINE SMOOTH",
"-133 -253 OFFCURVE",
"-154 -243 OFFCURVE",
"-158 -237 CURVE SMOOTH",
"-168 -221 OFFCURVE",
"-154 -209 OFFCURVE",
"-134 -192 CURVE SMOOTH",
"-118 -178 OFFCURVE",
"-120 -174 OFFCURVE",
"-102 -174 CURVE SMOOTH",
"-84 -174 OFFCURVE",
"-68 -179 OFFCURVE",
"-40 -191 CURVE SMOOTH",
"-15 -202 OFFCURVE",
"-12 -202 OFFCURVE",
"-5 -211 CURVE SMOOTH",
"1 -219 OFFCURVE",
"2 -220 OFFCURVE",
"1 -227 CURVE SMOOTH",
"-1 -244 OFFCURVE",
"-36 -272 OFFCURVE",
"-49 -275 CURVE SMOOTH",
"-57 -277 OFFCURVE",
"-60 -276 OFFCURVE",
"-76 -271 CURVE SMOOTH"
);
}
);
width = 0;
}
);
unicode = 0046;
},
{
glyphname = G;
lastChange = "2019-02-20 04:49:48 +0000";
layers = (
{
layerId = "A365CA76-4FD1-4CBB-A2E4-19DAF29CA71F";
paths = (
{
closed = 1;
nodes = (
"-351 -256 LINE SMOOTH",
"-372 -249 OFFCURVE",
"-390 -241 OFFCURVE",
"-394 -235 CURVE SMOOTH",
"-403 -222 OFFCURVE",
"-390 -211 OFFCURVE",
"-373 -196 CURVE SMOOTH",
"-359 -184 OFFCURVE",
"-361 -181 OFFCURVE",
"-346 -181 CURVE SMOOTH",
"-330 -181 OFFCURVE",
"-316 -185 OFFCURVE",
"-292 -196 CURVE SMOOTH",
"-270 -205 OFFCURVE",
"-268 -205 OFFCURVE",
"-262 -213 CURVE SMOOTH",
"-257 -220 OFFCURVE",
"-256 -221 OFFCURVE",
"-257 -227 CURVE SMOOTH",
"-258 -241 OFFCURVE",
"-289 -266 OFFCURVE",
"-300 -268 CURVE SMOOTH",
"-307 -270 OFFCURVE",
"-309 -269 OFFCURVE",
"-323 -265 CURVE SMOOTH"
);
},
{
closed = 1;
nodes = (
"-170 -256 LINE SMOOTH",
"-191 -249 OFFCURVE",
"-209 -241 OFFCURVE",
"-213 -235 CURVE SMOOTH",
"-222 -222 OFFCURVE",
"-209 -211 OFFCURVE",
"-192 -196 CURVE SMOOTH",
"-178 -184 OFFCURVE",
"-180 -181 OFFCURVE",
"-165 -181 CURVE SMOOTH",
"-149 -181 OFFCURVE",
"-135 -185 OFFCURVE",
"-111 -196 CURVE SMOOTH",
"-89 -205 OFFCURVE",
"-87 -205 OFFCURVE",
"-81 -213 CURVE SMOOTH",
"-76 -220 OFFCURVE",
"-75 -221 OFFCURVE",
"-76 -227 CURVE SMOOTH",
"-77 -241 OFFCURVE",
"-108 -266 OFFCURVE",
"-119 -268 CURVE SMOOTH",
"-126 -270 OFFCURVE",
"-128 -269 OFFCURVE",
"-142 -265 CURVE SMOOTH"
);
},
{
closed = 1;
nodes = (
"9 -256 LINE SMOOTH",
"-13 -249 OFFCURVE",
"-31 -241 OFFCURVE",
"-34 -235 CURVE SMOOTH",
"-41 -221 OFFCURVE",
"-31 -211 OFFCURVE",
"-14 -196 CURVE SMOOTH",
"0 -184 OFFCURVE",
"-2 -181 OFFCURVE",
"14 -181 CURVE SMOOTH",
"30 -181 OFFCURVE",
"43 -185 OFFCURVE",
"68 -196 CURVE SMOOTH",
"89 -205 OFFCURVE",
"92 -205 OFFCURVE",
"98 -213 CURVE SMOOTH",
"103 -220 OFFCURVE",
"104 -221 OFFCURVE",
"103 -227 CURVE SMOOTH",
"101 -241 OFFCURVE",
"71 -266 OFFCURVE",
"60 -268 CURVE SMOOTH",
"53 -269 OFFCURVE",
"50 -270 OFFCURVE",
"36 -265 CURVE SMOOTH"
);
}
);
width = 0;
},
{
layerId = "99B43F0D-E5AD-4461-80B0-7E1D7FD75A43";
paths = (
{
closed = 1;
nodes = (
"-351 -256 LINE SMOOTH",
"-372 -249 OFFCURVE",
"-390 -241 OFFCURVE",
"-394 -235 CURVE SMOOTH",
"-403 -222 OFFCURVE",
"-390 -211 OFFCURVE",
"-373 -196 CURVE SMOOTH",
"-359 -184 OFFCURVE",
"-361 -181 OFFCURVE",
"-346 -181 CURVE SMOOTH",
"-330 -181 OFFCURVE",
"-316 -185 OFFCURVE",
"-292 -196 CURVE SMOOTH",
"-270 -205 OFFCURVE",
"-268 -205 OFFCURVE",
"-262 -213 CURVE SMOOTH",
"-257 -220 OFFCURVE",
"-256 -221 OFFCURVE",
"-257 -227 CURVE SMOOTH",
"-258 -241 OFFCURVE",
"-289 -266 OFFCURVE",
"-300 -268 CURVE SMOOTH",
"-307 -270 OFFCURVE",
"-309 -269 OFFCURVE",
"-323 -265 CURVE SMOOTH"
);
},
{
closed = 1;
nodes = (
"-170 -256 LINE SMOOTH",
"-191 -249 OFFCURVE",
"-209 -241 OFFCURVE",
"-213 -235 CURVE SMOOTH",
"-222 -222 OFFCURVE",
"-209 -211 OFFCURVE",
"-192 -196 CURVE SMOOTH",
"-178 -184 OFFCURVE",
"-180 -181 OFFCURVE",
"-165 -181 CURVE SMOOTH",
"-149 -181 OFFCURVE",
"-135 -185 OFFCURVE",
"-111 -196 CURVE SMOOTH",
"-89 -205 OFFCURVE",
"-87 -205 OFFCURVE",
"-81 -213 CURVE SMOOTH",
"-76 -220 OFFCURVE",
"-75 -221 OFFCURVE",
"-76 -227 CURVE SMOOTH",
"-77 -241 OFFCURVE",
"-108 -266 OFFCURVE",
"-119 -268 CURVE SMOOTH",
"-126 -270 OFFCURVE",
"-128 -269 OFFCURVE",
"-142 -265 CURVE SMOOTH"
);
},
{
closed = 1;
nodes = (
"9 -256 LINE SMOOTH",
"-13 -249 OFFCURVE",
"-31 -241 OFFCURVE",
"-34 -235 CURVE SMOOTH",
"-41 -221 OFFCURVE",
"-31 -211 OFFCURVE",
"-14 -196 CURVE SMOOTH",
"0 -184 OFFCURVE",
"-2 -181 OFFCURVE",
"14 -181 CURVE SMOOTH",
"30 -181 OFFCURVE",
"43 -185 OFFCURVE",
"68 -196 CURVE SMOOTH",
"89 -205 OFFCURVE",
"92 -205 OFFCURVE",
"98 -213 CURVE SMOOTH",
"103 -220 OFFCURVE",
"104 -221 OFFCURVE",
"103 -227 CURVE SMOOTH",
"101 -241 OFFCURVE",
"71 -266 OFFCURVE",
"60 -268 CURVE SMOOTH",
"53 -269 OFFCURVE",
"50 -270 OFFCURVE",
"36 -265 CURVE SMOOTH"
);
}
);
width = 0;
}
);
unicode = 0047;
},
{
glyphname = H;
lastChange = "2019-02-20 04:49:48 +0000";
layers = (
{
layerId = "A365CA76-4FD1-4CBB-A2E4-19DAF29CA71F";
paths = (
{
closed = 1;
nodes = (
"-404 -252 LINE SMOOTH",
"-423 -246 OFFCURVE",
"-438 -238 OFFCURVE",
"-441 -234 CURVE SMOOTH",
"-450 -222 OFFCURVE",
"-438 -213 OFFCURVE",
"-423 -200 CURVE SMOOTH",
"-411 -190 OFFCURVE",
"-413 -187 OFFCURVE",
"-399 -187 CURVE SMOOTH",
"-386 -187 OFFCURVE",
"-374 -191 OFFCURVE",
"-353 -200 CURVE SMOOTH",
"-335 -208 OFFCURVE",
"-332 -208 OFFCURVE",
"-327 -215 CURVE SMOOTH",
"-323 -221 OFFCURVE",
"-322 -221 OFFCURVE",
"-323 -226 CURVE SMOOTH",
"-326 -239 OFFCURVE",
"-350 -260 OFFCURVE",
"-360 -262 CURVE SMOOTH",
"-366 -263 OFFCURVE",
"-368 -263 OFFCURVE",
"-380 -259 CURVE SMOOTH"
);
},
{
closed = 1;
nodes = (
"-245 -252 LINE SMOOTH",
"-264 -246 OFFCURVE",
"-279 -238 OFFCURVE",
"-282 -234 CURVE SMOOTH",
"-291 -222 OFFCURVE",
"-279 -213 OFFCURVE",
"-264 -200 CURVE SMOOTH",
"-252 -190 OFFCURVE",
"-254 -187 OFFCURVE",
"-240 -187 CURVE SMOOTH",
"-227 -187 OFFCURVE",
"-215 -191 OFFCURVE",
"-194 -200 CURVE SMOOTH",
"-176 -208 OFFCURVE",
"-173 -208 OFFCURVE",
"-168 -215 CURVE SMOOTH",
"-164 -221 OFFCURVE",
"-163 -221 OFFCURVE",
"-164 -226 CURVE SMOOTH",
"-167 -239 OFFCURVE",
"-191 -260 OFFCURVE",
"-201 -262 CURVE SMOOTH",
"-207 -263 OFFCURVE",
"-209 -263 OFFCURVE",
"-221 -259 CURVE SMOOTH"
);
},
{
closed = 1;
nodes = (
"-404 -252 LINE SMOOTH",
"-423 -246 OFFCURVE",
"-438 -238 OFFCURVE",
"-441 -234 CURVE SMOOTH",
"-450 -222 OFFCURVE",
"-438 -213 OFFCURVE",
"-423 -200 CURVE SMOOTH",
"-411 -190 OFFCURVE",
"-413 -187 OFFCURVE",
"-399 -187 CURVE SMOOTH",
"-386 -187 OFFCURVE",
"-374 -191 OFFCURVE",
"-353 -200 CURVE SMOOTH",
"-335 -208 OFFCURVE",
"-332 -208 OFFCURVE",
"-327 -215 CURVE SMOOTH",
"-323 -221 OFFCURVE",
"-322 -221 OFFCURVE",
"-323 -226 CURVE SMOOTH",
"-326 -239 OFFCURVE",
"-350 -260 OFFCURVE",
"-360 -262 CURVE SMOOTH",
"-366 -263 OFFCURVE",
"-368 -263 OFFCURVE",
"-380 -259 CURVE SMOOTH"
);
},
{
closed = 1;
nodes = (
"-89 -252 LINE SMOOTH",
"-108 -246 OFFCURVE",
"-123 -238 OFFCURVE",
"-126 -234 CURVE SMOOTH",
"-135 -222 OFFCURVE",
"-123 -213 OFFCURVE",
"-108 -200 CURVE SMOOTH",
"-96 -190 OFFCURVE",
"-98 -187 OFFCURVE",
"-84 -187 CURVE SMOOTH",
"-71 -187 OFFCURVE",
"-59 -191 OFFCURVE",
"-38 -200 CURVE SMOOTH",
"-20 -208 OFFCURVE",
"-17 -208 OFFCURVE",
"-12 -215 CURVE SMOOTH",
"-8 -221 OFFCURVE",
"-7 -221 OFFCURVE",
"-8 -226 CURVE SMOOTH",
"-11 -239 OFFCURVE",
"-35 -260 OFFCURVE",
"-45 -262 CURVE SMOOTH",
"-51 -263 OFFCURVE",
"-53 -263 OFFCURVE",
"-65 -259 CURVE SMOOTH"
);
},
{
closed = 1;
nodes = (
"67 -252 LINE SMOOTH",
"48 -246 OFFCURVE",
"33 -238 OFFCURVE",
"30 -234 CURVE SMOOTH",
"21 -222 OFFCURVE",
"33 -213 OFFCURVE",
"48 -200 CURVE SMOOTH",
"60 -190 OFFCURVE",
"58 -187 OFFCURVE",
"72 -187 CURVE SMOOTH",
"85 -187 OFFCURVE",
"97 -191 OFFCURVE",
"118 -200 CURVE SMOOTH",
"136 -208 OFFCURVE",
"139 -208 OFFCURVE",
"144 -215 CURVE SMOOTH",
"148 -221 OFFCURVE",
"149 -221 OFFCURVE",
"148 -226 CURVE SMOOTH",
"145 -239 OFFCURVE",
"121 -260 OFFCURVE",
"111 -262 CURVE SMOOTH",
"105 -263 OFFCURVE",
"103 -263 OFFCURVE",
"91 -259 CURVE SMOOTH"
);
}
);
width = 0;
},
{
layerId = "99B43F0D-E5AD-4461-80B0-7E1D7FD75A43";
paths = (
{
closed = 1;
nodes = (
"-404 -252 LINE SMOOTH",
"-423 -246 OFFCURVE",
"-438 -238 OFFCURVE",
"-441 -234 CURVE SMOOTH",
"-450 -222 OFFCURVE",
"-438 -213 OFFCURVE",
"-423 -200 CURVE SMOOTH",
"-411 -190 OFFCURVE",
"-413 -187 OFFCURVE",
"-399 -187 CURVE SMOOTH",
"-386 -187 OFFCURVE",
"-374 -191 OFFCURVE",
"-353 -200 CURVE SMOOTH",
"-335 -208 OFFCURVE",
"-332 -208 OFFCURVE",
"-327 -215 CURVE SMOOTH",
"-323 -221 OFFCURVE",
"-322 -221 OFFCURVE",
"-323 -226 CURVE SMOOTH",
"-326 -239 OFFCURVE",
"-350 -260 OFFCURVE",
"-360 -262 CURVE SMOOTH",
"-366 -263 OFFCURVE",
"-368 -263 OFFCURVE",
"-380 -259 CURVE SMOOTH"
);
},
{
closed = 1;
nodes = (
"-245 -252 LINE SMOOTH",
"-264 -246 OFFCURVE",
"-279 -238 OFFCURVE",
"-282 -234 CURVE SMOOTH",
"-291 -222 OFFCURVE",
"-279 -213 OFFCURVE",
"-264 -200 CURVE SMOOTH",
"-252 -190 OFFCURVE",
"-254 -187 OFFCURVE",
"-240 -187 CURVE SMOOTH",
"-227 -187 OFFCURVE",
"-215 -191 OFFCURVE",
"-194 -200 CURVE SMOOTH",
"-176 -208 OFFCURVE",
"-173 -208 OFFCURVE",
"-168 -215 CURVE SMOOTH",
"-164 -221 OFFCURVE",
"-163 -221 OFFCURVE",
"-164 -226 CURVE SMOOTH",
"-167 -239 OFFCURVE",
"-191 -260 OFFCURVE",
"-201 -262 CURVE SMOOTH",
"-207 -263 OFFCURVE",
"-209 -263 OFFCURVE",
"-221 -259 CURVE SMOOTH"
);
},
{
closed = 1;
nodes = (
"-404 -252 LINE SMOOTH",
"-423 -246 OFFCURVE",
"-438 -238 OFFCURVE",
"-441 -234 CURVE SMOOTH",
"-450 -222 OFFCURVE",
"-438 -213 OFFCURVE",
"-423 -200 CURVE SMOOTH",
"-411 -190 OFFCURVE",
"-413 -187 OFFCURVE",
"-399 -187 CURVE SMOOTH",
"-386 -187 OFFCURVE",
"-374 -191 OFFCURVE",
"-353 -200 CURVE SMOOTH",
"-335 -208 OFFCURVE",
"-332 -208 OFFCURVE",
"-327 -215 CURVE SMOOTH",
"-323 -221 OFFCURVE",
"-322 -221 OFFCURVE",
"-323 -226 CURVE SMOOTH",
"-326 -239 OFFCURVE",
"-350 -260 OFFCURVE",
"-360 -262 CURVE SMOOTH",
"-366 -263 OFFCURVE",
"-368 -263 OFFCURVE",
"-380 -259 CURVE SMOOTH"
);
},
{
closed = 1;
nodes = (
"-89 -252 LINE SMOOTH",
"-108 -246 OFFCURVE",
"-123 -238 OFFCURVE",
"-126 -234 CURVE SMOOTH",
"-135 -222 OFFCURVE",
"-123 -213 OFFCURVE",
"-108 -200 CURVE SMOOTH",
"-96 -190 OFFCURVE",
"-98 -187 OFFCURVE",
"-84 -187 CURVE SMOOTH",
"-71 -187 OFFCURVE",
"-59 -191 OFFCURVE",
"-38 -200 CURVE SMOOTH",
"-20 -208 OFFCURVE",
"-17 -208 OFFCURVE",
"-12 -215 CURVE SMOOTH",
"-8 -221 OFFCURVE",
"-7 -221 OFFCURVE",
"-8 -226 CURVE SMOOTH",
"-11 -239 OFFCURVE",
"-35 -260 OFFCURVE",
"-45 -262 CURVE SMOOTH",
"-51 -263 OFFCURVE",
"-53 -263 OFFCURVE",
"-65 -259 CURVE SMOOTH"
);
},
{
closed = 1;
nodes = (
"67 -252 LINE SMOOTH",
"48 -246 OFFCURVE",
"33 -238 OFFCURVE",
"30 -234 CURVE SMOOTH",
"21 -222 OFFCURVE",
"33 -213 OFFCURVE",
"48 -200 CURVE SMOOTH",
"60 -190 OFFCURVE",
"58 -187 OFFCURVE",
"72 -187 CURVE SMOOTH",
"85 -187 OFFCURVE",
"97 -191 OFFCURVE",
"118 -200 CURVE SMOOTH",
"136 -208 OFFCURVE",
"139 -208 OFFCURVE",
"144 -215 CURVE SMOOTH",
"148 -221 OFFCURVE",
"149 -221 OFFCURVE",
"148 -226 CURVE SMOOTH",
"145 -239 OFFCURVE",
"121 -260 OFFCURVE",
"111 -262 CURVE SMOOTH",
"105 -263 OFFCURVE",
"103 -263 OFFCURVE",
"91 -259 CURVE SMOOTH"
);
}
);
width = 0;
}
);
unicode = 0048;
},
{
glyphname = I;
lastChange = "2019-02-20 04:49:48 +0000";
layers = (
{
layerId = "A365CA76-4FD1-4CBB-A2E4-19DAF29CA71F";
paths = (
{
closed = 1;
nodes = (
"598 -106 OFFCURVE",
"428 -85 OFFCURVE",
"337 -52 CURVE SMOOTH",
"192 1 OFFCURVE",
"104 41 OFFCURVE",
"70 78 CURVE SMOOTH",
"41 109 OFFCURVE",
"45 130 OFFCURVE",
"87 138 CURVE SMOOTH",
"124 145 OFFCURVE",
"309 141 OFFCURVE",
"335 118 CURVE SMOOTH",
"342 112 OFFCURVE",
"343 107 OFFCURVE",
"336 100 CURVE SMOOTH",
"334 98 OFFCURVE",
"329 99 OFFCURVE",
"306 97 CURVE SMOOTH",
"279 95 OFFCURVE",
"265 93 OFFCURVE",
"265 89 CURVE SMOOTH",
"265 52 OFFCURVE",
"402 -10 OFFCURVE",
"481 -32 CURVE SMOOTH",
"643 -77 OFFCURVE",
"874 -83 OFFCURVE",
"874 18 CURVE SMOOTH",
"874 54 OFFCURVE",
"852 83 OFFCURVE",
"812 103 CURVE SMOOTH",
"752 133 OFFCURVE",
"807 138 OFFCURVE",
"878 138 CURVE SMOOTH",
"973 138 OFFCURVE",
"1053 115 OFFCURVE",
"1033 16 CURVE SMOOTH",
"1014 -79 OFFCURVE",
"867 -111 OFFCURVE",
"708 -108 CURVE SMOOTH"
);
},
{
closed = 1;
nodes = (
"496 127 OFFCURVE",
"473 125 OFFCURVE",
"473 138 CURVE SMOOTH",
"473 148 OFFCURVE",
"497 162 OFFCURVE",
"510 177 CURVE SMOOTH",
"532 202 OFFCURVE",
"502 235 OFFCURVE",
"439 257 CURVE SMOOTH",
"377 281 OFFCURVE",
"261 302 OFFCURVE",
"182 306 CURVE SMOOTH",
"137 309 OFFCURVE",
"59 314 OFFCURVE",
"52 317 CURVE SMOOTH",
"44 320 OFFCURVE",
"42 325 OFFCURVE",
"44 330 CURVE SMOOTH",
"54 343 OFFCURVE",
"103 353 OFFCURVE",
"174 356 CURVE SMOOTH",
"268 362 OFFCURVE",
"375 343 OFFCURVE",
"491 314 CURVE SMOOTH",
"615 284 OFFCURVE",
"694 238 OFFCURVE",
"706 177 CURVE SMOOTH",
"710 154 OFFCURVE",
"707 130 OFFCURVE",
"691 118 CURVE SMOOTH",
"669 100 OFFCURVE",
"652 99 OFFCURVE",
"550 116 CURVE SMOOTH"
);
},
{
closed = 1;
nodes = (
"458 415 OFFCURVE",
"457 420 OFFCURVE",
"457 424 CURVE SMOOTH",
"457 428 OFFCURVE",
"487 468 OFFCURVE",
"487 472 CURVE SMOOTH",
"487 473 OFFCURVE",
"478 473 OFFCURVE",
"458 473 CURVE SMOOTH",
"415 473 OFFCURVE",
"331 482 OFFCURVE",
"295 490 CURVE SMOOTH",
"239 502 OFFCURVE",
"194 521 OFFCURVE",
"157 551 CURVE SMOOTH",
"125 577 OFFCURVE",
"110 600 OFFCURVE",
"89 645 CURVE SMOOTH",
"72 682 OFFCURVE",
"25 824 OFFCURVE",
"30 830 CURVE SMOOTH",
"34 835 OFFCURVE",
"50 831 OFFCURVE",
"76 829 CURVE SMOOTH",
"116 826 OFFCURVE",
"124 826 OFFCURVE",
"139 816 CURVE SMOOTH",
"165 799 OFFCURVE",
"178 770 OFFCURVE",
"189 723 CURVE SMOOTH",
"203 664 OFFCURVE",
"235 616 OFFCURVE",
"262 587 CURVE SMOOTH",
"300 546 OFFCURVE",
"349 535 OFFCURVE",
"418 526 CURVE SMOOTH",
"442 523 OFFCURVE",
"482 520 OFFCURVE",
"502 520 CURVE SMOOTH",
"505 520 OFFCURVE",
"513 520 OFFCURVE",
"514 521 CURVE SMOOTH",
"515 522 OFFCURVE",
"539 568 OFFCURVE",
"544 575 CURVE SMOOTH",
"551 585 OFFCURVE",
"545 583 OFFCURVE",
"584 584 CURVE SMOOTH",
"629 585 OFFCURVE",
"654 585 OFFCURVE",
"656 583 CURVE SMOOTH",
"659 580 OFFCURVE",
"650 558 OFFCURVE",
"648 554 CURVE SMOOTH",
"640 538 OFFCURVE",
"634 523 OFFCURVE",
"634 521 CURVE SMOOTH",
"634 518 OFFCURVE",
"653 515 OFFCURVE",
"800 515 CURVE SMOOTH",
"844 515 OFFCURVE",
"924 517 OFFCURVE",
"932 513 CURVE SMOOTH",
"934 512 OFFCURVE",
"928 501 OFFCURVE",
"922 496 CURVE SMOOTH",
"908 484 OFFCURVE",
"881 481 OFFCURVE",
"836 478 CURVE SMOOTH",
"780 474 OFFCURVE",
"664 470 OFFCURVE",
"622 470 CURVE SMOOTH",
"619 470 OFFCURVE",
"613 470 OFFCURVE",
"613 469 CURVE SMOOTH",
"613 468 OFFCURVE",
"592 441 OFFCURVE",
"582 433 CURVE SMOOTH",
"561 416 OFFCURVE",
"547 415 OFFCURVE",
"499 415 CURVE SMOOTH",
"480 415 OFFCURVE",
"463 415 OFFCURVE",
"462 415 CURVE SMOOTH"
);
},
{
closed = 1;
nodes = (
"568 645 OFFCURVE",
"567 650 OFFCURVE",
"567 654 CURVE SMOOTH",
"567 658 OFFCURVE",
"597 698 OFFCURVE",
"597 702 CURVE SMOOTH",
"597 703 OFFCURVE",
"588 703 OFFCURVE",
"568 703 CURVE SMOOTH",
"525 703 OFFCURVE",
"441 712 OFFCURVE",
"405 720 CURVE SMOOTH",
"349 732 OFFCURVE",
"304 751 OFFCURVE",
"267 781 CURVE SMOOTH",
"235 807 OFFCURVE",
"220 830 OFFCURVE",
"199 875 CURVE SMOOTH",
"182 912 OFFCURVE",
"135 1054 OFFCURVE",
"140 1060 CURVE SMOOTH",
"144 1065 OFFCURVE",
"160 1061 OFFCURVE",
"186 1059 CURVE SMOOTH",
"226 1056 OFFCURVE",
"234 1056 OFFCURVE",
"249 1046 CURVE SMOOTH",
"275 1029 OFFCURVE",
"288 1000 OFFCURVE",
"299 953 CURVE SMOOTH",
"313 894 OFFCURVE",
"345 846 OFFCURVE",
"372 817 CURVE SMOOTH",
"410 776 OFFCURVE",
"459 765 OFFCURVE",
"528 756 CURVE SMOOTH",
"552 753 OFFCURVE",
"592 750 OFFCURVE",
"612 750 CURVE SMOOTH",
"615 750 OFFCURVE",
"623 750 OFFCURVE",
"624 751 CURVE SMOOTH",
"625 752 OFFCURVE",
"649 798 OFFCURVE",
"654 805 CURVE SMOOTH",
"661 815 OFFCURVE",
"655 813 OFFCURVE",
"694 814 CURVE SMOOTH",
"739 815 OFFCURVE",
"764 815 OFFCURVE",
"766 813 CURVE SMOOTH",
"769 810 OFFCURVE",
"760 788 OFFCURVE",
"758 784 CURVE SMOOTH",
"750 768 OFFCURVE",
"744 753 OFFCURVE",
"744 751 CURVE SMOOTH",
"744 748 OFFCURVE",
"763 745 OFFCURVE",
"910 745 CURVE SMOOTH",
"954 745 OFFCURVE",
"1034 747 OFFCURVE",
"1042 743 CURVE SMOOTH",
"1044 742 OFFCURVE",
"1038 731 OFFCURVE",
"1032 726 CURVE SMOOTH",
"1018 714 OFFCURVE",
"991 711 OFFCURVE",
"946 708 CURVE SMOOTH",
"890 704 OFFCURVE",
"774 700 OFFCURVE",
"732 700 CURVE SMOOTH",
"729 700 OFFCURVE",
"723 700 OFFCURVE",
"723 699 CURVE SMOOTH",
"723 698 OFFCURVE",
"702 671 OFFCURVE",
"692 663 CURVE SMOOTH",
"671 646 OFFCURVE",
"657 645 OFFCURVE",
"609 645 CURVE SMOOTH",
"590 645 OFFCURVE",
"573 645 OFFCURVE",
"572 645 CURVE SMOOTH"
);
}
);
width = 1072;
},
{
layerId = "99B43F0D-E5AD-4461-80B0-7E1D7FD75A43";
paths = (
{
closed = 1;
nodes = (
"598 -106 OFFCURVE",
"428 -85 OFFCURVE",
"337 -52 CURVE SMOOTH",
"192 1 OFFCURVE",
"104 41 OFFCURVE",
"70 78 CURVE SMOOTH",
"41 109 OFFCURVE",
"45 130 OFFCURVE",
"87 138 CURVE SMOOTH",
"124 145 OFFCURVE",
"309 141 OFFCURVE",
"335 118 CURVE SMOOTH",
"342 112 OFFCURVE",
"343 107 OFFCURVE",
"336 100 CURVE SMOOTH",
"334 98 OFFCURVE",
"329 99 OFFCURVE",
"306 97 CURVE SMOOTH",
"279 95 OFFCURVE",
"265 93 OFFCURVE",
"265 89 CURVE SMOOTH",
"265 52 OFFCURVE",
"402 -10 OFFCURVE",
"481 -32 CURVE SMOOTH",
"643 -77 OFFCURVE",
"874 -83 OFFCURVE",
"874 18 CURVE SMOOTH",
"874 54 OFFCURVE",
"852 83 OFFCURVE",
"812 103 CURVE SMOOTH",
"752 133 OFFCURVE",
"807 138 OFFCURVE",
"878 138 CURVE SMOOTH",
"973 138 OFFCURVE",
"1053 115 OFFCURVE",
"1033 16 CURVE SMOOTH",
"1014 -79 OFFCURVE",
"867 -111 OFFCURVE",
"708 -108 CURVE SMOOTH"
);
},
{
closed = 1;
nodes = (
"496 127 OFFCURVE",
"473 125 OFFCURVE",
"473 138 CURVE SMOOTH",
"473 148 OFFCURVE",
"497 162 OFFCURVE",
"510 177 CURVE SMOOTH",
"532 202 OFFCURVE",
"502 235 OFFCURVE",
"439 257 CURVE SMOOTH",
"377 281 OFFCURVE",
"261 302 OFFCURVE",
"182 306 CURVE SMOOTH",
"137 309 OFFCURVE",
"59 314 OFFCURVE",
"52 317 CURVE SMOOTH",
"44 320 OFFCURVE",
"42 325 OFFCURVE",
"44 330 CURVE SMOOTH",
"54 343 OFFCURVE",
"103 353 OFFCURVE",
"174 356 CURVE SMOOTH",
"268 362 OFFCURVE",
"375 343 OFFCURVE",
"491 314 CURVE SMOOTH",
"615 284 OFFCURVE",
"694 238 OFFCURVE",
"706 177 CURVE SMOOTH",
"710 154 OFFCURVE",
"707 130 OFFCURVE",
"691 118 CURVE SMOOTH",
"669 100 OFFCURVE",
"652 99 OFFCURVE",
"550 116 CURVE SMOOTH"
);
},
{
closed = 1;
nodes = (
"458 415 OFFCURVE",
"457 420 OFFCURVE",
"457 424 CURVE SMOOTH",
"457 428 OFFCURVE",
"487 468 OFFCURVE",
"487 472 CURVE SMOOTH",
"487 473 OFFCURVE",
"478 473 OFFCURVE",
"458 473 CURVE SMOOTH",
"415 473 OFFCURVE",
"331 482 OFFCURVE",
"295 490 CURVE SMOOTH",
"239 502 OFFCURVE",
"194 521 OFFCURVE",
"157 551 CURVE SMOOTH",
"125 577 OFFCURVE",
"110 600 OFFCURVE",
"89 645 CURVE SMOOTH",
"72 682 OFFCURVE",
"25 824 OFFCURVE",
"30 830 CURVE SMOOTH",
"34 835 OFFCURVE",
"50 831 OFFCURVE",
"76 829 CURVE SMOOTH",
"116 826 OFFCURVE",
"124 826 OFFCURVE",
"139 816 CURVE SMOOTH",
"165 799 OFFCURVE",
"178 770 OFFCURVE",
"189 723 CURVE SMOOTH",
"203 664 OFFCURVE",
"235 616 OFFCURVE",
"262 587 CURVE SMOOTH",
"300 546 OFFCURVE",
"349 535 OFFCURVE",
"418 526 CURVE SMOOTH",
"442 523 OFFCURVE",
"482 520 OFFCURVE",
"502 520 CURVE SMOOTH",
"505 520 OFFCURVE",
"513 520 OFFCURVE",
"514 521 CURVE SMOOTH",
"515 522 OFFCURVE",
"539 568 OFFCURVE",
"544 575 CURVE SMOOTH",
"551 585 OFFCURVE",
"545 583 OFFCURVE",
"584 584 CURVE SMOOTH",
"629 585 OFFCURVE",
"654 585 OFFCURVE",
"656 583 CURVE SMOOTH",
"659 580 OFFCURVE",
"650 558 OFFCURVE",
"648 554 CURVE SMOOTH",
"640 538 OFFCURVE",
"634 523 OFFCURVE",
"634 521 CURVE SMOOTH",
"634 518 OFFCURVE",
"653 515 OFFCURVE",
"800 515 CURVE SMOOTH",
"844 515 OFFCURVE",
"924 517 OFFCURVE",
"932 513 CURVE SMOOTH",
"934 512 OFFCURVE",
"928 501 OFFCURVE",
"922 496 CURVE SMOOTH",
"908 484 OFFCURVE",
"881 481 OFFCURVE",
"836 478 CURVE SMOOTH",
"780 474 OFFCURVE",
"664 470 OFFCURVE",
"622 470 CURVE SMOOTH",
"619 470 OFFCURVE",
"613 470 OFFCURVE",
"613 469 CURVE SMOOTH",
"613 468 OFFCURVE",
"592 441 OFFCURVE",
"582 433 CURVE SMOOTH",
"561 416 OFFCURVE",
"547 415 OFFCURVE",
"499 415 CURVE SMOOTH",
"480 415 OFFCURVE",
"463 415 OFFCURVE",
"462 415 CURVE SMOOTH"
);
},
{
closed = 1;
nodes = (
"568 645 OFFCURVE",
"567 650 OFFCURVE",
"567 654 CURVE SMOOTH",
"567 658 OFFCURVE",
"597 698 OFFCURVE",
"597 702 CURVE SMOOTH",
"597 703 OFFCURVE",
"588 703 OFFCURVE",
"568 703 CURVE SMOOTH",
"525 703 OFFCURVE",
"441 712 OFFCURVE",
"405 720 CURVE SMOOTH",
"349 732 OFFCURVE",
"304 751 OFFCURVE",
"267 781 CURVE SMOOTH",
"235 807 OFFCURVE",
"220 830 OFFCURVE",
"199 875 CURVE SMOOTH",
"182 912 OFFCURVE",
"135 1054 OFFCURVE",
"140 1060 CURVE SMOOTH",
"144 1065 OFFCURVE",
"160 1061 OFFCURVE",
"186 1059 CURVE SMOOTH",
"226 1056 OFFCURVE",
"234 1056 OFFCURVE",
"249 1046 CURVE SMOOTH",
"275 1029 OFFCURVE",
"288 1000 OFFCURVE",
"299 953 CURVE SMOOTH",
"313 894 OFFCURVE",
"345 846 OFFCURVE",
"372 817 CURVE SMOOTH",
"410 776 OFFCURVE",
"459 765 OFFCURVE",
"528 756 CURVE SMOOTH",
"552 753 OFFCURVE",
"592 750 OFFCURVE",
"612 750 CURVE SMOOTH",
"615 750 OFFCURVE",
"623 750 OFFCURVE",
"624 751 CURVE SMOOTH",
"625 752 OFFCURVE",
"649 798 OFFCURVE",
"654 805 CURVE SMOOTH",
"661 815 OFFCURVE",
"655 813 OFFCURVE",
"694 814 CURVE SMOOTH",
"739 815 OFFCURVE",
"764 815 OFFCURVE",
"766 813 CURVE SMOOTH",
"769 810 OFFCURVE",
"760 788 OFFCURVE",
"758 784 CURVE SMOOTH",
"750 768 OFFCURVE",
"744 753 OFFCURVE",
"744 751 CURVE SMOOTH",
"744 748 OFFCURVE",
"763 745 OFFCURVE",
"910 745 CURVE SMOOTH",
"954 745 OFFCURVE",
"1034 747 OFFCURVE",
"1042 743 CURVE SMOOTH",
"1044 742 OFFCURVE",
"1038 731 OFFCURVE",
"1032 726 CURVE SMOOTH",
"1018 714 OFFCURVE",
"991 711 OFFCURVE",
"946 708 CURVE SMOOTH",
"890 704 OFFCURVE",
"774 700 OFFCURVE",
"732 700 CURVE SMOOTH",
"729 700 OFFCURVE",
"723 700 OFFCURVE",
"723 699 CURVE SMOOTH",
"723 698 OFFCURVE",
"702 671 OFFCURVE",
"692 663 CURVE SMOOTH",
"671 646 OFFCURVE",
"657 645 OFFCURVE",
"609 645 CURVE SMOOTH",
"590 645 OFFCURVE",
"573 645 OFFCURVE",
"572 645 CURVE SMOOTH"
);
}
);
width = 1072;
}
);
unicode = 0049;
},
{
glyphname = J;
lastChange = "2019-02-20 04:49:48 +0000";
layers = (
{
layerId = "A365CA76-4FD1-4CBB-A2E4-19DAF29CA71F";
paths = (
{
closed = 1;
nodes = (
"-152 -481 OFFCURVE",
"-183 -477 OFFCURVE",
"-206 -469 CURVE",
"-226 -462 OFFCURVE",
"-240 -458 OFFCURVE",
"-242 -454 CURVE",
"-243 -453 OFFCURVE",
"-240 -450 OFFCURVE",
"-238 -447 CURVE",
"-236 -443 OFFCURVE",
"-230 -437 OFFCURVE",
"-229 -433 CURVE",
"-220 -414 OFFCURVE",
"-226 -388 OFFCURVE",
"-240 -371 CURVE",
"-251 -362 OFFCURVE",
"-261 -358 OFFCURVE",
"-308 -348 CURVE",
"-353 -337 OFFCURVE",
"-385 -332 OFFCURVE",
"-411 -328 CURVE",
"-449 -326 OFFCURVE",
"-546 -322 OFFCURVE",
"-606 -322 CURVE",
"-670 -322 OFFCURVE",
"-806 -324 OFFCURVE",
"-852 -327 CURVE",
"-918 -332 OFFCURVE",
"-957 -333 OFFCURVE",
"-1045 -334 CURVE",
"-1121 -336 LINE",
"-1124 -331 LINE",
"-1127 -326 LINE",
"-1121 -320 LINE",
"-1108 -308 OFFCURVE",
"-1077 -300 OFFCURVE",
"-1016 -299 CURVE",
"-998 -297 OFFCURVE",
"-968 -296 OFFCURVE",
"-948 -295 CURVE",
"-929 -294 OFFCURVE",
"-894 -292 OFFCURVE",
"-873 -291 CURVE",
"-706 -284 OFFCURVE",
"-532 -282 OFFCURVE",
"-457 -287 CURVE",
"-324 -297 OFFCURVE",
"-210 -317 OFFCURVE",
"-159 -338 CURVE",
"-131 -349 OFFCURVE",
"-103 -363 OFFCURVE",
"-87 -372 CURVE",
"-73 -380 OFFCURVE",
"-56 -398 OFFCURVE",
"-49 -411 CURVE",
"-45 -418 OFFCURVE",
"-45 -420 OFFCURVE",
"-45 -435 CURVE",
"-45 -450 OFFCURVE",
"-45 -453 OFFCURVE",
"-48 -460 CURVE",
"-54 -473 OFFCURVE",
"-68 -481 OFFCURVE",
"-86 -484 CURVE",
"-97 -486 OFFCURVE",
"-103 -486 OFFCURVE",
"-127 -484 CURVE"
);
}
);
width = 0;
},
{
layerId = "99B43F0D-E5AD-4461-80B0-7E1D7FD75A43";
paths = (
{
closed = 1;
nodes = (
"-152 -481 OFFCURVE",
"-183 -477 OFFCURVE",
"-206 -469 CURVE",
"-226 -462 OFFCURVE",
"-240 -458 OFFCURVE",
"-242 -454 CURVE",
"-243 -453 OFFCURVE",
"-240 -450 OFFCURVE",
"-238 -447 CURVE",
"-236 -443 OFFCURVE",
"-230 -437 OFFCURVE",
"-229 -433 CURVE",
"-220 -414 OFFCURVE",
"-226 -388 OFFCURVE",
"-240 -371 CURVE",
"-251 -362 OFFCURVE",
"-261 -358 OFFCURVE",
"-308 -348 CURVE",
"-353 -337 OFFCURVE",
"-385 -332 OFFCURVE",
"-411 -328 CURVE",
"-449 -326 OFFCURVE",
"-546 -322 OFFCURVE",
"-606 -322 CURVE",
"-670 -322 OFFCURVE",
"-806 -324 OFFCURVE",
"-852 -327 CURVE",
"-918 -332 OFFCURVE",
"-957 -333 OFFCURVE",
"-1045 -334 CURVE",
"-1121 -336 LINE",
"-1124 -331 LINE",
"-1127 -326 LINE",
"-1121 -320 LINE",
"-1108 -308 OFFCURVE",
"-1077 -300 OFFCURVE",
"-1016 -299 CURVE",
"-998 -297 OFFCURVE",
"-968 -296 OFFCURVE",
"-948 -295 CURVE",
"-929 -294 OFFCURVE",
"-894 -292 OFFCURVE",
"-873 -291 CURVE",
"-706 -284 OFFCURVE",
"-532 -282 OFFCURVE",
"-457 -287 CURVE",
"-324 -297 OFFCURVE",
"-210 -317 OFFCURVE",
"-159 -338 CURVE",
"-131 -349 OFFCURVE",
"-103 -363 OFFCURVE",
"-87 -372 CURVE",
"-73 -380 OFFCURVE",
"-56 -398 OFFCURVE",
"-49 -411 CURVE",
"-45 -418 OFFCURVE",
"-45 -420 OFFCURVE",
"-45 -435 CURVE",
"-45 -450 OFFCURVE",
"-45 -453 OFFCURVE",
"-48 -460 CURVE",
"-54 -473 OFFCURVE",
"-68 -481 OFFCURVE",
"-86 -484 CURVE",
"-97 -486 OFFCURVE",
"-103 -486 OFFCURVE",
"-127 -484 CURVE"
);
}
);
width = 0;
}
);
unicode = 004A;
},
{
glyphname = K;
lastChange = "2019-02-20 04:49:48 +0000";
layers = (
{
layerId = "A365CA76-4FD1-4CBB-A2E4-19DAF29CA71F";
paths = (
{
closed = 1;
nodes = (
"-577 -451 OFFCURVE",
"-580 -450 OFFCURVE",
"-617 -439 CURVE SMOOTH",
"-638 -432 OFFCURVE",
"-655 -424 OFFCURVE",
"-658 -419 CURVE SMOOTH",
"-666 -406 OFFCURVE",
"-655 -396 OFFCURVE",
"-638 -382 CURVE SMOOTH",
"-624 -371 OFFCURVE",
"-627 -367 OFFCURVE",
"-612 -367 CURVE SMOOTH",
"-597 -367 OFFCURVE",
"-584 -371 OFFCURVE",
"-561 -381 CURVE SMOOTH",
"-538 -391 OFFCURVE",
"-527 -394 OFFCURVE",
"-527 -411 CURVE SMOOTH",
"-527 -425 OFFCURVE",
"-558 -448 OFFCURVE",
"-569 -450 CURVE SMOOTH"
);
},
{
closed = 1;
nodes = (
"-246 -470 OFFCURVE",
"-246 -457 CURVE SMOOTH",
"-246 -428 OFFCURVE",
"-175 -381 OFFCURVE",
"-312 -351 CURVE SMOOTH",
"-414 -329 OFFCURVE",
"-481 -325 OFFCURVE",
"-610 -325 CURVE SMOOTH",
"-785 -325 OFFCURVE",
"-1119 -339 OFFCURVE",
"-1125 -339 CURVE SMOOTH",
"-1128 -339 OFFCURVE",
"-1134 -329 OFFCURVE",
"-1125 -323 CURVE SMOOTH",
"-1101 -307 OFFCURVE",
"-1097 -305 OFFCURVE",
"-877 -294 CURVE SMOOTH",
"-644 -284 OFFCURVE",
"-318 -277 OFFCURVE",
"-163 -341 CURVE SMOOTH",
"-115 -360 OFFCURVE",
"-71 -380 OFFCURVE",
"-53 -414 CURVE SMOOTH",
"-38 -442 OFFCURVE",
"-50 -480 OFFCURVE",
"-90 -487 CURVE SMOOTH",
"-117 -491 OFFCURVE"
);
}
);
width = 0;
},
{
layerId = "99B43F0D-E5AD-4461-80B0-7E1D7FD75A43";
paths = (
{
closed = 1;
nodes = (
"-577 -451 OFFCURVE",
"-580 -450 OFFCURVE",
"-617 -439 CURVE SMOOTH",
"-638 -432 OFFCURVE",
"-655 -424 OFFCURVE",
"-658 -419 CURVE SMOOTH",
"-666 -406 OFFCURVE",
"-655 -396 OFFCURVE",
"-638 -382 CURVE SMOOTH",
"-624 -371 OFFCURVE",
"-627 -367 OFFCURVE",
"-612 -367 CURVE SMOOTH",
"-597 -367 OFFCURVE",
"-584 -371 OFFCURVE",
"-561 -381 CURVE SMOOTH",
"-538 -391 OFFCURVE",
"-527 -394 OFFCURVE",
"-527 -411 CURVE SMOOTH",
"-527 -425 OFFCURVE",
"-558 -448 OFFCURVE",
"-569 -450 CURVE SMOOTH"
);
},
{
closed = 1;
nodes = (
"-246 -470 OFFCURVE",
"-246 -457 CURVE SMOOTH",
"-246 -428 OFFCURVE",
"-175 -381 OFFCURVE",
"-312 -351 CURVE SMOOTH",
"-414 -329 OFFCURVE",
"-481 -325 OFFCURVE",
"-610 -325 CURVE SMOOTH",
"-785 -325 OFFCURVE",
"-1119 -339 OFFCURVE",
"-1125 -339 CURVE SMOOTH",
"-1128 -339 OFFCURVE",
"-1134 -329 OFFCURVE",
"-1125 -323 CURVE SMOOTH",
"-1101 -307 OFFCURVE",
"-1097 -305 OFFCURVE",
"-877 -294 CURVE SMOOTH",
"-644 -284 OFFCURVE",
"-318 -277 OFFCURVE",
"-163 -341 CURVE SMOOTH",
"-115 -360 OFFCURVE",
"-71 -380 OFFCURVE",
"-53 -414 CURVE SMOOTH",
"-38 -442 OFFCURVE",
"-50 -480 OFFCURVE",
"-90 -487 CURVE SMOOTH",
"-117 -491 OFFCURVE"
);
}
);
width = 0;
}
);
unicode = 004B;
},
{
glyphname = L;
lastChange = "2019-02-20 04:49:48 +0000";
layers = (
{
layerId = "A365CA76-4FD1-4CBB-A2E4-19DAF29CA71F";
paths = (
{
closed = 1;
nodes = (
"529 -14 OFFCURVE",
"504 -14 OFFCURVE",
"504 1 CURVE SMOOTH",
"504 12 OFFCURVE",
"530 27 OFFCURVE",
"544 43 CURVE SMOOTH",
"569 71 OFFCURVE",
"535 108 OFFCURVE",
"466 132 CURVE SMOOTH",
"397 156 OFFCURVE",
"270 181 OFFCURVE",
"183 186 CURVE SMOOTH",
"133 189 OFFCURVE",
"47 195 OFFCURVE",
"39 198 CURVE SMOOTH",
"31 201 OFFCURVE",
"28 207 OFFCURVE",
"31 212 CURVE SMOOTH",
"40 227 OFFCURVE",
"96 238 OFFCURVE",
"174 241 CURVE SMOOTH",
"278 245 OFFCURVE",
"395 227 OFFCURVE",
"523 195 CURVE SMOOTH",
"660 161 OFFCURVE",
"747 111 OFFCURVE",
"760 44 CURVE SMOOTH",
"765 18 OFFCURVE",
"761 -8 OFFCURVE",
"744 -22 CURVE SMOOTH",
"720 -41 OFFCURVE",
"701 -43 OFFCURVE",
"588 -24 CURVE SMOOTH"
);
},
{
closed = 1;
nodes = (
"1369 -264 OFFCURVE",
"1344 -264 OFFCURVE",
"1344 -249 CURVE SMOOTH",
"1344 -238 OFFCURVE",
"1370 -223 OFFCURVE",
"1384 -207 CURVE SMOOTH",
"1409 -179 OFFCURVE",
"1375 -142 OFFCURVE",
"1306 -118 CURVE SMOOTH",
"1237 -94 OFFCURVE",
"1110 -69 OFFCURVE",
"1023 -64 CURVE SMOOTH",
"973 -61 OFFCURVE",
"887 -55 OFFCURVE",
"879 -52 CURVE SMOOTH",
"871 -49 OFFCURVE",
"868 -43 OFFCURVE",
"871 -38 CURVE SMOOTH",
"880 -23 OFFCURVE",
"936 -12 OFFCURVE",
"1014 -9 CURVE SMOOTH",
"1118 -5 OFFCURVE",
"1235 -23 OFFCURVE",
"1363 -55 CURVE SMOOTH",
"1500 -89 OFFCURVE",
"1587 -139 OFFCURVE",
"1600 -206 CURVE SMOOTH",
"1605 -232 OFFCURVE",
"1601 -258 OFFCURVE",
"1584 -272 CURVE SMOOTH",
"1560 -291 OFFCURVE",
"1541 -293 OFFCURVE",
"1428 -274 CURVE SMOOTH"
);
}
);
width = 1632;
},
{
layerId = "99B43F0D-E5AD-4461-80B0-7E1D7FD75A43";
paths = (
{
closed = 1;
nodes = (
"529 -14 OFFCURVE",
"504 -14 OFFCURVE",
"504 1 CURVE SMOOTH",
"504 12 OFFCURVE",
"530 27 OFFCURVE",
"544 43 CURVE SMOOTH",
"569 71 OFFCURVE",
"535 108 OFFCURVE",
"466 132 CURVE SMOOTH",
"397 156 OFFCURVE",
"270 181 OFFCURVE",
"183 186 CURVE SMOOTH",
"133 189 OFFCURVE",
"47 195 OFFCURVE",
"39 198 CURVE SMOOTH",
"31 201 OFFCURVE",
"28 207 OFFCURVE",
"31 212 CURVE SMOOTH",
"40 227 OFFCURVE",
"96 238 OFFCURVE",
"174 241 CURVE SMOOTH",
"278 245 OFFCURVE",
"395 227 OFFCURVE",
"523 195 CURVE SMOOTH",
"660 161 OFFCURVE",
"747 111 OFFCURVE",
"760 44 CURVE SMOOTH",
"765 18 OFFCURVE",
"761 -8 OFFCURVE",
"744 -22 CURVE SMOOTH",
"720 -41 OFFCURVE",
"701 -43 OFFCURVE",
"588 -24 CURVE SMOOTH"
);
},
{
closed = 1;
nodes = (
"1369 -264 OFFCURVE",
"1344 -264 OFFCURVE",
"1344 -249 CURVE SMOOTH",
"1344 -238 OFFCURVE",
"1370 -223 OFFCURVE",
"1384 -207 CURVE SMOOTH",
"1409 -179 OFFCURVE",
"1375 -142 OFFCURVE",
"1306 -118 CURVE SMOOTH",
"1237 -94 OFFCURVE",
"1110 -69 OFFCURVE",
"1023 -64 CURVE SMOOTH",
"973 -61 OFFCURVE",
"887 -55 OFFCURVE",
"879 -52 CURVE SMOOTH",
"871 -49 OFFCURVE",
"868 -43 OFFCURVE",
"871 -38 CURVE SMOOTH",
"880 -23 OFFCURVE",
"936 -12 OFFCURVE",
"1014 -9 CURVE SMOOTH",
"1118 -5 OFFCURVE",
"1235 -23 OFFCURVE",
"1363 -55 CURVE SMOOTH",
"1500 -89 OFFCURVE",
"1587 -139 OFFCURVE",
"1600 -206 CURVE SMOOTH",
"1605 -232 OFFCURVE",
"1601 -258 OFFCURVE",
"1584 -272 CURVE SMOOTH",
"1560 -291 OFFCURVE",
"1541 -293 OFFCURVE",
"1428 -274 CURVE SMOOTH"
);
}
);
width = 1632;
}
);
unicode = 004C;
},
{
glyphname = M;
lastChange = "2019-02-20 04:49:48 +0000";
layers = (
{
layerId = "A365CA76-4FD1-4CBB-A2E4-19DAF29CA71F";
paths = (
{
closed = 1;
nodes = (
"-400 -430 OFFCURVE",
"-529 -402 OFFCURVE",
"-778 -339 CURVE SMOOTH",
"-884 -312 OFFCURVE",
"-893 -310 OFFCURVE",
"-911 -296 CURVE SMOOTH",
"-929 -282 OFFCURVE",
"-930 -263 OFFCURVE",
"-912 -263 CURVE SMOOTH",
"-897 -263 OFFCURVE",
"-787 -289 OFFCURVE",
"-570 -339 CURVE SMOOTH",
"-514 -352 OFFCURVE",
"-443 -369 OFFCURVE",
"-354 -387 CURVE",
"-340 -384 LINE SMOOTH",
"-283 -372 OFFCURVE",
"-153 -306 OFFCURVE",
"-88 -280 CURVE SMOOTH",
"-20 -253 OFFCURVE",
"-11 -249 OFFCURVE",
"9 -246 CURVE SMOOTH",
"46 -240 OFFCURVE",
"54 -247 OFFCURVE",
"131 -260 CURVE SMOOTH",
"186 -269 OFFCURVE",
"248 -280 OFFCURVE",
"248 -290 CURVE SMOOTH",
"248 -301 OFFCURVE",
"196 -315 OFFCURVE",
"134 -334 CURVE SMOOTH",
"121 -338 OFFCURVE",
"-215 -460 OFFCURVE",
"-212 -460 CURVE"
);
},
{
closed = 1;
nodes = (
"-489 -252 OFFCURVE",
"-576 -213 CURVE SMOOTH",
"-605 -200 OFFCURVE",
"-626 -185 OFFCURVE",
"-626 -176 CURVE SMOOTH",
"-626 -173 OFFCURVE",
"-617 -170 OFFCURVE",
"-610 -170 CURVE SMOOTH",
"-605 -170 OFFCURVE",
"-598 -172 OFFCURVE",
"-579 -181 CURVE SMOOTH",
"-511 -213 OFFCURVE",
"-453 -233 OFFCURVE",
"-393 -233 CURVE SMOOTH",
"-365 -233 OFFCURVE",
"-336 -233 OFFCURVE",
"-331 -217 CURVE SMOOTH",
"-330 -214 OFFCURVE",
"-333 -210 OFFCURVE",
"-343 -199 CURVE SMOOTH",
"-359 -181 OFFCURVE",
"-359 -179 OFFCURVE",
"-350 -173 CURVE SMOOTH",
"-345 -170 OFFCURVE",
"-342 -169 OFFCURVE",
"-328 -170 CURVE SMOOTH",
"-300 -172 OFFCURVE",
"-274 -180 OFFCURVE",
"-252 -198 CURVE SMOOTH",
"-241 -207 OFFCURVE",
"-234 -220 OFFCURVE",
"-248 -239 CURVE SMOOTH",
"-257 -251 OFFCURVE",
"-281 -262 OFFCURVE",
"-311 -267 CURVE SMOOTH",
"-387 -280 OFFCURVE"
);
}
);
width = 0;
},
{
layerId = "99B43F0D-E5AD-4461-80B0-7E1D7FD75A43";
paths = (
{
closed = 1;
nodes = (
"-400 -430 OFFCURVE",
"-529 -402 OFFCURVE",
"-778 -339 CURVE SMOOTH",
"-884 -312 OFFCURVE",
"-893 -310 OFFCURVE",
"-911 -296 CURVE SMOOTH",
"-929 -282 OFFCURVE",
"-930 -263 OFFCURVE",
"-912 -263 CURVE SMOOTH",
"-897 -263 OFFCURVE",
"-787 -289 OFFCURVE",
"-570 -339 CURVE SMOOTH",
"-514 -352 OFFCURVE",
"-443 -369 OFFCURVE",
"-354 -387 CURVE",
"-340 -384 LINE SMOOTH",
"-283 -372 OFFCURVE",
"-153 -306 OFFCURVE",
"-88 -280 CURVE SMOOTH",
"-20 -253 OFFCURVE",
"-11 -249 OFFCURVE",
"9 -246 CURVE SMOOTH",
"46 -240 OFFCURVE",
"54 -247 OFFCURVE",
"131 -260 CURVE SMOOTH",
"186 -269 OFFCURVE",
"248 -280 OFFCURVE",
"248 -290 CURVE SMOOTH",
"248 -301 OFFCURVE",
"196 -315 OFFCURVE",
"134 -334 CURVE SMOOTH",
"121 -338 OFFCURVE",
"-215 -460 OFFCURVE",
"-212 -460 CURVE"
);
},
{
closed = 1;
nodes = (
"-489 -252 OFFCURVE",
"-576 -213 CURVE SMOOTH",
"-605 -200 OFFCURVE",
"-626 -185 OFFCURVE",
"-626 -176 CURVE SMOOTH",
"-626 -173 OFFCURVE",
"-617 -170 OFFCURVE",
"-610 -170 CURVE SMOOTH",
"-605 -170 OFFCURVE",
"-598 -172 OFFCURVE",
"-579 -181 CURVE SMOOTH",
"-511 -213 OFFCURVE",
"-453 -233 OFFCURVE",
"-393 -233 CURVE SMOOTH",
"-365 -233 OFFCURVE",
"-336 -233 OFFCURVE",
"-331 -217 CURVE SMOOTH",
"-330 -214 OFFCURVE",
"-333 -210 OFFCURVE",
"-343 -199 CURVE SMOOTH",
"-359 -181 OFFCURVE",
"-359 -179 OFFCURVE",
"-350 -173 CURVE SMOOTH",
"-345 -170 OFFCURVE",
"-342 -169 OFFCURVE",
"-328 -170 CURVE SMOOTH",
"-300 -172 OFFCURVE",
"-274 -180 OFFCURVE",
"-252 -198 CURVE SMOOTH",
"-241 -207 OFFCURVE",
"-234 -220 OFFCURVE",
"-248 -239 CURVE SMOOTH",
"-257 -251 OFFCURVE",
"-281 -262 OFFCURVE",
"-311 -267 CURVE SMOOTH",
"-387 -280 OFFCURVE"
);
}
);
width = 0;
}
);
unicode = 004D;
},
{
glyphname = N;
lastChange = "2019-02-20 04:49:48 +0000";
layers = (
{
layerId = "A365CA76-4FD1-4CBB-A2E4-19DAF29CA71F";
paths = (
{
closed = 1;
nodes = (
"-633 -320 OFFCURVE",
"-762 -293 OFFCURVE",
"-1011 -229 CURVE SMOOTH",
"-1117 -203 OFFCURVE",
"-1126 -200 OFFCURVE",
"-1144 -186 CURVE SMOOTH",
"-1162 -172 OFFCURVE",
"-1163 -153 OFFCURVE",
"-1145 -153 CURVE SMOOTH",
"-1130 -153 OFFCURVE",
"-1020 -178 OFFCURVE",
"-803 -229 CURVE SMOOTH",
"-747 -243 OFFCURVE",
"-676 -259 OFFCURVE",
"-587 -277 CURVE",
"-573 -274 LINE SMOOTH",
"-516 -263 OFFCURVE",
"-386 -196 OFFCURVE",
"-321 -170 CURVE SMOOTH",
"-253 -143 OFFCURVE",
"-244 -139 OFFCURVE",
"-225 -136 CURVE SMOOTH",
"-188 -130 OFFCURVE",
"-180 -137 OFFCURVE",
"-103 -150 CURVE SMOOTH",
"-48 -159 OFFCURVE",
"14 -170 OFFCURVE",
"14 -180 CURVE SMOOTH",
"14 -191 OFFCURVE",
"-38 -205 OFFCURVE",
"-100 -224 CURVE SMOOTH",
"-113 -228 OFFCURVE",
"-448 -350 OFFCURVE",
"-445 -350 CURVE"
);
}
);
width = 0;
},
{
layerId = "99B43F0D-E5AD-4461-80B0-7E1D7FD75A43";
paths = (
{
closed = 1;
nodes = (
"-633 -320 OFFCURVE",
"-762 -293 OFFCURVE",
"-1011 -229 CURVE SMOOTH",
"-1117 -203 OFFCURVE",
"-1126 -200 OFFCURVE",
"-1144 -186 CURVE SMOOTH",
"-1162 -172 OFFCURVE",
"-1163 -153 OFFCURVE",
"-1145 -153 CURVE SMOOTH",
"-1130 -153 OFFCURVE",
"-1020 -178 OFFCURVE",
"-803 -229 CURVE SMOOTH",
"-747 -243 OFFCURVE",
"-676 -259 OFFCURVE",
"-587 -277 CURVE",
"-573 -274 LINE SMOOTH",
"-516 -263 OFFCURVE",
"-386 -196 OFFCURVE",
"-321 -170 CURVE SMOOTH",
"-253 -143 OFFCURVE",
"-244 -139 OFFCURVE",
"-225 -136 CURVE SMOOTH",
"-188 -130 OFFCURVE",
"-180 -137 OFFCURVE",
"-103 -150 CURVE SMOOTH",
"-48 -159 OFFCURVE",
"14 -170 OFFCURVE",
"14 -180 CURVE SMOOTH",
"14 -191 OFFCURVE",
"-38 -205 OFFCURVE",
"-100 -224 CURVE SMOOTH",
"-113 -228 OFFCURVE",
"-448 -350 OFFCURVE",
"-445 -350 CURVE"
);
}
);
width = 0;
}
);
unicode = 004E;
},
{
glyphname = O;
lastChange = "2019-02-20 04:49:48 +0000";
layers = (
{
layerId = "A365CA76-4FD1-4CBB-A2E4-19DAF29CA71F";
paths = (
{
closed = 1;
nodes = (
"466 -85 OFFCURVE",
"366 -49 CURVE SMOOTH",
"206 8 OFFCURVE",
"109 54 OFFCURVE",
"71 94 CURVE SMOOTH",
"39 128 OFFCURVE",
"44 152 OFFCURVE",
"90 160 CURVE SMOOTH",
"131 167 OFFCURVE",
"334 163 OFFCURVE",
"364 138 CURVE SMOOTH",
"371 132 OFFCURVE",
"372 126 OFFCURVE",
"365 119 CURVE SMOOTH",
"363 117 OFFCURVE",
"357 117 OFFCURVE",
"332 115 CURVE SMOOTH",
"302 113 OFFCURVE",
"287 111 OFFCURVE",
"286 107 CURVE SMOOTH",
"276 67 OFFCURVE",
"437 -3 OFFCURVE",
"525 -27 CURVE SMOOTH",
"704 -72 OFFCURVE",
"958 -83 OFFCURVE",
"958 28 CURVE SMOOTH",
"958 68 OFFCURVE",
"934 100 OFFCURVE",
"890 122 CURVE SMOOTH",
"823 156 OFFCURVE",
"884 161 OFFCURVE",
"962 161 CURVE SMOOTH",
"1067 161 OFFCURVE",
"1155 135 OFFCURVE",
"1133 26 CURVE SMOOTH",
"1112 -79 OFFCURVE",
"950 -114 OFFCURVE",
"775 -111 CURVE SMOOTH",
"654 -111 OFFCURVE"
);
},
{
closed = 1;
nodes = (
"458 235 OFFCURVE",
"457 240 OFFCURVE",
"457 244 CURVE SMOOTH",
"457 248 OFFCURVE",
"487 288 OFFCURVE",
"487 292 CURVE SMOOTH",
"487 293 OFFCURVE",
"478 293 OFFCURVE",
"458 293 CURVE SMOOTH",
"415 293 OFFCURVE",
"331 302 OFFCURVE",
"295 310 CURVE SMOOTH",
"239 322 OFFCURVE",
"194 341 OFFCURVE",
"157 371 CURVE SMOOTH",
"125 397 OFFCURVE",
"110 420 OFFCURVE",
"89 465 CURVE SMOOTH",
"72 502 OFFCURVE",
"25 644 OFFCURVE",
"30 650 CURVE SMOOTH",
"34 655 OFFCURVE",
"50 651 OFFCURVE",
"76 649 CURVE SMOOTH",
"116 646 OFFCURVE",
"124 646 OFFCURVE",
"139 636 CURVE SMOOTH",
"165 619 OFFCURVE",
"178 590 OFFCURVE",
"189 543 CURVE SMOOTH",
"203 484 OFFCURVE",
"235 436 OFFCURVE",
"262 407 CURVE SMOOTH",
"301 367 OFFCURVE",
"349 355 OFFCURVE",
"418 346 CURVE SMOOTH",
"442 343 OFFCURVE",
"482 340 OFFCURVE",
"502 340 CURVE SMOOTH",
"505 340 OFFCURVE",
"513 340 OFFCURVE",
"514 341 CURVE SMOOTH",
"515 342 OFFCURVE",
"539 388 OFFCURVE",
"544 395 CURVE SMOOTH",
"551 405 OFFCURVE",
"545 403 OFFCURVE",
"584 404 CURVE SMOOTH",
"629 405 OFFCURVE",
"654 405 OFFCURVE",
"656 403 CURVE SMOOTH",
"659 400 OFFCURVE",
"650 378 OFFCURVE",
"648 374 CURVE SMOOTH",
"640 358 OFFCURVE",
"634 343 OFFCURVE",
"634 341 CURVE SMOOTH",
"634 338 OFFCURVE",
"653 335 OFFCURVE",
"800 335 CURVE SMOOTH",
"844 335 OFFCURVE",
"924 337 OFFCURVE",
"932 333 CURVE SMOOTH",
"934 332 OFFCURVE",
"928 321 OFFCURVE",
"922 316 CURVE SMOOTH",
"908 304 OFFCURVE",
"881 301 OFFCURVE",
"836 298 CURVE SMOOTH",
"780 294 OFFCURVE",
"664 290 OFFCURVE",
"622 290 CURVE SMOOTH",
"619 290 OFFCURVE",
"613 290 OFFCURVE",
"613 289 CURVE SMOOTH",
"613 288 OFFCURVE",
"592 261 OFFCURVE",
"582 253 CURVE SMOOTH",
"561 236 OFFCURVE",
"547 235 OFFCURVE",
"499 235 CURVE SMOOTH",
"480 235 OFFCURVE",
"463 235 OFFCURVE",
"462 235 CURVE SMOOTH"
);
},
{
closed = 1;
nodes = (
"568 465 OFFCURVE",
"567 470 OFFCURVE",
"567 474 CURVE SMOOTH",
"567 478 OFFCURVE",
"597 518 OFFCURVE",
"597 522 CURVE SMOOTH",
"597 523 OFFCURVE",
"588 523 OFFCURVE",
"568 523 CURVE SMOOTH",
"525 523 OFFCURVE",
"441 532 OFFCURVE",
"405 540 CURVE SMOOTH",
"349 552 OFFCURVE",
"304 571 OFFCURVE",
"267 601 CURVE SMOOTH",
"235 627 OFFCURVE",
"220 650 OFFCURVE",
"199 695 CURVE SMOOTH",
"182 732 OFFCURVE",
"135 874 OFFCURVE",
"140 880 CURVE SMOOTH",
"144 885 OFFCURVE",
"160 881 OFFCURVE",
"186 879 CURVE SMOOTH",
"226 876 OFFCURVE",
"234 876 OFFCURVE",
"249 866 CURVE SMOOTH",
"275 849 OFFCURVE",
"288 820 OFFCURVE",
"299 773 CURVE SMOOTH",
"313 714 OFFCURVE",
"345 666 OFFCURVE",
"372 637 CURVE SMOOTH",
"410 596 OFFCURVE",
"459 585 OFFCURVE",
"528 576 CURVE SMOOTH",
"552 573 OFFCURVE",
"592 570 OFFCURVE",
"612 570 CURVE SMOOTH",
"615 570 OFFCURVE",
"623 570 OFFCURVE",
"624 571 CURVE SMOOTH",
"625 572 OFFCURVE",
"649 618 OFFCURVE",
"654 625 CURVE SMOOTH",
"661 635 OFFCURVE",
"655 633 OFFCURVE",
"694 634 CURVE SMOOTH",
"739 635 OFFCURVE",
"764 635 OFFCURVE",
"766 633 CURVE SMOOTH",
"769 630 OFFCURVE",
"760 608 OFFCURVE",
"758 604 CURVE SMOOTH",
"750 588 OFFCURVE",
"744 573 OFFCURVE",
"744 571 CURVE SMOOTH",
"744 568 OFFCURVE",
"763 565 OFFCURVE",
"910 565 CURVE SMOOTH",
"954 565 OFFCURVE",
"1034 567 OFFCURVE",
"1042 563 CURVE SMOOTH",
"1044 562 OFFCURVE",
"1038 551 OFFCURVE",
"1032 546 CURVE SMOOTH",
"1018 534 OFFCURVE",
"991 531 OFFCURVE",
"946 528 CURVE SMOOTH",
"890 524 OFFCURVE",
"774 520 OFFCURVE",
"732 520 CURVE SMOOTH",
"729 520 OFFCURVE",
"723 520 OFFCURVE",
"723 519 CURVE SMOOTH",
"723 518 OFFCURVE",
"702 491 OFFCURVE",
"692 483 CURVE SMOOTH",
"671 466 OFFCURVE",
"657 465 OFFCURVE",
"609 465 CURVE SMOOTH",
"590 465 OFFCURVE",
"573 465 OFFCURVE",
"572 465 CURVE SMOOTH"
);
}
);
width = 1166;
},
{
layerId = "99B43F0D-E5AD-4461-80B0-7E1D7FD75A43";
paths = (
{
closed = 1;
nodes = (
"466 -85 OFFCURVE",
"366 -49 CURVE SMOOTH",
"206 8 OFFCURVE",
"109 54 OFFCURVE",
"71 94 CURVE SMOOTH",
"39 128 OFFCURVE",
"44 152 OFFCURVE",
"90 160 CURVE SMOOTH",
"131 167 OFFCURVE",
"334 163 OFFCURVE",
"364 138 CURVE SMOOTH",
"371 132 OFFCURVE",
"372 126 OFFCURVE",
"365 119 CURVE SMOOTH",
"363 117 OFFCURVE",
"357 117 OFFCURVE",
"332 115 CURVE SMOOTH",
"302 113 OFFCURVE",
"287 111 OFFCURVE",
"286 107 CURVE SMOOTH",
"276 67 OFFCURVE",
"437 -3 OFFCURVE",
"525 -27 CURVE SMOOTH",
"704 -72 OFFCURVE",
"958 -83 OFFCURVE",
"958 28 CURVE SMOOTH",
"958 68 OFFCURVE",
"934 100 OFFCURVE",
"890 122 CURVE SMOOTH",
"823 156 OFFCURVE",
"884 161 OFFCURVE",
"962 161 CURVE SMOOTH",
"1067 161 OFFCURVE",
"1155 135 OFFCURVE",
"1133 26 CURVE SMOOTH",
"1112 -79 OFFCURVE",
"950 -114 OFFCURVE",
"775 -111 CURVE SMOOTH",
"654 -111 OFFCURVE"
);
},
{
closed = 1;
nodes = (
"458 235 OFFCURVE",
"457 240 OFFCURVE",
"457 244 CURVE SMOOTH",
"457 248 OFFCURVE",
"487 288 OFFCURVE",
"487 292 CURVE SMOOTH",
"487 293 OFFCURVE",
"478 293 OFFCURVE",
"458 293 CURVE SMOOTH",
"415 293 OFFCURVE",
"331 302 OFFCURVE",
"295 310 CURVE SMOOTH",
"239 322 OFFCURVE",
"194 341 OFFCURVE",
"157 371 CURVE SMOOTH",
"125 397 OFFCURVE",
"110 420 OFFCURVE",
"89 465 CURVE SMOOTH",
"72 502 OFFCURVE",
"25 644 OFFCURVE",
"30 650 CURVE SMOOTH",
"34 655 OFFCURVE",
"50 651 OFFCURVE",
"76 649 CURVE SMOOTH",
"116 646 OFFCURVE",
"124 646 OFFCURVE",
"139 636 CURVE SMOOTH",
"165 619 OFFCURVE",
"178 590 OFFCURVE",
"189 543 CURVE SMOOTH",
"203 484 OFFCURVE",
"235 436 OFFCURVE",
"262 407 CURVE SMOOTH",
"301 367 OFFCURVE",
"349 355 OFFCURVE",
"418 346 CURVE SMOOTH",
"442 343 OFFCURVE",
"482 340 OFFCURVE",
"502 340 CURVE SMOOTH",
"505 340 OFFCURVE",
"513 340 OFFCURVE",
"514 341 CURVE SMOOTH",
"515 342 OFFCURVE",
"539 388 OFFCURVE",
"544 395 CURVE SMOOTH",
"551 405 OFFCURVE",
"545 403 OFFCURVE",
"584 404 CURVE SMOOTH",
"629 405 OFFCURVE",
"654 405 OFFCURVE",
"656 403 CURVE SMOOTH",
"659 400 OFFCURVE",
"650 378 OFFCURVE",
"648 374 CURVE SMOOTH",
"640 358 OFFCURVE",
"634 343 OFFCURVE",
"634 341 CURVE SMOOTH",
"634 338 OFFCURVE",
"653 335 OFFCURVE",
"800 335 CURVE SMOOTH",
"844 335 OFFCURVE",
"924 337 OFFCURVE",
"932 333 CURVE SMOOTH",
"934 332 OFFCURVE",
"928 321 OFFCURVE",
"922 316 CURVE SMOOTH",
"908 304 OFFCURVE",
"881 301 OFFCURVE",
"836 298 CURVE SMOOTH",
"780 294 OFFCURVE",
"664 290 OFFCURVE",
"622 290 CURVE SMOOTH",
"619 290 OFFCURVE",
"613 290 OFFCURVE",
"613 289 CURVE SMOOTH",
"613 288 OFFCURVE",
"592 261 OFFCURVE",
"582 253 CURVE SMOOTH",
"561 236 OFFCURVE",
"547 235 OFFCURVE",
"499 235 CURVE SMOOTH",
"480 235 OFFCURVE",
"463 235 OFFCURVE",
"462 235 CURVE SMOOTH"
);
},
{
closed = 1;
nodes = (
"568 465 OFFCURVE",
"567 470 OFFCURVE",
"567 474 CURVE SMOOTH",
"567 478 OFFCURVE",
"597 518 OFFCURVE",
"597 522 CURVE SMOOTH",
"597 523 OFFCURVE",
"588 523 OFFCURVE",
"568 523 CURVE SMOOTH",
"525 523 OFFCURVE",
"441 532 OFFCURVE",
"405 540 CURVE SMOOTH",
"349 552 OFFCURVE",
"304 571 OFFCURVE",
"267 601 CURVE SMOOTH",
"235 627 OFFCURVE",
"220 650 OFFCURVE",
"199 695 CURVE SMOOTH",
"182 732 OFFCURVE",
"135 874 OFFCURVE",
"140 880 CURVE SMOOTH",
"144 885 OFFCURVE",
"160 881 OFFCURVE",
"186 879 CURVE SMOOTH",
"226 876 OFFCURVE",
"234 876 OFFCURVE",
"249 866 CURVE SMOOTH",
"275 849 OFFCURVE",
"288 820 OFFCURVE",
"299 773 CURVE SMOOTH",
"313 714 OFFCURVE",
"345 666 OFFCURVE",
"372 637 CURVE SMOOTH",
"410 596 OFFCURVE",
"459 585 OFFCURVE",
"528 576 CURVE SMOOTH",
"552 573 OFFCURVE",
"592 570 OFFCURVE",
"612 570 CURVE SMOOTH",
"615 570 OFFCURVE",
"623 570 OFFCURVE",
"624 571 CURVE SMOOTH",
"625 572 OFFCURVE",
"649 618 OFFCURVE",
"654 625 CURVE SMOOTH",
"661 635 OFFCURVE",
"655 633 OFFCURVE",
"694 634 CURVE SMOOTH",
"739 635 OFFCURVE",
"764 635 OFFCURVE",
"766 633 CURVE SMOOTH",
"769 630 OFFCURVE",
"760 608 OFFCURVE",
"758 604 CURVE SMOOTH",
"750 588 OFFCURVE",
"744 573 OFFCURVE",
"744 571 CURVE SMOOTH",
"744 568 OFFCURVE",
"763 565 OFFCURVE",
"910 565 CURVE SMOOTH",
"954 565 OFFCURVE",
"1034 567 OFFCURVE",
"1042 563 CURVE SMOOTH",
"1044 562 OFFCURVE",
"1038 551 OFFCURVE",
"1032 546 CURVE SMOOTH",
"1018 534 OFFCURVE",
"991 531 OFFCURVE",
"946 528 CURVE SMOOTH",
"890 524 OFFCURVE",
"774 520 OFFCURVE",
"732 520 CURVE SMOOTH",
"729 520 OFFCURVE",
"723 520 OFFCURVE",
"723 519 CURVE SMOOTH",
"723 518 OFFCURVE",
"702 491 OFFCURVE",
"692 483 CURVE SMOOTH",
"671 466 OFFCURVE",
"657 465 OFFCURVE",
"609 465 CURVE SMOOTH",
"590 465 OFFCURVE",
"573 465 OFFCURVE",
"572 465 CURVE SMOOTH"
);
}
);
width = 1166;
}
);
unicode = 004F;
},
{
glyphname = P;
lastChange = "2019-02-20 04:49:48 +0000";
layers = (
{
layerId = "A365CA76-4FD1-4CBB-A2E4-19DAF29CA71F";
paths = (
{
closed = 1;
nodes = (
"1040 1 OFFCURVE",
"970 5 OFFCURVE",
"870 1 CURVE SMOOTH",
"817 -2 OFFCURVE",
"694 -4 OFFCURVE",
"599 -4 CURVE SMOOTH",
"425 -4 OFFCURVE",
"309 -3 OFFCURVE",
"188 54 CURVE SMOOTH",
"89 99 OFFCURVE",
"30 150 OFFCURVE",
"30 188 CURVE SMOOTH",
"30 227 OFFCURVE",
"59 238 OFFCURVE",
"158 238 CURVE SMOOTH",
"237 237 OFFCURVE",
"274 230 OFFCURVE",
"327 205 CURVE SMOOTH",
"363 189 OFFCURVE",
"415 159 OFFCURVE",
"407 147 CURVE SMOOTH",
"397 133 OFFCURVE",
"379 141 OFFCURVE",
"283 144 CURVE SMOOTH",
"170 147 OFFCURVE",
"182 97 OFFCURVE",
"291 75 CURVE SMOOTH",
"353 62 OFFCURVE",
"386 63 OFFCURVE",
"546 79 CURVE SMOOTH",
"846 108 OFFCURVE",
"984 121 OFFCURVE",
"1129 52 CURVE SMOOTH",
"1185 25 OFFCURVE",
"1219 -4 OFFCURVE",
"1215 -16 CURVE SMOOTH",
"1212 -24 OFFCURVE",
"1210 -24 OFFCURVE",
"1156 -17 CURVE SMOOTH"
);
},
{
closed = 1;
nodes = (
"1329 -334 OFFCURVE",
"1306 -334 OFFCURVE",
"1306 -321 CURVE SMOOTH",
"1306 -311 OFFCURVE",
"1330 -297 OFFCURVE",
"1342 -283 CURVE SMOOTH",
"1365 -257 OFFCURVE",
"1334 -224 OFFCURVE",
"1271 -202 CURVE SMOOTH",
"1209 -180 OFFCURVE",
"1094 -157 OFFCURVE",
"1015 -153 CURVE SMOOTH",
"969 -150 OFFCURVE",
"891 -145 OFFCURVE",
"884 -142 CURVE SMOOTH",
"877 -139 OFFCURVE",
"874 -134 OFFCURVE",
"877 -129 CURVE SMOOTH",
"885 -116 OFFCURVE",
"936 -106 OFFCURVE",
"1007 -103 CURVE SMOOTH",
"1101 -99 OFFCURVE",
"1207 -116 OFFCURVE",
"1323 -145 CURVE SMOOTH",
"1447 -175 OFFCURVE",
"1526 -221 OFFCURVE",
"1538 -282 CURVE SMOOTH",
"1543 -305 OFFCURVE",
"1539 -329 OFFCURVE",
"1524 -341 CURVE SMOOTH",
"1502 -359 OFFCURVE",
"1485 -361 OFFCURVE",
"1382 -343 CURVE SMOOTH"
);
}
);
width = 1490;
},
{
layerId = "99B43F0D-E5AD-4461-80B0-7E1D7FD75A43";
paths = (
{
closed = 1;
nodes = (
"1040 1 OFFCURVE",
"970 5 OFFCURVE",
"870 1 CURVE SMOOTH",
"817 -2 OFFCURVE",
"694 -4 OFFCURVE",
"599 -4 CURVE SMOOTH",
"425 -4 OFFCURVE",
"309 -3 OFFCURVE",
"188 54 CURVE SMOOTH",
"89 99 OFFCURVE",
"30 150 OFFCURVE",
"30 188 CURVE SMOOTH",
"30 227 OFFCURVE",
"59 238 OFFCURVE",
"158 238 CURVE SMOOTH",
"237 237 OFFCURVE",
"274 230 OFFCURVE",
"327 205 CURVE SMOOTH",
"363 189 OFFCURVE",
"415 159 OFFCURVE",
"407 147 CURVE SMOOTH",
"397 133 OFFCURVE",
"379 141 OFFCURVE",
"283 144 CURVE SMOOTH",
"170 147 OFFCURVE",
"182 97 OFFCURVE",
"291 75 CURVE SMOOTH",
"353 62 OFFCURVE",
"386 63 OFFCURVE",
"546 79 CURVE SMOOTH",
"846 108 OFFCURVE",
"984 121 OFFCURVE",
"1129 52 CURVE SMOOTH",
"1185 25 OFFCURVE",
"1219 -4 OFFCURVE",
"1215 -16 CURVE SMOOTH",
"1212 -24 OFFCURVE",
"1210 -24 OFFCURVE",
"1156 -17 CURVE SMOOTH"
);
},
{
closed = 1;
nodes = (
"1329 -334 OFFCURVE",
"1306 -334 OFFCURVE",
"1306 -321 CURVE SMOOTH",
"1306 -311 OFFCURVE",
"1330 -297 OFFCURVE",
"1342 -283 CURVE SMOOTH",
"1365 -257 OFFCURVE",
"1334 -224 OFFCURVE",
"1271 -202 CURVE SMOOTH",
"1209 -180 OFFCURVE",
"1094 -157 OFFCURVE",
"1015 -153 CURVE SMOOTH",
"969 -150 OFFCURVE",
"891 -145 OFFCURVE",
"884 -142 CURVE SMOOTH",
"877 -139 OFFCURVE",
"874 -134 OFFCURVE",
"877 -129 CURVE SMOOTH",
"885 -116 OFFCURVE",
"936 -106 OFFCURVE",
"1007 -103 CURVE SMOOTH",
"1101 -99 OFFCURVE",
"1207 -116 OFFCURVE",
"1323 -145 CURVE SMOOTH",
"1447 -175 OFFCURVE",
"1526 -221 OFFCURVE",
"1538 -282 CURVE SMOOTH",
"1543 -305 OFFCURVE",
"1539 -329 OFFCURVE",
"1524 -341 CURVE SMOOTH",
"1502 -359 OFFCURVE",
"1485 -361 OFFCURVE",
"1382 -343 CURVE SMOOTH"
);
}
);
width = 1490;
}
);
unicode = 0050;
},
{
glyphname = Q;
lastChange = "2019-02-20 04:49:48 +0000";
layers = (
{
layerId = "A365CA76-4FD1-4CBB-A2E4-19DAF29CA71F";
paths = (
{
closed = 1;
nodes = (
"598 -106 OFFCURVE",
"428 -85 OFFCURVE",
"337 -52 CURVE SMOOTH",
"192 1 OFFCURVE",
"104 41 OFFCURVE",
"70 78 CURVE SMOOTH",
"41 109 OFFCURVE",
"45 130 OFFCURVE",
"87 138 CURVE SMOOTH",
"124 145 OFFCURVE",
"309 141 OFFCURVE",
"335 118 CURVE SMOOTH",
"342 112 OFFCURVE",
"343 107 OFFCURVE",
"336 100 CURVE SMOOTH",
"334 98 OFFCURVE",
"329 99 OFFCURVE",
"306 97 CURVE SMOOTH",
"279 95 OFFCURVE",
"265 93 OFFCURVE",
"265 89 CURVE SMOOTH",
"265 52 OFFCURVE",
"402 -10 OFFCURVE",
"481 -32 CURVE SMOOTH",
"643 -77 OFFCURVE",
"874 -83 OFFCURVE",
"874 18 CURVE SMOOTH",
"874 54 OFFCURVE",
"852 83 OFFCURVE",
"812 103 CURVE SMOOTH",
"752 133 OFFCURVE",
"807 138 OFFCURVE",
"878 138 CURVE SMOOTH",
"973 138 OFFCURVE",
"1053 115 OFFCURVE",
"1033 16 CURVE SMOOTH",
"1014 -79 OFFCURVE",
"867 -111 OFFCURVE",
"708 -108 CURVE SMOOTH"
);
},
{
closed = 1;
nodes = (
"496 127 OFFCURVE",
"473 125 OFFCURVE",
"473 138 CURVE SMOOTH",
"473 148 OFFCURVE",
"497 162 OFFCURVE",
"510 177 CURVE SMOOTH",
"532 202 OFFCURVE",
"502 235 OFFCURVE",
"439 257 CURVE SMOOTH",
"377 281 OFFCURVE",
"261 302 OFFCURVE",
"182 306 CURVE SMOOTH",
"137 309 OFFCURVE",
"59 314 OFFCURVE",
"52 317 CURVE SMOOTH",
"44 320 OFFCURVE",
"42 325 OFFCURVE",
"44 330 CURVE SMOOTH",
"54 343 OFFCURVE",
"103 353 OFFCURVE",
"174 356 CURVE SMOOTH",
"268 362 OFFCURVE",
"375 343 OFFCURVE",
"491 314 CURVE SMOOTH",
"615 284 OFFCURVE",
"694 238 OFFCURVE",
"706 177 CURVE SMOOTH",
"710 154 OFFCURVE",
"707 130 OFFCURVE",
"691 118 CURVE SMOOTH",
"669 100 OFFCURVE",
"652 99 OFFCURVE",
"550 116 CURVE SMOOTH"
);
}
);
width = 1063;
},
{
layerId = "99B43F0D-E5AD-4461-80B0-7E1D7FD75A43";
paths = (
{
closed = 1;
nodes = (
"598 -106 OFFCURVE",
"428 -85 OFFCURVE",
"337 -52 CURVE SMOOTH",
"192 1 OFFCURVE",
"104 41 OFFCURVE",
"70 78 CURVE SMOOTH",
"41 109 OFFCURVE",
"45 130 OFFCURVE",
"87 138 CURVE SMOOTH",
"124 145 OFFCURVE",
"309 141 OFFCURVE",
"335 118 CURVE SMOOTH",
"342 112 OFFCURVE",
"343 107 OFFCURVE",
"336 100 CURVE SMOOTH",
"334 98 OFFCURVE",
"329 99 OFFCURVE",
"306 97 CURVE SMOOTH",
"279 95 OFFCURVE",
"265 93 OFFCURVE",
"265 89 CURVE SMOOTH",
"265 52 OFFCURVE",
"402 -10 OFFCURVE",
"481 -32 CURVE SMOOTH",
"643 -77 OFFCURVE",
"874 -83 OFFCURVE",
"874 18 CURVE SMOOTH",
"874 54 OFFCURVE",
"852 83 OFFCURVE",
"812 103 CURVE SMOOTH",
"752 133 OFFCURVE",
"807 138 OFFCURVE",
"878 138 CURVE SMOOTH",
"973 138 OFFCURVE",
"1053 115 OFFCURVE",
"1033 16 CURVE SMOOTH",
"1014 -79 OFFCURVE",
"867 -111 OFFCURVE",
"708 -108 CURVE SMOOTH"
);
},
{
closed = 1;
nodes = (
"496 127 OFFCURVE",
"473 125 OFFCURVE",
"473 138 CURVE SMOOTH",
"473 148 OFFCURVE",
"497 162 OFFCURVE",
"510 177 CURVE SMOOTH",
"532 202 OFFCURVE",
"502 235 OFFCURVE",
"439 257 CURVE SMOOTH",
"377 281 OFFCURVE",
"261 302 OFFCURVE",
"182 306 CURVE SMOOTH",
"137 309 OFFCURVE",
"59 314 OFFCURVE",
"52 317 CURVE SMOOTH",
"44 320 OFFCURVE",
"42 325 OFFCURVE",
"44 330 CURVE SMOOTH",
"54 343 OFFCURVE",
"103 353 OFFCURVE",
"174 356 CURVE SMOOTH",
"268 362 OFFCURVE",
"375 343 OFFCURVE",
"491 314 CURVE SMOOTH",
"615 284 OFFCURVE",
"694 238 OFFCURVE",
"706 177 CURVE SMOOTH",
"710 154 OFFCURVE",
"707 130 OFFCURVE",
"691 118 CURVE SMOOTH",
"669 100 OFFCURVE",
"652 99 OFFCURVE",
"550 116 CURVE SMOOTH"
);
}
);
width = 1063;
}
);
unicode = 0051;
},
{
glyphname = R;
lastChange = "2019-02-20 04:49:48 +0000";
layers = (
{
layerId = "A365CA76-4FD1-4CBB-A2E4-19DAF29CA71F";
paths = (
{
closed = 1;
nodes = (
"466 -85 OFFCURVE",
"366 -49 CURVE SMOOTH",
"206 8 OFFCURVE",
"109 54 OFFCURVE",
"71 94 CURVE SMOOTH",
"39 128 OFFCURVE",
"44 152 OFFCURVE",
"90 160 CURVE SMOOTH",
"131 167 OFFCURVE",
"334 163 OFFCURVE",
"364 138 CURVE SMOOTH",
"371 132 OFFCURVE",
"372 126 OFFCURVE",
"365 119 CURVE SMOOTH",
"363 117 OFFCURVE",
"357 117 OFFCURVE",
"332 115 CURVE SMOOTH",
"302 113 OFFCURVE",
"287 111 OFFCURVE",
"286 107 CURVE SMOOTH",
"276 67 OFFCURVE",
"437 -3 OFFCURVE",
"525 -27 CURVE SMOOTH",
"704 -72 OFFCURVE",
"958 -83 OFFCURVE",
"958 28 CURVE SMOOTH",
"958 68 OFFCURVE",
"934 100 OFFCURVE",
"890 122 CURVE SMOOTH",
"823 156 OFFCURVE",
"884 161 OFFCURVE",
"962 161 CURVE SMOOTH",
"1067 161 OFFCURVE",
"1155 135 OFFCURVE",
"1133 26 CURVE SMOOTH",
"1112 -79 OFFCURVE",
"950 -114 OFFCURVE",
"775 -111 CURVE SMOOTH",
"654 -111 OFFCURVE"
);
},
{
closed = 1;
nodes = (
"458 235 OFFCURVE",
"457 240 OFFCURVE",
"457 244 CURVE SMOOTH",
"457 248 OFFCURVE",
"487 288 OFFCURVE",
"487 292 CURVE SMOOTH",
"487 293 OFFCURVE",
"478 293 OFFCURVE",
"458 293 CURVE SMOOTH",
"415 293 OFFCURVE",
"331 302 OFFCURVE",
"295 310 CURVE SMOOTH",
"239 322 OFFCURVE",
"194 341 OFFCURVE",
"157 371 CURVE SMOOTH",
"125 397 OFFCURVE",
"110 420 OFFCURVE",
"89 465 CURVE SMOOTH",
"72 502 OFFCURVE",
"25 644 OFFCURVE",
"30 650 CURVE SMOOTH",
"34 655 OFFCURVE",
"50 651 OFFCURVE",
"76 649 CURVE SMOOTH",
"116 646 OFFCURVE",
"124 646 OFFCURVE",
"139 636 CURVE SMOOTH",
"165 619 OFFCURVE",
"178 590 OFFCURVE",
"189 543 CURVE SMOOTH",
"203 484 OFFCURVE",
"235 436 OFFCURVE",
"262 407 CURVE SMOOTH",
"301 367 OFFCURVE",
"349 355 OFFCURVE",
"418 346 CURVE SMOOTH",
"442 343 OFFCURVE",
"482 340 OFFCURVE",
"502 340 CURVE SMOOTH",
"505 340 OFFCURVE",
"513 340 OFFCURVE",
"514 341 CURVE SMOOTH",
"515 342 OFFCURVE",
"539 388 OFFCURVE",
"544 395 CURVE SMOOTH",
"551 405 OFFCURVE",
"545 403 OFFCURVE",
"584 404 CURVE SMOOTH",
"629 405 OFFCURVE",
"654 405 OFFCURVE",
"656 403 CURVE SMOOTH",
"659 400 OFFCURVE",
"650 378 OFFCURVE",
"648 374 CURVE SMOOTH",
"640 358 OFFCURVE",
"634 343 OFFCURVE",
"634 341 CURVE SMOOTH",
"634 338 OFFCURVE",
"653 335 OFFCURVE",
"800 335 CURVE SMOOTH",
"844 335 OFFCURVE",
"924 337 OFFCURVE",
"932 333 CURVE SMOOTH",
"934 332 OFFCURVE",
"928 321 OFFCURVE",
"922 316 CURVE SMOOTH",
"908 304 OFFCURVE",
"881 301 OFFCURVE",
"836 298 CURVE SMOOTH",
"780 294 OFFCURVE",
"664 290 OFFCURVE",
"622 290 CURVE SMOOTH",
"619 290 OFFCURVE",
"613 290 OFFCURVE",
"613 289 CURVE SMOOTH",
"613 288 OFFCURVE",
"592 261 OFFCURVE",
"582 253 CURVE SMOOTH",
"561 236 OFFCURVE",
"547 235 OFFCURVE",
"499 235 CURVE SMOOTH",
"480 235 OFFCURVE",
"463 235 OFFCURVE",
"462 235 CURVE SMOOTH"
);
}
);
width = 1166;
},
{
layerId = "99B43F0D-E5AD-4461-80B0-7E1D7FD75A43";
paths = (
{
closed = 1;
nodes = (
"466 -85 OFFCURVE",
"366 -49 CURVE SMOOTH",
"206 8 OFFCURVE",
"109 54 OFFCURVE",
"71 94 CURVE SMOOTH",
"39 128 OFFCURVE",
"44 152 OFFCURVE",
"90 160 CURVE SMOOTH",
"131 167 OFFCURVE",
"334 163 OFFCURVE",
"364 138 CURVE SMOOTH",
"371 132 OFFCURVE",
"372 126 OFFCURVE",
"365 119 CURVE SMOOTH",
"363 117 OFFCURVE",
"357 117 OFFCURVE",
"332 115 CURVE SMOOTH",
"302 113 OFFCURVE",
"287 111 OFFCURVE",
"286 107 CURVE SMOOTH",
"276 67 OFFCURVE",
"437 -3 OFFCURVE",
"525 -27 CURVE SMOOTH",
"704 -72 OFFCURVE",
"958 -83 OFFCURVE",
"958 28 CURVE SMOOTH",
"958 68 OFFCURVE",
"934 100 OFFCURVE",
"890 122 CURVE SMOOTH",
"823 156 OFFCURVE",
"884 161 OFFCURVE",
"962 161 CURVE SMOOTH",
"1067 161 OFFCURVE",
"1155 135 OFFCURVE",
"1133 26 CURVE SMOOTH",
"1112 -79 OFFCURVE",
"950 -114 OFFCURVE",
"775 -111 CURVE SMOOTH",
"654 -111 OFFCURVE"
);
},
{
closed = 1;
nodes = (
"458 235 OFFCURVE",
"457 240 OFFCURVE",
"457 244 CURVE SMOOTH",
"457 248 OFFCURVE",
"487 288 OFFCURVE",
"487 292 CURVE SMOOTH",
"487 293 OFFCURVE",
"478 293 OFFCURVE",
"458 293 CURVE SMOOTH",
"415 293 OFFCURVE",
"331 302 OFFCURVE",
"295 310 CURVE SMOOTH",
"239 322 OFFCURVE",
"194 341 OFFCURVE",
"157 371 CURVE SMOOTH",
"125 397 OFFCURVE",
"110 420 OFFCURVE",
"89 465 CURVE SMOOTH",
"72 502 OFFCURVE",
"25 644 OFFCURVE",
"30 650 CURVE SMOOTH",
"34 655 OFFCURVE",
"50 651 OFFCURVE",
"76 649 CURVE SMOOTH",
"116 646 OFFCURVE",
"124 646 OFFCURVE",
"139 636 CURVE SMOOTH",
"165 619 OFFCURVE",
"178 590 OFFCURVE",
"189 543 CURVE SMOOTH",
"203 484 OFFCURVE",
"235 436 OFFCURVE",
"262 407 CURVE SMOOTH",
"301 367 OFFCURVE",
"349 355 OFFCURVE",
"418 346 CURVE SMOOTH",
"442 343 OFFCURVE",
"482 340 OFFCURVE",
"502 340 CURVE SMOOTH",
"505 340 OFFCURVE",
"513 340 OFFCURVE",
"514 341 CURVE SMOOTH",
"515 342 OFFCURVE",
"539 388 OFFCURVE",
"544 395 CURVE SMOOTH",
"551 405 OFFCURVE",
"545 403 OFFCURVE",
"584 404 CURVE SMOOTH",
"629 405 OFFCURVE",
"654 405 OFFCURVE",
"656 403 CURVE SMOOTH",
"659 400 OFFCURVE",
"650 378 OFFCURVE",
"648 374 CURVE SMOOTH",
"640 358 OFFCURVE",
"634 343 OFFCURVE",
"634 341 CURVE SMOOTH",
"634 338 OFFCURVE",
"653 335 OFFCURVE",
"800 335 CURVE SMOOTH",
"844 335 OFFCURVE",
"924 337 OFFCURVE",
"932 333 CURVE SMOOTH",
"934 332 OFFCURVE",
"928 321 OFFCURVE",
"922 316 CURVE SMOOTH",
"908 304 OFFCURVE",
"881 301 OFFCURVE",
"836 298 CURVE SMOOTH",
"780 294 OFFCURVE",
"664 290 OFFCURVE",
"622 290 CURVE SMOOTH",
"619 290 OFFCURVE",
"613 290 OFFCURVE",
"613 289 CURVE SMOOTH",
"613 288 OFFCURVE",
"592 261 OFFCURVE",
"582 253 CURVE SMOOTH",
"561 236 OFFCURVE",
"547 235 OFFCURVE",
"499 235 CURVE SMOOTH",
"480 235 OFFCURVE",
"463 235 OFFCURVE",
"462 235 CURVE SMOOTH"
);
}
);
width = 1166;
}
);
unicode = 0052;
},
{
glyphname = S;
lastChange = "2019-02-20 04:49:48 +0000";
layers = (
{
layerId = "A365CA76-4FD1-4CBB-A2E4-19DAF29CA71F";
paths = (
{
closed = 1;
nodes = (
"-475 -272 OFFCURVE",
"-562 -233 CURVE SMOOTH",
"-591 -220 OFFCURVE",
"-612 -205 OFFCURVE",
"-612 -196 CURVE SMOOTH",
"-612 -193 OFFCURVE",
"-603 -190 OFFCURVE",
"-596 -190 CURVE SMOOTH",
"-591 -190 OFFCURVE",
"-584 -192 OFFCURVE",
"-565 -201 CURVE SMOOTH",
"-498 -235 OFFCURVE",
"-439 -253 OFFCURVE",
"-379 -253 CURVE SMOOTH",
"-351 -253 OFFCURVE",
"-321 -253 OFFCURVE",
"-317 -237 CURVE SMOOTH",
"-316 -234 OFFCURVE",
"-319 -230 OFFCURVE",
"-329 -219 CURVE SMOOTH",
"-345 -201 OFFCURVE",
"-345 -199 OFFCURVE",
"-336 -193 CURVE SMOOTH",
"-331 -190 OFFCURVE",
"-328 -189 OFFCURVE",
"-314 -190 CURVE SMOOTH",
"-286 -192 OFFCURVE",
"-260 -201 OFFCURVE",
"-238 -218 CURVE SMOOTH",
"-227 -227 OFFCURVE",
"-220 -240 OFFCURVE",
"-234 -259 CURVE SMOOTH",
"-242 -271 OFFCURVE",
"-267 -282 OFFCURVE",
"-297 -287 CURVE SMOOTH",
"-373 -299 OFFCURVE"
);
}
);
width = 0;
},
{
layerId = "99B43F0D-E5AD-4461-80B0-7E1D7FD75A43";
paths = (
{
closed = 1;
nodes = (
"-475 -272 OFFCURVE",
"-562 -233 CURVE SMOOTH",
"-591 -220 OFFCURVE",
"-612 -205 OFFCURVE",
"-612 -196 CURVE SMOOTH",
"-612 -193 OFFCURVE",
"-603 -190 OFFCURVE",
"-596 -190 CURVE SMOOTH",
"-591 -190 OFFCURVE",
"-584 -192 OFFCURVE",
"-565 -201 CURVE SMOOTH",
"-498 -235 OFFCURVE",
"-439 -253 OFFCURVE",
"-379 -253 CURVE SMOOTH",
"-351 -253 OFFCURVE",
"-321 -253 OFFCURVE",
"-317 -237 CURVE SMOOTH",
"-316 -234 OFFCURVE",
"-319 -230 OFFCURVE",
"-329 -219 CURVE SMOOTH",
"-345 -201 OFFCURVE",
"-345 -199 OFFCURVE",
"-336 -193 CURVE SMOOTH",
"-331 -190 OFFCURVE",
"-328 -189 OFFCURVE",
"-314 -190 CURVE SMOOTH",
"-286 -192 OFFCURVE",
"-260 -201 OFFCURVE",
"-238 -218 CURVE SMOOTH",
"-227 -227 OFFCURVE",
"-220 -240 OFFCURVE",
"-234 -259 CURVE SMOOTH",
"-242 -271 OFFCURVE",
"-267 -282 OFFCURVE",
"-297 -287 CURVE SMOOTH",
"-373 -299 OFFCURVE"
);
}
);
width = 0;
}
);
unicode = 0053;
},
{
glyphname = T;
lastChange = "2019-02-20 04:49:48 +0000";
layers = (
{
layerId = "A365CA76-4FD1-4CBB-A2E4-19DAF29CA71F";
paths = (
{
closed = 1;
nodes = (
"598 -106 OFFCURVE",
"428 -85 OFFCURVE",
"337 -52 CURVE SMOOTH",
"192 1 OFFCURVE",
"104 41 OFFCURVE",
"70 78 CURVE SMOOTH",
"41 109 OFFCURVE",
"45 130 OFFCURVE",
"87 138 CURVE SMOOTH",
"124 145 OFFCURVE",
"309 141 OFFCURVE",
"335 118 CURVE SMOOTH",
"342 112 OFFCURVE",
"343 107 OFFCURVE",
"336 100 CURVE SMOOTH",
"334 98 OFFCURVE",
"329 99 OFFCURVE",
"306 97 CURVE SMOOTH",
"279 95 OFFCURVE",
"265 93 OFFCURVE",
"265 89 CURVE SMOOTH",
"265 52 OFFCURVE",
"402 -10 OFFCURVE",
"481 -32 CURVE SMOOTH",
"643 -77 OFFCURVE",
"874 -83 OFFCURVE",
"874 18 CURVE SMOOTH",
"874 54 OFFCURVE",
"852 83 OFFCURVE",
"812 103 CURVE SMOOTH",
"752 133 OFFCURVE",
"807 138 OFFCURVE",
"878 138 CURVE SMOOTH",
"973 138 OFFCURVE",
"1053 115 OFFCURVE",
"1033 16 CURVE SMOOTH",
"1014 -79 OFFCURVE",
"867 -111 OFFCURVE",
"708 -108 CURVE SMOOTH"
);
},
{
closed = 1;
nodes = (
"496 127 OFFCURVE",
"473 125 OFFCURVE",
"473 138 CURVE SMOOTH",
"473 148 OFFCURVE",
"497 162 OFFCURVE",
"510 177 CURVE SMOOTH",
"532 202 OFFCURVE",
"502 235 OFFCURVE",
"439 257 CURVE SMOOTH",
"377 281 OFFCURVE",
"261 302 OFFCURVE",
"182 306 CURVE SMOOTH",
"137 309 OFFCURVE",
"59 314 OFFCURVE",
"52 317 CURVE SMOOTH",
"44 320 OFFCURVE",
"42 325 OFFCURVE",
"44 330 CURVE SMOOTH",
"54 343 OFFCURVE",
"103 353 OFFCURVE",
"174 356 CURVE SMOOTH",
"268 362 OFFCURVE",
"375 343 OFFCURVE",
"491 314 CURVE SMOOTH",
"615 284 OFFCURVE",
"694 238 OFFCURVE",
"706 177 CURVE SMOOTH",
"710 154 OFFCURVE",
"707 130 OFFCURVE",
"691 118 CURVE SMOOTH",
"669 100 OFFCURVE",
"652 99 OFFCURVE",
"550 116 CURVE SMOOTH"
);
},
{
closed = 1;
nodes = (
"458 415 OFFCURVE",
"457 420 OFFCURVE",
"457 424 CURVE SMOOTH",
"457 428 OFFCURVE",
"487 468 OFFCURVE",
"487 472 CURVE SMOOTH",
"487 473 OFFCURVE",
"478 473 OFFCURVE",
"458 473 CURVE SMOOTH",
"415 473 OFFCURVE",
"331 482 OFFCURVE",
"295 490 CURVE SMOOTH",
"239 502 OFFCURVE",
"194 521 OFFCURVE",
"157 551 CURVE SMOOTH",
"125 577 OFFCURVE",
"110 600 OFFCURVE",
"89 645 CURVE SMOOTH",
"72 682 OFFCURVE",
"25 824 OFFCURVE",
"30 830 CURVE SMOOTH",
"34 835 OFFCURVE",
"50 831 OFFCURVE",
"76 829 CURVE SMOOTH",
"116 826 OFFCURVE",
"124 826 OFFCURVE",
"139 816 CURVE SMOOTH",
"165 799 OFFCURVE",
"178 770 OFFCURVE",
"189 723 CURVE SMOOTH",
"203 664 OFFCURVE",
"235 616 OFFCURVE",
"262 587 CURVE SMOOTH",
"300 546 OFFCURVE",
"349 535 OFFCURVE",
"418 526 CURVE SMOOTH",
"442 523 OFFCURVE",
"482 520 OFFCURVE",
"502 520 CURVE SMOOTH",
"505 520 OFFCURVE",
"513 520 OFFCURVE",
"514 521 CURVE SMOOTH",
"515 522 OFFCURVE",
"539 568 OFFCURVE",
"544 575 CURVE SMOOTH",
"551 585 OFFCURVE",
"545 583 OFFCURVE",
"584 584 CURVE SMOOTH",
"629 585 OFFCURVE",
"654 585 OFFCURVE",
"656 583 CURVE SMOOTH",
"659 580 OFFCURVE",
"650 558 OFFCURVE",
"648 554 CURVE SMOOTH",
"640 538 OFFCURVE",
"634 523 OFFCURVE",
"634 521 CURVE SMOOTH",
"634 518 OFFCURVE",
"653 515 OFFCURVE",
"800 515 CURVE SMOOTH",
"844 515 OFFCURVE",
"924 517 OFFCURVE",
"932 513 CURVE SMOOTH",
"934 512 OFFCURVE",
"928 501 OFFCURVE",
"922 496 CURVE SMOOTH",
"908 484 OFFCURVE",
"881 481 OFFCURVE",
"836 478 CURVE SMOOTH",
"780 474 OFFCURVE",
"664 470 OFFCURVE",
"622 470 CURVE SMOOTH",
"619 470 OFFCURVE",
"613 470 OFFCURVE",
"613 469 CURVE SMOOTH",
"613 468 OFFCURVE",
"592 441 OFFCURVE",
"582 433 CURVE SMOOTH",
"561 416 OFFCURVE",
"547 415 OFFCURVE",
"499 415 CURVE SMOOTH",
"480 415 OFFCURVE",
"463 415 OFFCURVE",
"462 415 CURVE SMOOTH"
);
}
);
width = 1066;
},
{
layerId = "99B43F0D-E5AD-4461-80B0-7E1D7FD75A43";
paths = (
{
closed = 1;
nodes = (
"598 -106 OFFCURVE",
"428 -85 OFFCURVE",
"337 -52 CURVE SMOOTH",
"192 1 OFFCURVE",
"104 41 OFFCURVE",
"70 78 CURVE SMOOTH",
"41 109 OFFCURVE",
"45 130 OFFCURVE",
"87 138 CURVE SMOOTH",
"124 145 OFFCURVE",
"309 141 OFFCURVE",
"335 118 CURVE SMOOTH",
"342 112 OFFCURVE",
"343 107 OFFCURVE",
"336 100 CURVE SMOOTH",
"334 98 OFFCURVE",
"329 99 OFFCURVE",
"306 97 CURVE SMOOTH",
"279 95 OFFCURVE",
"265 93 OFFCURVE",
"265 89 CURVE SMOOTH",
"265 52 OFFCURVE",
"402 -10 OFFCURVE",
"481 -32 CURVE SMOOTH",
"643 -77 OFFCURVE",
"874 -83 OFFCURVE",
"874 18 CURVE SMOOTH",
"874 54 OFFCURVE",
"852 83 OFFCURVE",
"812 103 CURVE SMOOTH",
"752 133 OFFCURVE",
"807 138 OFFCURVE",
"878 138 CURVE SMOOTH",
"973 138 OFFCURVE",
"1053 115 OFFCURVE",
"1033 16 CURVE SMOOTH",
"1014 -79 OFFCURVE",
"867 -111 OFFCURVE",
"708 -108 CURVE SMOOTH"
);
},
{
closed = 1;
nodes = (
"496 127 OFFCURVE",
"473 125 OFFCURVE",
"473 138 CURVE SMOOTH",
"473 148 OFFCURVE",
"497 162 OFFCURVE",
"510 177 CURVE SMOOTH",
"532 202 OFFCURVE",
"502 235 OFFCURVE",
"439 257 CURVE SMOOTH",
"377 281 OFFCURVE",
"261 302 OFFCURVE",
"182 306 CURVE SMOOTH",
"137 309 OFFCURVE",
"59 314 OFFCURVE",
"52 317 CURVE SMOOTH",
"44 320 OFFCURVE",
"42 325 OFFCURVE",
"44 330 CURVE SMOOTH",
"54 343 OFFCURVE",
"103 353 OFFCURVE",
"174 356 CURVE SMOOTH",
"268 362 OFFCURVE",
"375 343 OFFCURVE",
"491 314 CURVE SMOOTH",
"615 284 OFFCURVE",
"694 238 OFFCURVE",
"706 177 CURVE SMOOTH",
"710 154 OFFCURVE",
"707 130 OFFCURVE",
"691 118 CURVE SMOOTH",
"669 100 OFFCURVE",
"652 99 OFFCURVE",
"550 116 CURVE SMOOTH"
);
},
{
closed = 1;
nodes = (
"458 415 OFFCURVE",
"457 420 OFFCURVE",
"457 424 CURVE SMOOTH",
"457 428 OFFCURVE",
"487 468 OFFCURVE",
"487 472 CURVE SMOOTH",
"487 473 OFFCURVE",
"478 473 OFFCURVE",
"458 473 CURVE SMOOTH",
"415 473 OFFCURVE",
"331 482 OFFCURVE",
"295 490 CURVE SMOOTH",
"239 502 OFFCURVE",
"194 521 OFFCURVE",
"157 551 CURVE SMOOTH",
"125 577 OFFCURVE",
"110 600 OFFCURVE",
"89 645 CURVE SMOOTH",
"72 682 OFFCURVE",
"25 824 OFFCURVE",
"30 830 CURVE SMOOTH",
"34 835 OFFCURVE",
"50 831 OFFCURVE",
"76 829 CURVE SMOOTH",
"116 826 OFFCURVE",
"124 826 OFFCURVE",
"139 816 CURVE SMOOTH",
"165 799 OFFCURVE",
"178 770 OFFCURVE",
"189 723 CURVE SMOOTH",
"203 664 OFFCURVE",
"235 616 OFFCURVE",
"262 587 CURVE SMOOTH",
"300 546 OFFCURVE",
"349 535 OFFCURVE",
"418 526 CURVE SMOOTH",
"442 523 OFFCURVE",
"482 520 OFFCURVE",
"502 520 CURVE SMOOTH",
"505 520 OFFCURVE",
"513 520 OFFCURVE",
"514 521 CURVE SMOOTH",
"515 522 OFFCURVE",
"539 568 OFFCURVE",
"544 575 CURVE SMOOTH",
"551 585 OFFCURVE",
"545 583 OFFCURVE",
"584 584 CURVE SMOOTH",
"629 585 OFFCURVE",
"654 585 OFFCURVE",
"656 583 CURVE SMOOTH",
"659 580 OFFCURVE",
"650 558 OFFCURVE",
"648 554 CURVE SMOOTH",
"640 538 OFFCURVE",
"634 523 OFFCURVE",
"634 521 CURVE SMOOTH",
"634 518 OFFCURVE",
"653 515 OFFCURVE",
"800 515 CURVE SMOOTH",
"844 515 OFFCURVE",
"924 517 OFFCURVE",
"932 513 CURVE SMOOTH",
"934 512 OFFCURVE",
"928 501 OFFCURVE",
"922 496 CURVE SMOOTH",
"908 484 OFFCURVE",
"881 481 OFFCURVE",
"836 478 CURVE SMOOTH",
"780 474 OFFCURVE",
"664 470 OFFCURVE",
"622 470 CURVE SMOOTH",
"619 470 OFFCURVE",
"613 470 OFFCURVE",
"613 469 CURVE SMOOTH",
"613 468 OFFCURVE",
"592 441 OFFCURVE",
"582 433 CURVE SMOOTH",
"561 416 OFFCURVE",
"547 415 OFFCURVE",
"499 415 CURVE SMOOTH",
"480 415 OFFCURVE",
"463 415 OFFCURVE",
"462 415 CURVE SMOOTH"
);
}
);
width = 1066;
}
);
unicode = 0054;
},
{
glyphname = U;
lastChange = "2019-02-20 04:49:48 +0000";
layers = (
{
layerId = "A365CA76-4FD1-4CBB-A2E4-19DAF29CA71F";
paths = (
{
closed = 1;
nodes = (
"611 -112 OFFCURVE",
"432 -90 OFFCURVE",
"337 -55 CURVE SMOOTH",
"184 1 OFFCURVE",
"92 43 OFFCURVE",
"56 81 CURVE SMOOTH",
"25 113 OFFCURVE",
"30 136 OFFCURVE",
"74 144 CURVE SMOOTH",
"113 151 OFFCURVE",
"307 147 OFFCURVE",
"335 123 CURVE SMOOTH",
"342 117 OFFCURVE",
"344 112 OFFCURVE",
"336 104 CURVE SMOOTH",
"334 102 OFFCURVE",
"328 103 OFFCURVE",
"304 101 CURVE SMOOTH",
"276 99 OFFCURVE",
"261 97 OFFCURVE",
"261 93 CURVE SMOOTH",
"261 54 OFFCURVE",
"405 -11 OFFCURVE",
"488 -34 CURVE SMOOTH",
"658 -81 OFFCURVE",
"901 -88 OFFCURVE",
"901 18 CURVE SMOOTH",
"901 56 OFFCURVE",
"877 86 OFFCURVE",
"835 107 CURVE SMOOTH",
"772 139 OFFCURVE",
"830 144 OFFCURVE",
"905 144 CURVE SMOOTH",
"1004 144 OFFCURVE",
"1088 120 OFFCURVE",
"1067 16 CURVE SMOOTH",
"1047 -84 OFFCURVE",
"893 -117 OFFCURVE",
"726 -114 CURVE SMOOTH"
);
},
{
closed = 1;
nodes = (
"579 181 OFFCURVE",
"577 182 OFFCURVE",
"591 196 CURVE SMOOTH",
"616 221 OFFCURVE",
"619 239 OFFCURVE",
"603 257 CURVE SMOOTH",
"578 286 OFFCURVE",
"517 301 OFFCURVE",
"366 326 CURVE SMOOTH",
"318 334 OFFCURVE",
"264 337 OFFCURVE",
"299 356 CURVE SMOOTH",
"354 386 OFFCURVE",
"511 367 OFFCURVE",
"608 336 CURVE SMOOTH",
"688 310 OFFCURVE",
"739 265 OFFCURVE",
"747 215 CURVE SMOOTH",
"751 190 OFFCURVE",
"743 169 OFFCURVE",
"727 161 CURVE SMOOTH",
"713 154 OFFCURVE",
"696 156 OFFCURVE",
"639 168 CURVE SMOOTH"
);
},
{
closed = 1;
nodes = (
"877 206 OFFCURVE",
"834 212 CURVE SMOOTH",
"746 224 OFFCURVE",
"809 236 OFFCURVE",
"753 305 CURVE SMOOTH",
"731 332 OFFCURVE",
"715 343 OFFCURVE",
"654 372 CURVE SMOOTH",
"558 418 OFFCURVE",
"457 441 OFFCURVE",
"361 441 CURVE SMOOTH",
"302 441 OFFCURVE",
"220 431 OFFCURVE",
"202 381 CURVE SMOOTH",
"188 343 OFFCURVE",
"220 319 OFFCURVE",
"268 288 CURVE SMOOTH",
"307 263 OFFCURVE",
"232 269 OFFCURVE",
"171 282 CURVE SMOOTH",
"114 294 OFFCURVE",
"77 299 OFFCURVE",
"44 350 CURVE SMOOTH",
"33 367 OFFCURVE",
"30 380 OFFCURVE",
"30 407 CURVE SMOOTH",
"30 521 OFFCURVE",
"243 518 OFFCURVE",
"407 493 CURVE SMOOTH",
"605 463 OFFCURVE",
"838 382 OFFCURVE",
"954 261 CURVE",
"990 226 OFFCURVE",
"993 207 OFFCURVE",
"965 201 CURVE",
"940 198 OFFCURVE"
);
},
{
closed = 1;
nodes = (
"458 565 OFFCURVE",
"457 570 OFFCURVE",
"457 574 CURVE SMOOTH",
"457 578 OFFCURVE",
"487 618 OFFCURVE",
"487 622 CURVE SMOOTH",
"487 623 OFFCURVE",
"478 623 OFFCURVE",
"458 623 CURVE SMOOTH",
"415 623 OFFCURVE",
"331 632 OFFCURVE",
"295 640 CURVE SMOOTH",
"239 652 OFFCURVE",
"194 671 OFFCURVE",
"157 701 CURVE SMOOTH",
"125 727 OFFCURVE",
"110 750 OFFCURVE",
"89 795 CURVE SMOOTH",
"72 832 OFFCURVE",
"25 974 OFFCURVE",
"30 980 CURVE SMOOTH",
"34 985 OFFCURVE",
"50 981 OFFCURVE",
"76 979 CURVE SMOOTH",
"116 976 OFFCURVE",
"124 976 OFFCURVE",
"139 966 CURVE SMOOTH",
"165 949 OFFCURVE",
"178 920 OFFCURVE",
"189 873 CURVE SMOOTH",
"203 814 OFFCURVE",
"235 766 OFFCURVE",
"262 737 CURVE SMOOTH",
"300 696 OFFCURVE",
"349 685 OFFCURVE",
"418 676 CURVE SMOOTH",
"442 673 OFFCURVE",
"482 670 OFFCURVE",
"502 670 CURVE SMOOTH",
"505 670 OFFCURVE",
"513 670 OFFCURVE",
"514 671 CURVE SMOOTH",
"515 672 OFFCURVE",
"539 718 OFFCURVE",
"544 725 CURVE SMOOTH",
"551 735 OFFCURVE",
"545 733 OFFCURVE",
"584 734 CURVE SMOOTH",
"629 735 OFFCURVE",
"654 735 OFFCURVE",
"656 733 CURVE SMOOTH",
"659 730 OFFCURVE",
"650 708 OFFCURVE",
"648 704 CURVE SMOOTH",
"640 688 OFFCURVE",
"634 673 OFFCURVE",
"634 671 CURVE SMOOTH",
"634 668 OFFCURVE",
"653 665 OFFCURVE",
"800 665 CURVE SMOOTH",
"844 665 OFFCURVE",
"924 667 OFFCURVE",
"932 663 CURVE SMOOTH",
"934 662 OFFCURVE",
"928 651 OFFCURVE",
"922 646 CURVE SMOOTH",
"908 634 OFFCURVE",
"881 631 OFFCURVE",
"836 628 CURVE SMOOTH",
"780 624 OFFCURVE",
"664 620 OFFCURVE",
"622 620 CURVE SMOOTH",
"619 620 OFFCURVE",
"613 620 OFFCURVE",
"613 619 CURVE SMOOTH",
"613 618 OFFCURVE",
"592 591 OFFCURVE",
"582 583 CURVE SMOOTH",
"561 566 OFFCURVE",
"547 565 OFFCURVE",
"499 565 CURVE SMOOTH",
"480 565 OFFCURVE",
"463 565 OFFCURVE",
"462 565 CURVE SMOOTH"
);
}
);
width = 1104;
},
{
layerId = "99B43F0D-E5AD-4461-80B0-7E1D7FD75A43";
paths = (
{
closed = 1;
nodes = (
"611 -112 OFFCURVE",
"432 -90 OFFCURVE",
"337 -55 CURVE SMOOTH",
"184 1 OFFCURVE",
"92 43 OFFCURVE",
"56 81 CURVE SMOOTH",
"25 113 OFFCURVE",
"30 136 OFFCURVE",
"74 144 CURVE SMOOTH",
"113 151 OFFCURVE",
"307 147 OFFCURVE",
"335 123 CURVE SMOOTH",
"342 117 OFFCURVE",
"344 112 OFFCURVE",
"336 104 CURVE SMOOTH",
"334 102 OFFCURVE",
"328 103 OFFCURVE",
"304 101 CURVE SMOOTH",
"276 99 OFFCURVE",
"261 97 OFFCURVE",
"261 93 CURVE SMOOTH",
"261 54 OFFCURVE",
"405 -11 OFFCURVE",
"488 -34 CURVE SMOOTH",
"658 -81 OFFCURVE",
"901 -88 OFFCURVE",
"901 18 CURVE SMOOTH",
"901 56 OFFCURVE",
"877 86 OFFCURVE",
"835 107 CURVE SMOOTH",
"772 139 OFFCURVE",
"830 144 OFFCURVE",
"905 144 CURVE SMOOTH",
"1004 144 OFFCURVE",
"1088 120 OFFCURVE",
"1067 16 CURVE SMOOTH",
"1047 -84 OFFCURVE",
"893 -117 OFFCURVE",
"726 -114 CURVE SMOOTH"
);
},
{
closed = 1;
nodes = (
"579 181 OFFCURVE",
"577 182 OFFCURVE",
"591 196 CURVE SMOOTH",
"616 221 OFFCURVE",
"619 239 OFFCURVE",
"603 257 CURVE SMOOTH",
"578 286 OFFCURVE",
"517 301 OFFCURVE",
"366 326 CURVE SMOOTH",
"318 334 OFFCURVE",
"264 337 OFFCURVE",
"299 356 CURVE SMOOTH",
"354 386 OFFCURVE",
"511 367 OFFCURVE",
"608 336 CURVE SMOOTH",
"688 310 OFFCURVE",
"739 265 OFFCURVE",
"747 215 CURVE SMOOTH",
"751 190 OFFCURVE",
"743 169 OFFCURVE",
"727 161 CURVE SMOOTH",
"713 154 OFFCURVE",
"696 156 OFFCURVE",
"639 168 CURVE SMOOTH"
);
},
{
closed = 1;
nodes = (
"877 206 OFFCURVE",
"834 212 CURVE SMOOTH",
"746 224 OFFCURVE",
"809 236 OFFCURVE",
"753 305 CURVE SMOOTH",
"731 332 OFFCURVE",
"715 343 OFFCURVE",
"654 372 CURVE SMOOTH",
"558 418 OFFCURVE",
"457 441 OFFCURVE",
"361 441 CURVE SMOOTH",
"302 441 OFFCURVE",
"220 431 OFFCURVE",
"202 381 CURVE SMOOTH",
"188 343 OFFCURVE",
"220 319 OFFCURVE",
"268 288 CURVE SMOOTH",
"307 263 OFFCURVE",
"232 269 OFFCURVE",
"171 282 CURVE SMOOTH",
"114 294 OFFCURVE",
"77 299 OFFCURVE",
"44 350 CURVE SMOOTH",
"33 367 OFFCURVE",
"30 380 OFFCURVE",
"30 407 CURVE SMOOTH",
"30 521 OFFCURVE",
"243 518 OFFCURVE",
"407 493 CURVE SMOOTH",
"605 463 OFFCURVE",
"838 382 OFFCURVE",
"954 261 CURVE",
"990 226 OFFCURVE",
"993 207 OFFCURVE",
"965 201 CURVE",
"940 198 OFFCURVE"
);
},
{
closed = 1;
nodes = (
"458 565 OFFCURVE",
"457 570 OFFCURVE",
"457 574 CURVE SMOOTH",
"457 578 OFFCURVE",
"487 618 OFFCURVE",
"487 622 CURVE SMOOTH",
"487 623 OFFCURVE",
"478 623 OFFCURVE",
"458 623 CURVE SMOOTH",
"415 623 OFFCURVE",
"331 632 OFFCURVE",
"295 640 CURVE SMOOTH",
"239 652 OFFCURVE",
"194 671 OFFCURVE",
"157 701 CURVE SMOOTH",
"125 727 OFFCURVE",
"110 750 OFFCURVE",
"89 795 CURVE SMOOTH",
"72 832 OFFCURVE",
"25 974 OFFCURVE",
"30 980 CURVE SMOOTH",
"34 985 OFFCURVE",
"50 981 OFFCURVE",
"76 979 CURVE SMOOTH",
"116 976 OFFCURVE",
"124 976 OFFCURVE",
"139 966 CURVE SMOOTH",
"165 949 OFFCURVE",
"178 920 OFFCURVE",
"189 873 CURVE SMOOTH",
"203 814 OFFCURVE",
"235 766 OFFCURVE",
"262 737 CURVE SMOOTH",
"300 696 OFFCURVE",
"349 685 OFFCURVE",
"418 676 CURVE SMOOTH",
"442 673 OFFCURVE",
"482 670 OFFCURVE",
"502 670 CURVE SMOOTH",
"505 670 OFFCURVE",
"513 670 OFFCURVE",
"514 671 CURVE SMOOTH",
"515 672 OFFCURVE",
"539 718 OFFCURVE",
"544 725 CURVE SMOOTH",
"551 735 OFFCURVE",
"545 733 OFFCURVE",
"584 734 CURVE SMOOTH",
"629 735 OFFCURVE",
"654 735 OFFCURVE",
"656 733 CURVE SMOOTH",
"659 730 OFFCURVE",
"650 708 OFFCURVE",
"648 704 CURVE SMOOTH",
"640 688 OFFCURVE",
"634 673 OFFCURVE",
"634 671 CURVE SMOOTH",
"634 668 OFFCURVE",
"653 665 OFFCURVE",
"800 665 CURVE SMOOTH",
"844 665 OFFCURVE",
"924 667 OFFCURVE",
"932 663 CURVE SMOOTH",
"934 662 OFFCURVE",
"928 651 OFFCURVE",
"922 646 CURVE SMOOTH",
"908 634 OFFCURVE",
"881 631 OFFCURVE",
"836 628 CURVE SMOOTH",
"780 624 OFFCURVE",
"664 620 OFFCURVE",
"622 620 CURVE SMOOTH",
"619 620 OFFCURVE",
"613 620 OFFCURVE",
"613 619 CURVE SMOOTH",
"613 618 OFFCURVE",
"592 591 OFFCURVE",
"582 583 CURVE SMOOTH",
"561 566 OFFCURVE",
"547 565 OFFCURVE",
"499 565 CURVE SMOOTH",
"480 565 OFFCURVE",
"463 565 OFFCURVE",
"462 565 CURVE SMOOTH"
);
}
);
width = 1104;
}
);
unicode = 0055;
},
{
glyphname = V;
lastChange = "2019-02-20 04:49:48 +0000";
layers = (
{
layerId = "A365CA76-4FD1-4CBB-A2E4-19DAF29CA71F";
paths = (
{
closed = 1;
nodes = (
"1349 204 OFFCURVE",
"1323 206 OFFCURVE",
"1302 215 CURVE SMOOTH",
"1279 225 OFFCURVE",
"1261 250 OFFCURVE",
"1247 289 CURVE SMOOTH",
"1240 309 OFFCURVE",
"1234 322 OFFCURVE",
"1224 332 CURVE SMOOTH",
"1214 342 OFFCURVE",
"1211 350 OFFCURVE",
"1214 358 CURVE SMOOTH",
"1217 367 OFFCURVE",
"1224 371 OFFCURVE",
"1238 371 CURVE SMOOTH",
"1269 371 OFFCURVE",
"1313 369 OFFCURVE",
"1319 367 CURVE SMOOTH",
"1325 365 OFFCURVE",
"1342 355 OFFCURVE",
"1349 342 CURVE SMOOTH",
"1350 340 OFFCURVE",
"1355 332 OFFCURVE",
"1361 319 CURVE SMOOTH",
"1364 313 OFFCURVE",
"1370 299 OFFCURVE",
"1377 286 CURVE SMOOTH",
"1391 261 OFFCURVE",
"1396 255 OFFCURVE",
"1413 253 CURVE SMOOTH",
"1421 252 OFFCURVE",
"1434 247 OFFCURVE",
"1434 236 CURVE SMOOTH",
"1434 228 OFFCURVE",
"1430 222 OFFCURVE",
"1411 213 CURVE SMOOTH",
"1398 207 OFFCURVE",
"1391 204 OFFCURVE",
"1371 204 CURVE SMOOTH"
);
},
{
closed = 1;
nodes = (
"1559 203 OFFCURVE",
"1533 206 OFFCURVE",
"1512 215 CURVE SMOOTH",
"1489 225 OFFCURVE",
"1471 250 OFFCURVE",
"1457 289 CURVE SMOOTH",
"1450 309 OFFCURVE",
"1444 322 OFFCURVE",
"1434 332 CURVE SMOOTH",
"1424 342 OFFCURVE",
"1421 350 OFFCURVE",
"1424 358 CURVE SMOOTH",
"1427 367 OFFCURVE",
"1434 371 OFFCURVE",
"1448 371 CURVE SMOOTH",
"1479 371 OFFCURVE",
"1523 369 OFFCURVE",
"1529 367 CURVE SMOOTH",
"1535 365 OFFCURVE",
"1553 355 OFFCURVE",
"1559 342 CURVE SMOOTH",
"1560 340 OFFCURVE",
"1565 332 OFFCURVE",
"1571 319 CURVE SMOOTH",
"1574 313 OFFCURVE",
"1580 299 OFFCURVE",
"1587 286 CURVE SMOOTH",
"1601 261 OFFCURVE",
"1606 255 OFFCURVE",
"1623 253 CURVE SMOOTH",
"1631 252 OFFCURVE",
"1644 247 OFFCURVE",
"1644 236 CURVE SMOOTH",
"1644 228 OFFCURVE",
"1639 222 OFFCURVE",
"1621 213 CURVE SMOOTH",
"1609 207 OFFCURVE",
"1601 205 OFFCURVE",
"1581 204 CURVE SMOOTH"
);
},
{
closed = 1;
nodes = (
"1127 203 OFFCURVE",
"1072 212 OFFCURVE",
"1034 218 CURVE SMOOTH",
"957 230 OFFCURVE",
"1013 239 OFFCURVE",
"963 302 CURVE SMOOTH",
"944 326 OFFCURVE",
"930 337 OFFCURVE",
"876 363 CURVE SMOOTH",
"792 404 OFFCURVE",
"704 425 OFFCURVE",
"620 425 CURVE SMOOTH",
"568 425 OFFCURVE",
"496 416 OFFCURVE",
"481 371 CURVE SMOOTH",
"470 337 OFFCURVE",
"496 315 OFFCURVE",
"538 287 CURVE SMOOTH",
"572 264 OFFCURVE",
"507 269 OFFCURVE",
"453 281 CURVE SMOOTH",
"403 292 OFFCURVE",
"372 297 OFFCURVE",
"342 343 CURVE SMOOTH",
"332 358 OFFCURVE",
"330 370 OFFCURVE",
"330 395 CURVE SMOOTH",
"330 498 OFFCURVE",
"516 495 OFFCURVE",
"660 473 CURVE SMOOTH",
"833 447 OFFCURVE",
"1037 371 OFFCURVE",
"1139 262 CURVE SMOOTH",
"1170 229 OFFCURVE",
"1173 213 OFFCURVE",
"1149 208 CURVE SMOOTH"
);
},
{
closed = 1;
nodes = (
"128 317 OFFCURVE",
"127 318 OFFCURVE",
"139 331 CURVE SMOOTH",
"162 353 OFFCURVE",
"165 370 OFFCURVE",
"150 386 CURVE SMOOTH",
"127 412 OFFCURVE",
"72 427 OFFCURVE",
"-65 449 CURVE SMOOTH",
"-108 455 OFFCURVE",
"-157 459 OFFCURVE",
"-126 476 CURVE SMOOTH",
"-75 502 OFFCURVE",
"67 486 OFFCURVE",
"155 458 CURVE SMOOTH",
"227 433 OFFCURVE",
"274 393 OFFCURVE",
"281 348 CURVE SMOOTH",
"284 325 OFFCURVE",
"277 306 OFFCURVE",
"263 299 CURVE SMOOTH",
"250 293 OFFCURVE",
"234 295 OFFCURVE",
"183 305 CURVE SMOOTH"
);
},
{
closed = 1;
nodes = (
"1512 18 OFFCURVE",
"1374 22 OFFCURVE",
"1245 16 CURVE SMOOTH",
"1128 11 OFFCURVE",
"1068 12 OFFCURVE",
"906 6 CURVE SMOOTH",
"778 1 OFFCURVE",
"737 5 OFFCURVE",
"703 6 CURVE SMOOTH",
"573 10 OFFCURVE",
"483 23 OFFCURVE",
"447 31 CURVE SMOOTH",
"424 36 OFFCURVE",
"392 54 OFFCURVE",
"359 80 CURVE SMOOTH",
"337 97 OFFCURVE",
"327 120 OFFCURVE",
"343 120 CURVE SMOOTH",
"345 120 OFFCURVE",
"362 117 OFFCURVE",
"378 114 CURVE SMOOTH",
"446 101 OFFCURVE",
"461 101 OFFCURVE",
"615 99 CURVE SMOOTH",
"696 98 OFFCURVE",
"834 99 OFFCURVE",
"934 101 CURVE SMOOTH",
"1028 103 OFFCURVE",
"1178 104 OFFCURVE",
"1265 104 CURVE SMOOTH",
"1408 104 OFFCURVE",
"1427 104 OFFCURVE",
"1450 100 CURVE SMOOTH",
"1516 89 OFFCURVE",
"1611 60 OFFCURVE",
"1662 34 CURVE SMOOTH",
"1680 25 OFFCURVE",
"1691 10 OFFCURVE",
"1687 1 CURVE SMOOTH",
"1684 -5 OFFCURVE",
"1674 -4 OFFCURVE",
"1637 1 CURVE SMOOTH"
);
}
);
width = 1718;
},
{
layerId = "99B43F0D-E5AD-4461-80B0-7E1D7FD75A43";
paths = (
{
closed = 1;
nodes = (
"1349 204 OFFCURVE",
"1323 206 OFFCURVE",
"1302 215 CURVE SMOOTH",
"1279 225 OFFCURVE",
"1261 250 OFFCURVE",
"1247 289 CURVE SMOOTH",
"1240 309 OFFCURVE",
"1234 322 OFFCURVE",
"1224 332 CURVE SMOOTH",
"1214 342 OFFCURVE",
"1211 350 OFFCURVE",
"1214 358 CURVE SMOOTH",
"1217 367 OFFCURVE",
"1224 371 OFFCURVE",
"1238 371 CURVE SMOOTH",
"1269 371 OFFCURVE",
"1313 369 OFFCURVE",
"1319 367 CURVE SMOOTH",
"1325 365 OFFCURVE",
"1342 355 OFFCURVE",
"1349 342 CURVE SMOOTH",
"1350 340 OFFCURVE",
"1355 332 OFFCURVE",
"1361 319 CURVE SMOOTH",
"1364 313 OFFCURVE",
"1370 299 OFFCURVE",
"1377 286 CURVE SMOOTH",
"1391 261 OFFCURVE",
"1396 255 OFFCURVE",
"1413 253 CURVE SMOOTH",
"1421 252 OFFCURVE",
"1434 247 OFFCURVE",
"1434 236 CURVE SMOOTH",
"1434 228 OFFCURVE",
"1430 222 OFFCURVE",
"1411 213 CURVE SMOOTH",
"1398 207 OFFCURVE",
"1391 204 OFFCURVE",
"1371 204 CURVE SMOOTH"
);
},
{
closed = 1;
nodes = (
"1559 203 OFFCURVE",
"1533 206 OFFCURVE",
"1512 215 CURVE SMOOTH",
"1489 225 OFFCURVE",
"1471 250 OFFCURVE",
"1457 289 CURVE SMOOTH",
"1450 309 OFFCURVE",
"1444 322 OFFCURVE",
"1434 332 CURVE SMOOTH",
"1424 342 OFFCURVE",
"1421 350 OFFCURVE",
"1424 358 CURVE SMOOTH",
"1427 367 OFFCURVE",
"1434 371 OFFCURVE",
"1448 371 CURVE SMOOTH",
"1479 371 OFFCURVE",
"1523 369 OFFCURVE",
"1529 367 CURVE SMOOTH",
"1535 365 OFFCURVE",
"1553 355 OFFCURVE",
"1559 342 CURVE SMOOTH",
"1560 340 OFFCURVE",
"1565 332 OFFCURVE",
"1571 319 CURVE SMOOTH",
"1574 313 OFFCURVE",
"1580 299 OFFCURVE",
"1587 286 CURVE SMOOTH",
"1601 261 OFFCURVE",
"1606 255 OFFCURVE",
"1623 253 CURVE SMOOTH",
"1631 252 OFFCURVE",
"1644 247 OFFCURVE",
"1644 236 CURVE SMOOTH",
"1644 228 OFFCURVE",
"1639 222 OFFCURVE",
"1621 213 CURVE SMOOTH",
"1609 207 OFFCURVE",
"1601 205 OFFCURVE",
"1581 204 CURVE SMOOTH"
);
},
{
closed = 1;
nodes = (
"1127 203 OFFCURVE",
"1072 212 OFFCURVE",
"1034 218 CURVE SMOOTH",
"957 230 OFFCURVE",
"1013 239 OFFCURVE",
"963 302 CURVE SMOOTH",
"944 326 OFFCURVE",
"930 337 OFFCURVE",
"876 363 CURVE SMOOTH",
"792 404 OFFCURVE",
"704 425 OFFCURVE",
"620 425 CURVE SMOOTH",
"568 425 OFFCURVE",
"496 416 OFFCURVE",
"481 371 CURVE SMOOTH",
"470 337 OFFCURVE",
"496 315 OFFCURVE",
"538 287 CURVE SMOOTH",
"572 264 OFFCURVE",
"507 269 OFFCURVE",
"453 281 CURVE SMOOTH",
"403 292 OFFCURVE",
"372 297 OFFCURVE",
"342 343 CURVE SMOOTH",
"332 358 OFFCURVE",
"330 370 OFFCURVE",
"330 395 CURVE SMOOTH",
"330 498 OFFCURVE",
"516 495 OFFCURVE",
"660 473 CURVE SMOOTH",
"833 447 OFFCURVE",
"1037 371 OFFCURVE",
"1139 262 CURVE SMOOTH",
"1170 229 OFFCURVE",
"1173 213 OFFCURVE",
"1149 208 CURVE SMOOTH"
);
},
{
closed = 1;
nodes = (
"128 317 OFFCURVE",
"127 318 OFFCURVE",
"139 331 CURVE SMOOTH",
"162 353 OFFCURVE",
"165 370 OFFCURVE",
"150 386 CURVE SMOOTH",
"127 412 OFFCURVE",
"72 427 OFFCURVE",
"-65 449 CURVE SMOOTH",
"-108 455 OFFCURVE",
"-157 459 OFFCURVE",
"-126 476 CURVE SMOOTH",
"-75 502 OFFCURVE",
"67 486 OFFCURVE",
"155 458 CURVE SMOOTH",
"227 433 OFFCURVE",
"274 393 OFFCURVE",
"281 348 CURVE SMOOTH",
"284 325 OFFCURVE",
"277 306 OFFCURVE",
"263 299 CURVE SMOOTH",
"250 293 OFFCURVE",
"234 295 OFFCURVE",
"183 305 CURVE SMOOTH"
);
},
{
closed = 1;
nodes = (
"1512 18 OFFCURVE",
"1374 22 OFFCURVE",
"1245 16 CURVE SMOOTH",
"1128 11 OFFCURVE",
"1068 12 OFFCURVE",
"906 6 CURVE SMOOTH",
"778 1 OFFCURVE",
"737 5 OFFCURVE",
"703 6 CURVE SMOOTH",
"573 10 OFFCURVE",
"483 23 OFFCURVE",
"447 31 CURVE SMOOTH",
"424 36 OFFCURVE",
"392 54 OFFCURVE",
"359 80 CURVE SMOOTH",
"337 97 OFFCURVE",
"327 120 OFFCURVE",
"343 120 CURVE SMOOTH",
"345 120 OFFCURVE",
"362 117 OFFCURVE",
"378 114 CURVE SMOOTH",
"446 101 OFFCURVE",
"461 101 OFFCURVE",
"615 99 CURVE SMOOTH",
"696 98 OFFCURVE",
"834 99 OFFCURVE",
"934 101 CURVE SMOOTH",
"1028 103 OFFCURVE",
"1178 104 OFFCURVE",
"1265 104 CURVE SMOOTH",
"1408 104 OFFCURVE",
"1427 104 OFFCURVE",
"1450 100 CURVE SMOOTH",
"1516 89 OFFCURVE",
"1611 60 OFFCURVE",
"1662 34 CURVE SMOOTH",
"1680 25 OFFCURVE",
"1691 10 OFFCURVE",
"1687 1 CURVE SMOOTH",
"1684 -5 OFFCURVE",
"1674 -4 OFFCURVE",
"1637 1 CURVE SMOOTH"
);
}
);
width = 1718;
}
);
unicode = 0056;
},
{
glyphname = W;
lastChange = "2019-02-20 04:49:48 +0000";
layers = (
{
layerId = "A365CA76-4FD1-4CBB-A2E4-19DAF29CA71F";
paths = (
{
closed = 1;
nodes = (
"986 188 OFFCURVE",
"920 199 OFFCURVE",
"874 205 CURVE SMOOTH",
"782 217 OFFCURVE",
"849 230 OFFCURVE",
"789 303 CURVE SMOOTH",
"766 331 OFFCURVE",
"749 342 OFFCURVE",
"685 373 CURVE SMOOTH",
"584 422 OFFCURVE",
"479 445 OFFCURVE",
"378 445 CURVE SMOOTH",
"316 445 OFFCURVE",
"230 435 OFFCURVE",
"211 382 CURVE SMOOTH",
"197 342 OFFCURVE",
"230 317 OFFCURVE",
"280 285 CURVE SMOOTH",
"321 259 OFFCURVE",
"242 265 OFFCURVE",
"178 278 CURVE SMOOTH",
"118 290 OFFCURVE",
"81 296 OFFCURVE",
"45 350 CURVE SMOOTH",
"33 368 OFFCURVE",
"30 381 OFFCURVE",
"30 410 CURVE SMOOTH",
"30 529 OFFCURVE",
"254 526 OFFCURVE",
"426 500 CURVE SMOOTH",
"634 469 OFFCURVE",
"879 384 OFFCURVE",
"1000 256 CURVE SMOOTH",
"1036 218 OFFCURVE",
"1041 199 OFFCURVE",
"1012 193 CURVE SMOOTH"
);
},
{
closed = 1;
nodes = (
"442 -80 OFFCURVE",
"347 -45 CURVE SMOOTH",
"195 11 OFFCURVE",
"102 53 OFFCURVE",
"66 91 CURVE SMOOTH",
"35 123 OFFCURVE",
"40 146 OFFCURVE",
"84 154 CURVE SMOOTH",
"123 161 OFFCURVE",
"317 157 OFFCURVE",
"345 133 CURVE SMOOTH",
"352 127 OFFCURVE",
"353 122 OFFCURVE",
"346 115 CURVE SMOOTH",
"344 113 OFFCURVE",
"338 113 OFFCURVE",
"314 111 CURVE SMOOTH",
"286 109 OFFCURVE",
"272 107 OFFCURVE",
"271 103 CURVE SMOOTH",
"261 65 OFFCURVE",
"414 -2 OFFCURVE",
"498 -24 CURVE SMOOTH",
"669 -69 OFFCURVE",
"911 -78 OFFCURVE",
"911 28 CURVE SMOOTH",
"911 66 OFFCURVE",
"888 96 OFFCURVE",
"846 117 CURVE SMOOTH",
"782 149 OFFCURVE",
"840 155 OFFCURVE",
"914 155 CURVE SMOOTH",
"1014 155 OFFCURVE",
"1098 130 OFFCURVE",
"1077 26 CURVE SMOOTH",
"1057 -74 OFFCURVE",
"903 -107 OFFCURVE",
"736 -104 CURVE SMOOTH",
"621 -102 OFFCURVE"
);
}
);
width = 1110;
},
{
layerId = "99B43F0D-E5AD-4461-80B0-7E1D7FD75A43";
paths = (
{
closed = 1;
nodes = (
"986 188 OFFCURVE",
"920 199 OFFCURVE",
"874 205 CURVE SMOOTH",
"782 217 OFFCURVE",
"849 230 OFFCURVE",
"789 303 CURVE SMOOTH",
"766 331 OFFCURVE",
"749 342 OFFCURVE",
"685 373 CURVE SMOOTH",
"584 422 OFFCURVE",
"479 445 OFFCURVE",
"378 445 CURVE SMOOTH",
"316 445 OFFCURVE",
"230 435 OFFCURVE",
"211 382 CURVE SMOOTH",
"197 342 OFFCURVE",
"230 317 OFFCURVE",
"280 285 CURVE SMOOTH",
"321 259 OFFCURVE",
"242 265 OFFCURVE",
"178 278 CURVE SMOOTH",
"118 290 OFFCURVE",
"81 296 OFFCURVE",
"45 350 CURVE SMOOTH",
"33 368 OFFCURVE",
"30 381 OFFCURVE",
"30 410 CURVE SMOOTH",
"30 529 OFFCURVE",
"254 526 OFFCURVE",
"426 500 CURVE SMOOTH",
"634 469 OFFCURVE",
"879 384 OFFCURVE",
"1000 256 CURVE SMOOTH",
"1036 218 OFFCURVE",
"1041 199 OFFCURVE",
"1012 193 CURVE SMOOTH"
);
},
{
closed = 1;
nodes = (
"442 -80 OFFCURVE",
"347 -45 CURVE SMOOTH",
"195 11 OFFCURVE",
"102 53 OFFCURVE",
"66 91 CURVE SMOOTH",
"35 123 OFFCURVE",
"40 146 OFFCURVE",
"84 154 CURVE SMOOTH",
"123 161 OFFCURVE",
"317 157 OFFCURVE",
"345 133 CURVE SMOOTH",
"352 127 OFFCURVE",
"353 122 OFFCURVE",
"346 115 CURVE SMOOTH",
"344 113 OFFCURVE",
"338 113 OFFCURVE",
"314 111 CURVE SMOOTH",
"286 109 OFFCURVE",
"272 107 OFFCURVE",
"271 103 CURVE SMOOTH",
"261 65 OFFCURVE",
"414 -2 OFFCURVE",
"498 -24 CURVE SMOOTH",
"669 -69 OFFCURVE",
"911 -78 OFFCURVE",
"911 28 CURVE SMOOTH",
"911 66 OFFCURVE",
"888 96 OFFCURVE",
"846 117 CURVE SMOOTH",
"782 149 OFFCURVE",
"840 155 OFFCURVE",
"914 155 CURVE SMOOTH",
"1014 155 OFFCURVE",
"1098 130 OFFCURVE",
"1077 26 CURVE SMOOTH",
"1057 -74 OFFCURVE",
"903 -107 OFFCURVE",
"736 -104 CURVE SMOOTH",
"621 -102 OFFCURVE"
);
}
);
width = 1110;
}
);
unicode = 0057;
},
{
glyphname = X;
lastChange = "2019-02-20 04:49:48 +0000";
layers = (
{
layerId = "A365CA76-4FD1-4CBB-A2E4-19DAF29CA71F";
paths = (
{
closed = 1;
nodes = (
"1013 204 OFFCURVE",
"987 206 OFFCURVE",
"966 215 CURVE SMOOTH",
"943 225 OFFCURVE",
"925 250 OFFCURVE",
"911 289 CURVE SMOOTH",
"904 309 OFFCURVE",
"898 322 OFFCURVE",
"888 332 CURVE SMOOTH",
"878 342 OFFCURVE",
"875 350 OFFCURVE",
"878 358 CURVE SMOOTH",
"881 367 OFFCURVE",
"888 371 OFFCURVE",
"902 371 CURVE SMOOTH",
"933 371 OFFCURVE",
"977 369 OFFCURVE",
"983 367 CURVE SMOOTH",
"989 365 OFFCURVE",
"1006 355 OFFCURVE",
"1013 342 CURVE SMOOTH",
"1014 340 OFFCURVE",
"1019 332 OFFCURVE",
"1025 319 CURVE SMOOTH",
"1028 313 OFFCURVE",
"1034 299 OFFCURVE",
"1041 286 CURVE SMOOTH",
"1055 261 OFFCURVE",
"1060 255 OFFCURVE",
"1077 253 CURVE SMOOTH",
"1085 252 OFFCURVE",
"1098 247 OFFCURVE",
"1098 236 CURVE SMOOTH",
"1098 228 OFFCURVE",
"1094 222 OFFCURVE",
"1075 213 CURVE SMOOTH",
"1062 207 OFFCURVE",
"1055 204 OFFCURVE",
"1035 204 CURVE SMOOTH"
);
},
{
closed = 1;
nodes = (
"1223 203 OFFCURVE",
"1197 206 OFFCURVE",
"1176 215 CURVE SMOOTH",
"1153 225 OFFCURVE",
"1135 250 OFFCURVE",
"1121 289 CURVE SMOOTH",
"1114 309 OFFCURVE",
"1108 322 OFFCURVE",
"1098 332 CURVE SMOOTH",
"1088 342 OFFCURVE",
"1085 350 OFFCURVE",
"1088 358 CURVE SMOOTH",
"1091 367 OFFCURVE",
"1098 371 OFFCURVE",
"1112 371 CURVE SMOOTH",
"1143 371 OFFCURVE",
"1187 369 OFFCURVE",
"1193 367 CURVE SMOOTH",
"1199 365 OFFCURVE",
"1217 355 OFFCURVE",
"1223 342 CURVE SMOOTH",
"1224 340 OFFCURVE",
"1229 332 OFFCURVE",
"1235 319 CURVE SMOOTH",
"1238 313 OFFCURVE",
"1244 299 OFFCURVE",
"1251 286 CURVE SMOOTH",
"1265 261 OFFCURVE",
"1270 255 OFFCURVE",
"1287 253 CURVE SMOOTH",
"1295 252 OFFCURVE",
"1308 247 OFFCURVE",
"1308 236 CURVE SMOOTH",
"1308 228 OFFCURVE",
"1303 222 OFFCURVE",
"1285 213 CURVE SMOOTH",
"1273 207 OFFCURVE",
"1265 205 OFFCURVE",
"1245 204 CURVE SMOOTH"
);
},
{
closed = 1;
nodes = (
"482 217 OFFCURVE",
"459 215 OFFCURVE",
"459 228 CURVE SMOOTH",
"459 238 OFFCURVE",
"483 252 OFFCURVE",
"496 267 CURVE SMOOTH",
"518 292 OFFCURVE",
"488 325 OFFCURVE",
"425 347 CURVE SMOOTH",
"363 371 OFFCURVE",
"247 392 OFFCURVE",
"168 396 CURVE SMOOTH",
"123 399 OFFCURVE",
"45 404 OFFCURVE",
"38 407 CURVE SMOOTH",
"30 410 OFFCURVE",
"28 415 OFFCURVE",
"30 420 CURVE SMOOTH",
"39 433 OFFCURVE",
"89 443 OFFCURVE",
"160 446 CURVE SMOOTH",
"254 452 OFFCURVE",
"361 433 OFFCURVE",
"477 404 CURVE SMOOTH",
"601 374 OFFCURVE",
"680 328 OFFCURVE",
"692 267 CURVE SMOOTH",
"696 244 OFFCURVE",
"693 220 OFFCURVE",
"677 208 CURVE SMOOTH",
"655 190 OFFCURVE",
"638 189 OFFCURVE",
"536 206 CURVE SMOOTH"
);
},
{
closed = 1;
nodes = (
"1236 18 OFFCURVE",
"1098 22 OFFCURVE",
"969 16 CURVE SMOOTH",
"852 11 OFFCURVE",
"792 12 OFFCURVE",
"630 6 CURVE SMOOTH",
"502 1 OFFCURVE",
"461 5 OFFCURVE",
"427 6 CURVE SMOOTH",
"297 10 OFFCURVE",
"207 23 OFFCURVE",
"171 31 CURVE SMOOTH",
"148 36 OFFCURVE",
"116 54 OFFCURVE",
"83 80 CURVE SMOOTH",
"61 97 OFFCURVE",
"51 120 OFFCURVE",
"67 120 CURVE SMOOTH",
"69 120 OFFCURVE",
"86 117 OFFCURVE",
"102 114 CURVE SMOOTH",
"170 101 OFFCURVE",
"185 101 OFFCURVE",
"339 99 CURVE SMOOTH",
"420 98 OFFCURVE",
"558 99 OFFCURVE",
"658 101 CURVE SMOOTH",
"752 103 OFFCURVE",
"902 104 OFFCURVE",
"989 104 CURVE SMOOTH",
"1132 104 OFFCURVE",
"1151 104 OFFCURVE",
"1174 100 CURVE SMOOTH",
"1240 89 OFFCURVE",
"1335 60 OFFCURVE",
"1386 34 CURVE SMOOTH",
"1404 25 OFFCURVE",
"1415 10 OFFCURVE",
"1411 1 CURVE SMOOTH",
"1408 -5 OFFCURVE",
"1398 -4 OFFCURVE",
"1361 1 CURVE SMOOTH"
);
}
);
width = 1442;
},
{
layerId = "99B43F0D-E5AD-4461-80B0-7E1D7FD75A43";
paths = (
{
closed = 1;
nodes = (
"1013 204 OFFCURVE",
"987 206 OFFCURVE",
"966 215 CURVE SMOOTH",
"943 225 OFFCURVE",
"925 250 OFFCURVE",
"911 289 CURVE SMOOTH",
"904 309 OFFCURVE",
"898 322 OFFCURVE",
"888 332 CURVE SMOOTH",
"878 342 OFFCURVE",
"875 350 OFFCURVE",
"878 358 CURVE SMOOTH",
"881 367 OFFCURVE",
"888 371 OFFCURVE",
"902 371 CURVE SMOOTH",
"933 371 OFFCURVE",
"977 369 OFFCURVE",
"983 367 CURVE SMOOTH",
"989 365 OFFCURVE",
"1006 355 OFFCURVE",
"1013 342 CURVE SMOOTH",
"1014 340 OFFCURVE",
"1019 332 OFFCURVE",
"1025 319 CURVE SMOOTH",
"1028 313 OFFCURVE",
"1034 299 OFFCURVE",
"1041 286 CURVE SMOOTH",
"1055 261 OFFCURVE",
"1060 255 OFFCURVE",
"1077 253 CURVE SMOOTH",
"1085 252 OFFCURVE",
"1098 247 OFFCURVE",
"1098 236 CURVE SMOOTH",
"1098 228 OFFCURVE",
"1094 222 OFFCURVE",
"1075 213 CURVE SMOOTH",
"1062 207 OFFCURVE",
"1055 204 OFFCURVE",
"1035 204 CURVE SMOOTH"
);
},
{
closed = 1;
nodes = (
"1223 203 OFFCURVE",
"1197 206 OFFCURVE",
"1176 215 CURVE SMOOTH",
"1153 225 OFFCURVE",
"1135 250 OFFCURVE",
"1121 289 CURVE SMOOTH",
"1114 309 OFFCURVE",
"1108 322 OFFCURVE",
"1098 332 CURVE SMOOTH",
"1088 342 OFFCURVE",
"1085 350 OFFCURVE",
"1088 358 CURVE SMOOTH",
"1091 367 OFFCURVE",
"1098 371 OFFCURVE",
"1112 371 CURVE SMOOTH",
"1143 371 OFFCURVE",
"1187 369 OFFCURVE",
"1193 367 CURVE SMOOTH",
"1199 365 OFFCURVE",
"1217 355 OFFCURVE",
"1223 342 CURVE SMOOTH",
"1224 340 OFFCURVE",
"1229 332 OFFCURVE",
"1235 319 CURVE SMOOTH",
"1238 313 OFFCURVE",
"1244 299 OFFCURVE",
"1251 286 CURVE SMOOTH",
"1265 261 OFFCURVE",
"1270 255 OFFCURVE",
"1287 253 CURVE SMOOTH",
"1295 252 OFFCURVE",
"1308 247 OFFCURVE",
"1308 236 CURVE SMOOTH",
"1308 228 OFFCURVE",
"1303 222 OFFCURVE",
"1285 213 CURVE SMOOTH",
"1273 207 OFFCURVE",
"1265 205 OFFCURVE",
"1245 204 CURVE SMOOTH"
);
},
{
closed = 1;
nodes = (
"482 217 OFFCURVE",
"459 215 OFFCURVE",
"459 228 CURVE SMOOTH",
"459 238 OFFCURVE",
"483 252 OFFCURVE",
"496 267 CURVE SMOOTH",
"518 292 OFFCURVE",
"488 325 OFFCURVE",
"425 347 CURVE SMOOTH",
"363 371 OFFCURVE",
"247 392 OFFCURVE",
"168 396 CURVE SMOOTH",
"123 399 OFFCURVE",
"45 404 OFFCURVE",
"38 407 CURVE SMOOTH",
"30 410 OFFCURVE",
"28 415 OFFCURVE",
"30 420 CURVE SMOOTH",
"39 433 OFFCURVE",
"89 443 OFFCURVE",
"160 446 CURVE SMOOTH",
"254 452 OFFCURVE",
"361 433 OFFCURVE",
"477 404 CURVE SMOOTH",
"601 374 OFFCURVE",
"680 328 OFFCURVE",
"692 267 CURVE SMOOTH",
"696 244 OFFCURVE",
"693 220 OFFCURVE",
"677 208 CURVE SMOOTH",
"655 190 OFFCURVE",
"638 189 OFFCURVE",
"536 206 CURVE SMOOTH"
);
},
{
closed = 1;
nodes = (
"1236 18 OFFCURVE",
"1098 22 OFFCURVE",
"969 16 CURVE SMOOTH",
"852 11 OFFCURVE",
"792 12 OFFCURVE",
"630 6 CURVE SMOOTH",
"502 1 OFFCURVE",
"461 5 OFFCURVE",
"427 6 CURVE SMOOTH",
"297 10 OFFCURVE",
"207 23 OFFCURVE",
"171 31 CURVE SMOOTH",
"148 36 OFFCURVE",
"116 54 OFFCURVE",
"83 80 CURVE SMOOTH",
"61 97 OFFCURVE",
"51 120 OFFCURVE",
"67 120 CURVE SMOOTH",
"69 120 OFFCURVE",
"86 117 OFFCURVE",
"102 114 CURVE SMOOTH",
"170 101 OFFCURVE",
"185 101 OFFCURVE",
"339 99 CURVE SMOOTH",
"420 98 OFFCURVE",
"558 99 OFFCURVE",
"658 101 CURVE SMOOTH",
"752 103 OFFCURVE",
"902 104 OFFCURVE",
"989 104 CURVE SMOOTH",
"1132 104 OFFCURVE",
"1151 104 OFFCURVE",
"1174 100 CURVE SMOOTH",
"1240 89 OFFCURVE",
"1335 60 OFFCURVE",
"1386 34 CURVE SMOOTH",
"1404 25 OFFCURVE",
"1415 10 OFFCURVE",
"1411 1 CURVE SMOOTH",
"1408 -5 OFFCURVE",
"1398 -4 OFFCURVE",
"1361 1 CURVE SMOOTH"
);
}
);
width = 1442;
}
);
unicode = 0058;
},
{
glyphname = Y;
lastChange = "2019-02-20 04:49:48 +0000";
layers = (
{
layerId = "A365CA76-4FD1-4CBB-A2E4-19DAF29CA71F";
paths = (
{
closed = 1;
nodes = (
"986 188 OFFCURVE",
"920 199 OFFCURVE",
"874 205 CURVE SMOOTH",
"782 217 OFFCURVE",
"849 230 OFFCURVE",
"789 303 CURVE SMOOTH",
"766 331 OFFCURVE",
"749 342 OFFCURVE",
"685 373 CURVE SMOOTH",
"584 422 OFFCURVE",
"479 445 OFFCURVE",
"378 445 CURVE SMOOTH",
"316 445 OFFCURVE",
"230 435 OFFCURVE",
"211 382 CURVE SMOOTH",
"197 342 OFFCURVE",
"230 317 OFFCURVE",
"280 285 CURVE SMOOTH",
"321 259 OFFCURVE",
"242 265 OFFCURVE",
"178 278 CURVE SMOOTH",
"118 290 OFFCURVE",
"81 296 OFFCURVE",
"45 350 CURVE SMOOTH",
"33 368 OFFCURVE",
"30 381 OFFCURVE",
"30 410 CURVE SMOOTH",
"30 529 OFFCURVE",
"254 526 OFFCURVE",
"426 500 CURVE SMOOTH",
"634 469 OFFCURVE",
"879 384 OFFCURVE",
"1000 256 CURVE SMOOTH",
"1036 218 OFFCURVE",
"1041 199 OFFCURVE",
"1012 193 CURVE SMOOTH"
);
},
{
closed = 1;
nodes = (
"442 -80 OFFCURVE",
"347 -45 CURVE SMOOTH",
"195 11 OFFCURVE",
"102 53 OFFCURVE",
"66 91 CURVE SMOOTH",
"35 123 OFFCURVE",
"40 146 OFFCURVE",
"84 154 CURVE SMOOTH",
"123 161 OFFCURVE",
"317 157 OFFCURVE",
"345 133 CURVE SMOOTH",
"352 127 OFFCURVE",
"353 122 OFFCURVE",
"346 115 CURVE SMOOTH",
"344 113 OFFCURVE",
"338 113 OFFCURVE",
"314 111 CURVE SMOOTH",
"286 109 OFFCURVE",
"272 107 OFFCURVE",
"271 103 CURVE SMOOTH",
"261 65 OFFCURVE",
"414 -2 OFFCURVE",
"498 -24 CURVE SMOOTH",
"669 -69 OFFCURVE",
"911 -78 OFFCURVE",
"911 28 CURVE SMOOTH",
"911 66 OFFCURVE",
"888 96 OFFCURVE",
"846 117 CURVE SMOOTH",
"782 149 OFFCURVE",
"840 155 OFFCURVE",
"914 155 CURVE SMOOTH",
"1014 155 OFFCURVE",
"1098 130 OFFCURVE",
"1077 26 CURVE SMOOTH",
"1057 -74 OFFCURVE",
"903 -107 OFFCURVE",
"736 -104 CURVE SMOOTH",
"621 -102 OFFCURVE"
);
},
{
closed = 1;
nodes = (
"458 565 OFFCURVE",
"457 570 OFFCURVE",
"457 574 CURVE SMOOTH",
"457 578 OFFCURVE",
"487 618 OFFCURVE",
"487 622 CURVE SMOOTH",
"487 623 OFFCURVE",
"478 623 OFFCURVE",
"458 623 CURVE SMOOTH",
"415 623 OFFCURVE",
"331 632 OFFCURVE",
"295 640 CURVE SMOOTH",
"239 652 OFFCURVE",
"194 671 OFFCURVE",
"157 701 CURVE SMOOTH",
"125 727 OFFCURVE",
"110 750 OFFCURVE",
"89 795 CURVE SMOOTH",
"72 832 OFFCURVE",
"25 974 OFFCURVE",
"30 980 CURVE SMOOTH",
"34 985 OFFCURVE",
"50 981 OFFCURVE",
"76 979 CURVE SMOOTH",
"116 976 OFFCURVE",
"124 976 OFFCURVE",
"139 966 CURVE SMOOTH",
"165 949 OFFCURVE",
"178 920 OFFCURVE",
"189 873 CURVE SMOOTH",
"203 814 OFFCURVE",
"235 766 OFFCURVE",
"262 737 CURVE SMOOTH",
"300 696 OFFCURVE",
"349 685 OFFCURVE",
"418 676 CURVE SMOOTH",
"442 673 OFFCURVE",
"482 670 OFFCURVE",
"502 670 CURVE SMOOTH",
"505 670 OFFCURVE",
"513 670 OFFCURVE",
"514 671 CURVE SMOOTH",
"515 672 OFFCURVE",
"539 718 OFFCURVE",
"544 725 CURVE SMOOTH",
"551 735 OFFCURVE",
"545 733 OFFCURVE",
"584 734 CURVE SMOOTH",
"629 735 OFFCURVE",
"654 735 OFFCURVE",
"656 733 CURVE SMOOTH",
"659 730 OFFCURVE",
"650 708 OFFCURVE",
"648 704 CURVE SMOOTH",
"640 688 OFFCURVE",
"634 673 OFFCURVE",
"634 671 CURVE SMOOTH",
"634 668 OFFCURVE",
"653 665 OFFCURVE",
"800 665 CURVE SMOOTH",
"844 665 OFFCURVE",
"924 667 OFFCURVE",
"932 663 CURVE SMOOTH",
"934 662 OFFCURVE",
"928 651 OFFCURVE",
"922 646 CURVE SMOOTH",
"908 634 OFFCURVE",
"881 631 OFFCURVE",
"836 628 CURVE SMOOTH",
"780 624 OFFCURVE",
"664 620 OFFCURVE",
"622 620 CURVE SMOOTH",
"619 620 OFFCURVE",
"613 620 OFFCURVE",
"613 619 CURVE SMOOTH",
"613 618 OFFCURVE",
"592 591 OFFCURVE",
"582 583 CURVE SMOOTH",
"561 566 OFFCURVE",
"547 565 OFFCURVE",
"499 565 CURVE SMOOTH",
"480 565 OFFCURVE",
"463 565 OFFCURVE",
"462 565 CURVE SMOOTH"
);
}
);
width = 1110;
},
{
layerId = "99B43F0D-E5AD-4461-80B0-7E1D7FD75A43";
paths = (
{
closed = 1;
nodes = (
"986 188 OFFCURVE",
"920 199 OFFCURVE",
"874 205 CURVE SMOOTH",
"782 217 OFFCURVE",
"849 230 OFFCURVE",
"789 303 CURVE SMOOTH",
"766 331 OFFCURVE",
"749 342 OFFCURVE",
"685 373 CURVE SMOOTH",
"584 422 OFFCURVE",
"479 445 OFFCURVE",
"378 445 CURVE SMOOTH",
"316 445 OFFCURVE",
"230 435 OFFCURVE",
"211 382 CURVE SMOOTH",
"197 342 OFFCURVE",
"230 317 OFFCURVE",
"280 285 CURVE SMOOTH",
"321 259 OFFCURVE",
"242 265 OFFCURVE",
"178 278 CURVE SMOOTH",
"118 290 OFFCURVE",
"81 296 OFFCURVE",
"45 350 CURVE SMOOTH",
"33 368 OFFCURVE",
"30 381 OFFCURVE",
"30 410 CURVE SMOOTH",
"30 529 OFFCURVE",
"254 526 OFFCURVE",
"426 500 CURVE SMOOTH",
"634 469 OFFCURVE",
"879 384 OFFCURVE",
"1000 256 CURVE SMOOTH",
"1036 218 OFFCURVE",
"1041 199 OFFCURVE",
"1012 193 CURVE SMOOTH"
);
},
{
closed = 1;
nodes = (
"442 -80 OFFCURVE",
"347 -45 CURVE SMOOTH",
"195 11 OFFCURVE",
"102 53 OFFCURVE",
"66 91 CURVE SMOOTH",
"35 123 OFFCURVE",
"40 146 OFFCURVE",
"84 154 CURVE SMOOTH",
"123 161 OFFCURVE",
"317 157 OFFCURVE",
"345 133 CURVE SMOOTH",
"352 127 OFFCURVE",
"353 122 OFFCURVE",
"346 115 CURVE SMOOTH",
"344 113 OFFCURVE",
"338 113 OFFCURVE",
"314 111 CURVE SMOOTH",
"286 109 OFFCURVE",
"272 107 OFFCURVE",
"271 103 CURVE SMOOTH",
"261 65 OFFCURVE",
"414 -2 OFFCURVE",
"498 -24 CURVE SMOOTH",
"669 -69 OFFCURVE",
"911 -78 OFFCURVE",
"911 28 CURVE SMOOTH",
"911 66 OFFCURVE",
"888 96 OFFCURVE",
"846 117 CURVE SMOOTH",
"782 149 OFFCURVE",
"840 155 OFFCURVE",
"914 155 CURVE SMOOTH",
"1014 155 OFFCURVE",
"1098 130 OFFCURVE",
"1077 26 CURVE SMOOTH",
"1057 -74 OFFCURVE",
"903 -107 OFFCURVE",
"736 -104 CURVE SMOOTH",
"621 -102 OFFCURVE"
);
},
{
closed = 1;
nodes = (
"458 565 OFFCURVE",
"457 570 OFFCURVE",
"457 574 CURVE SMOOTH",
"457 578 OFFCURVE",
"487 618 OFFCURVE",
"487 622 CURVE SMOOTH",
"487 623 OFFCURVE",
"478 623 OFFCURVE",
"458 623 CURVE SMOOTH",
"415 623 OFFCURVE",
"331 632 OFFCURVE",
"295 640 CURVE SMOOTH",
"239 652 OFFCURVE",
"194 671 OFFCURVE",
"157 701 CURVE SMOOTH",
"125 727 OFFCURVE",
"110 750 OFFCURVE",
"89 795 CURVE SMOOTH",
"72 832 OFFCURVE",
"25 974 OFFCURVE",
"30 980 CURVE SMOOTH",
"34 985 OFFCURVE",
"50 981 OFFCURVE",
"76 979 CURVE SMOOTH",
"116 976 OFFCURVE",
"124 976 OFFCURVE",
"139 966 CURVE SMOOTH",
"165 949 OFFCURVE",
"178 920 OFFCURVE",
"189 873 CURVE SMOOTH",
"203 814 OFFCURVE",
"235 766 OFFCURVE",
"262 737 CURVE SMOOTH",
"300 696 OFFCURVE",
"349 685 OFFCURVE",
"418 676 CURVE SMOOTH",
"442 673 OFFCURVE",
"482 670 OFFCURVE",
"502 670 CURVE SMOOTH",
"505 670 OFFCURVE",
"513 670 OFFCURVE",
"514 671 CURVE SMOOTH",
"515 672 OFFCURVE",
"539 718 OFFCURVE",
"544 725 CURVE SMOOTH",
"551 735 OFFCURVE",
"545 733 OFFCURVE",
"584 734 CURVE SMOOTH",
"629 735 OFFCURVE",
"654 735 OFFCURVE",
"656 733 CURVE SMOOTH",
"659 730 OFFCURVE",
"650 708 OFFCURVE",
"648 704 CURVE SMOOTH",
"640 688 OFFCURVE",
"634 673 OFFCURVE",
"634 671 CURVE SMOOTH",
"634 668 OFFCURVE",
"653 665 OFFCURVE",
"800 665 CURVE SMOOTH",
"844 665 OFFCURVE",
"924 667 OFFCURVE",
"932 663 CURVE SMOOTH",
"934 662 OFFCURVE",
"928 651 OFFCURVE",
"922 646 CURVE SMOOTH",
"908 634 OFFCURVE",
"881 631 OFFCURVE",
"836 628 CURVE SMOOTH",
"780 624 OFFCURVE",
"664 620 OFFCURVE",
"622 620 CURVE SMOOTH",
"619 620 OFFCURVE",
"613 620 OFFCURVE",
"613 619 CURVE SMOOTH",
"613 618 OFFCURVE",
"592 591 OFFCURVE",
"582 583 CURVE SMOOTH",
"561 566 OFFCURVE",
"547 565 OFFCURVE",
"499 565 CURVE SMOOTH",
"480 565 OFFCURVE",
"463 565 OFFCURVE",
"462 565 CURVE SMOOTH"
);
}
);
width = 1110;
}
);
unicode = 0059;
},
{
glyphname = Z;
lastChange = "2019-02-20 04:49:48 +0000";
layers = (
{
layerId = "A365CA76-4FD1-4CBB-A2E4-19DAF29CA71F";
paths = (
{
closed = 1;
nodes = (
"566 184 OFFCURVE",
"540 186 OFFCURVE",
"519 195 CURVE SMOOTH",
"496 205 OFFCURVE",
"477 230 OFFCURVE",
"464 269 CURVE SMOOTH",
"457 289 OFFCURVE",
"451 302 OFFCURVE",
"441 312 CURVE SMOOTH",
"431 322 OFFCURVE",
"428 330 OFFCURVE",
"431 338 CURVE SMOOTH",
"435 347 OFFCURVE",
"441 351 OFFCURVE",
"455 351 CURVE SMOOTH",
"486 351 OFFCURVE",
"530 349 OFFCURVE",
"536 347 CURVE SMOOTH",
"542 345 OFFCURVE",
"559 335 OFFCURVE",
"566 322 CURVE SMOOTH",
"567 320 OFFCURVE",
"572 312 OFFCURVE",
"578 299 CURVE SMOOTH",
"581 293 OFFCURVE",
"587 279 OFFCURVE",
"594 266 CURVE SMOOTH",
"608 241 OFFCURVE",
"613 235 OFFCURVE",
"630 233 CURVE SMOOTH",
"638 232 OFFCURVE",
"651 227 OFFCURVE",
"651 216 CURVE SMOOTH",
"651 208 OFFCURVE",
"647 202 OFFCURVE",
"628 193 CURVE SMOOTH",
"615 187 OFFCURVE",
"608 184 OFFCURVE",
"588 184 CURVE SMOOTH"
);
},
{
closed = 1;
nodes = (
"776 183 OFFCURVE",
"750 186 OFFCURVE",
"729 195 CURVE SMOOTH",
"706 205 OFFCURVE",
"687 230 OFFCURVE",
"674 269 CURVE SMOOTH",
"667 289 OFFCURVE",
"661 302 OFFCURVE",
"651 312 CURVE SMOOTH",
"641 322 OFFCURVE",
"638 330 OFFCURVE",
"641 338 CURVE SMOOTH",
"645 347 OFFCURVE",
"651 351 OFFCURVE",
"665 351 CURVE SMOOTH",
"696 351 OFFCURVE",
"740 349 OFFCURVE",
"746 347 CURVE SMOOTH",
"752 345 OFFCURVE",
"770 335 OFFCURVE",
"776 322 CURVE SMOOTH",
"777 320 OFFCURVE",
"782 312 OFFCURVE",
"788 299 CURVE SMOOTH",
"791 293 OFFCURVE",
"797 279 OFFCURVE",
"804 266 CURVE SMOOTH",
"818 241 OFFCURVE",
"823 235 OFFCURVE",
"840 233 CURVE SMOOTH",
"848 232 OFFCURVE",
"861 227 OFFCURVE",
"861 216 CURVE SMOOTH",
"861 208 OFFCURVE",
"856 202 OFFCURVE",
"838 193 CURVE SMOOTH",
"826 187 OFFCURVE",
"818 185 OFFCURVE",
"798 184 CURVE SMOOTH"
);
},
{
closed = 1;
nodes = (
"1294 -6 OFFCURVE",
"1144 9 OFFCURVE",
"1080 12 CURVE SMOOTH",
"938 23 OFFCURVE",
"326 -22 OFFCURVE",
"137 28 CURVE SMOOTH",
"117 33 OFFCURVE",
"87 52 OFFCURVE",
"51 83 CURVE SMOOTH",
"31 100 OFFCURVE",
"30 103 OFFCURVE",
"30 114 CURVE SMOOTH",
"30 129 OFFCURVE",
"43 125 OFFCURVE",
"82 117 CURVE SMOOTH",
"97 114 OFFCURVE",
"127 107 OFFCURVE",
"148 106 CURVE SMOOTH",
"199 104 OFFCURVE",
"573 101 OFFCURVE",
"654 104 CURVE SMOOTH",
"733 107 OFFCURVE",
"1051 112 OFFCURVE",
"1080 106 CURVE SMOOTH",
"1142 94 OFFCURVE",
"1241 63 OFFCURVE",
"1292 35 CURVE SMOOTH",
"1305 28 OFFCURVE",
"1314 22 OFFCURVE",
"1317 12 CURVE SMOOTH",
"1323 -7 OFFCURVE",
"1321 -6 OFFCURVE",
"1307 -6 CURVE SMOOTH"
);
}
);
width = 1351;
},
{
layerId = "99B43F0D-E5AD-4461-80B0-7E1D7FD75A43";
paths = (
{
closed = 1;
nodes = (
"566 184 OFFCURVE",
"540 186 OFFCURVE",
"519 195 CURVE SMOOTH",
"496 205 OFFCURVE",
"477 230 OFFCURVE",
"464 269 CURVE SMOOTH",
"457 289 OFFCURVE",
"451 302 OFFCURVE",
"441 312 CURVE SMOOTH",
"431 322 OFFCURVE",
"428 330 OFFCURVE",
"431 338 CURVE SMOOTH",
"435 347 OFFCURVE",
"441 351 OFFCURVE",
"455 351 CURVE SMOOTH",
"486 351 OFFCURVE",
"530 349 OFFCURVE",
"536 347 CURVE SMOOTH",
"542 345 OFFCURVE",
"559 335 OFFCURVE",
"566 322 CURVE SMOOTH",
"567 320 OFFCURVE",
"572 312 OFFCURVE",
"578 299 CURVE SMOOTH",
"581 293 OFFCURVE",
"587 279 OFFCURVE",
"594 266 CURVE SMOOTH",
"608 241 OFFCURVE",
"613 235 OFFCURVE",
"630 233 CURVE SMOOTH",
"638 232 OFFCURVE",
"651 227 OFFCURVE",
"651 216 CURVE SMOOTH",
"651 208 OFFCURVE",
"647 202 OFFCURVE",
"628 193 CURVE SMOOTH",
"615 187 OFFCURVE",
"608 184 OFFCURVE",
"588 184 CURVE SMOOTH"
);
},
{
closed = 1;
nodes = (
"776 183 OFFCURVE",
"750 186 OFFCURVE",
"729 195 CURVE SMOOTH",
"706 205 OFFCURVE",
"687 230 OFFCURVE",
"674 269 CURVE SMOOTH",
"667 289 OFFCURVE",
"661 302 OFFCURVE",
"651 312 CURVE SMOOTH",
"641 322 OFFCURVE",
"638 330 OFFCURVE",
"641 338 CURVE SMOOTH",
"645 347 OFFCURVE",
"651 351 OFFCURVE",
"665 351 CURVE SMOOTH",
"696 351 OFFCURVE",
"740 349 OFFCURVE",
"746 347 CURVE SMOOTH",
"752 345 OFFCURVE",
"770 335 OFFCURVE",
"776 322 CURVE SMOOTH",
"777 320 OFFCURVE",
"782 312 OFFCURVE",
"788 299 CURVE SMOOTH",
"791 293 OFFCURVE",
"797 279 OFFCURVE",
"804 266 CURVE SMOOTH",
"818 241 OFFCURVE",
"823 235 OFFCURVE",
"840 233 CURVE SMOOTH",
"848 232 OFFCURVE",
"861 227 OFFCURVE",
"861 216 CURVE SMOOTH",
"861 208 OFFCURVE",
"856 202 OFFCURVE",
"838 193 CURVE SMOOTH",
"826 187 OFFCURVE",
"818 185 OFFCURVE",
"798 184 CURVE SMOOTH"
);
},
{
closed = 1;
nodes = (
"1294 -6 OFFCURVE",
"1144 9 OFFCURVE",
"1080 12 CURVE SMOOTH",
"938 23 OFFCURVE",
"326 -22 OFFCURVE",
"137 28 CURVE SMOOTH",
"117 33 OFFCURVE",
"87 52 OFFCURVE",
"51 83 CURVE SMOOTH",
"31 100 OFFCURVE",
"30 103 OFFCURVE",
"30 114 CURVE SMOOTH",
"30 129 OFFCURVE",
"43 125 OFFCURVE",
"82 117 CURVE SMOOTH",
"97 114 OFFCURVE",
"127 107 OFFCURVE",
"148 106 CURVE SMOOTH",
"199 104 OFFCURVE",
"573 101 OFFCURVE",
"654 104 CURVE SMOOTH",
"733 107 OFFCURVE",
"1051 112 OFFCURVE",
"1080 106 CURVE SMOOTH",
"1142 94 OFFCURVE",
"1241 63 OFFCURVE",
"1292 35 CURVE SMOOTH",
"1305 28 OFFCURVE",
"1314 22 OFFCURVE",
"1317 12 CURVE SMOOTH",
"1323 -7 OFFCURVE",
"1321 -6 OFFCURVE",
"1307 -6 CURVE SMOOTH"
);
}
);
width = 1351;
}
);
unicode = 005A;
},
{
glyphname = a;
lastChange = "2019-02-20 04:49:48 +0000";
layers = (
{
layerId = "A365CA76-4FD1-4CBB-A2E4-19DAF29CA71F";
paths = (
{
closed = 1;
nodes = (
"-766 223 OFFCURVE",
"-853 262 CURVE SMOOTH",
"-882 275 OFFCURVE",
"-903 290 OFFCURVE",
"-903 299 CURVE SMOOTH",
"-903 302 OFFCURVE",
"-894 305 OFFCURVE",
"-887 305 CURVE SMOOTH",
"-882 305 OFFCURVE",
"-875 303 OFFCURVE",
"-856 294 CURVE SMOOTH",
"-789 260 OFFCURVE",
"-730 242 OFFCURVE",
"-670 242 CURVE SMOOTH",
"-642 242 OFFCURVE",
"-612 242 OFFCURVE",
"-608 258 CURVE SMOOTH",
"-607 261 OFFCURVE",
"-610 265 OFFCURVE",
"-620 276 CURVE SMOOTH",
"-636 294 OFFCURVE",
"-636 296 OFFCURVE",
"-627 302 CURVE SMOOTH",
"-622 305 OFFCURVE",
"-619 306 OFFCURVE",
"-605 305 CURVE SMOOTH",
"-577 303 OFFCURVE",
"-551 294 OFFCURVE",
"-529 277 CURVE SMOOTH",
"-518 268 OFFCURVE",
"-511 255 OFFCURVE",
"-525 236 CURVE SMOOTH",
"-533 224 OFFCURVE",
"-558 213 OFFCURVE",
"-588 208 CURVE SMOOTH",
"-664 196 OFFCURVE"
);
}
);
width = 0;
},
{
layerId = "99B43F0D-E5AD-4461-80B0-7E1D7FD75A43";
paths = (
{
closed = 1;
nodes = (
"-766 223 OFFCURVE",
"-853 262 CURVE SMOOTH",
"-882 275 OFFCURVE",
"-903 290 OFFCURVE",
"-903 299 CURVE SMOOTH",
"-903 302 OFFCURVE",
"-894 305 OFFCURVE",
"-887 305 CURVE SMOOTH",
"-882 305 OFFCURVE",
"-875 303 OFFCURVE",
"-856 294 CURVE SMOOTH",
"-789 260 OFFCURVE",
"-730 242 OFFCURVE",
"-670 242 CURVE SMOOTH",
"-642 242 OFFCURVE",
"-612 242 OFFCURVE",
"-608 258 CURVE SMOOTH",
"-607 261 OFFCURVE",
"-610 265 OFFCURVE",
"-620 276 CURVE SMOOTH",
"-636 294 OFFCURVE",
"-636 296 OFFCURVE",
"-627 302 CURVE SMOOTH",
"-622 305 OFFCURVE",
"-619 306 OFFCURVE",
"-605 305 CURVE SMOOTH",
"-577 303 OFFCURVE",
"-551 294 OFFCURVE",
"-529 277 CURVE SMOOTH",
"-518 268 OFFCURVE",
"-511 255 OFFCURVE",
"-525 236 CURVE SMOOTH",
"-533 224 OFFCURVE",
"-558 213 OFFCURVE",
"-588 208 CURVE SMOOTH",
"-664 196 OFFCURVE"
);
}
);
width = 0;
}
);
unicode = 0061;
},
